%TF.GenerationSoftware,KiCad,Pcbnew,(5.1.12)-1*%
%TF.CreationDate,2023-02-18T19:15:58+02:00*%
%TF.ProjectId,BatteryPowerPCB_SPV,42617474-6572-4795-906f-776572504342,rev?*%
%TF.SameCoordinates,Original*%
%TF.FileFunction,Copper,L1,Top*%
%TF.FilePolarity,Positive*%
%FSLAX46Y46*%
G04 Gerber Fmt 4.6, Leading zero omitted, Abs format (unit mm)*
G04 Created by KiCad (PCBNEW (5.1.12)-1) date 2023-02-18 19:15:58*
%MOMM*%
%LPD*%
G01*
G04 APERTURE LIST*
%TA.AperFunction,SMDPad,CuDef*%
%ADD10R,0.700000X0.600000*%
%TD*%
%TA.AperFunction,ComponentPad*%
%ADD11C,5.600000*%
%TD*%
%TA.AperFunction,SMDPad,CuDef*%
%ADD12R,1.000000X1.000000*%
%TD*%
%TA.AperFunction,ComponentPad*%
%ADD13O,2.000000X1.700000*%
%TD*%
%TA.AperFunction,ComponentPad*%
%ADD14O,1.750000X1.200000*%
%TD*%
%TA.AperFunction,SMDPad,CuDef*%
%ADD15R,0.900000X0.800000*%
%TD*%
%TA.AperFunction,SMDPad,CuDef*%
%ADD16R,0.800000X0.900000*%
%TD*%
%TA.AperFunction,SMDPad,CuDef*%
%ADD17R,0.650000X1.560000*%
%TD*%
%TA.AperFunction,SMDPad,CuDef*%
%ADD18R,1.200000X1.200000*%
%TD*%
%TA.AperFunction,SMDPad,CuDef*%
%ADD19R,0.340000X0.340000*%
%TD*%
%TA.AperFunction,SMDPad,CuDef*%
%ADD20R,0.700000X0.300000*%
%TD*%
%TA.AperFunction,SMDPad,CuDef*%
%ADD21R,0.300000X0.700000*%
%TD*%
%TA.AperFunction,ViaPad*%
%ADD22C,0.800000*%
%TD*%
%TA.AperFunction,Conductor*%
%ADD23C,0.250000*%
%TD*%
%TA.AperFunction,Conductor*%
%ADD24C,0.254000*%
%TD*%
%TA.AperFunction,Conductor*%
%ADD25C,0.100000*%
%TD*%
G04 APERTURE END LIST*
D10*
%TO.P,D2,2*%
%TO.N,/LDO2_EN*%
X24300000Y-47900000D03*
%TO.P,D2,1*%
%TO.N,+BATT*%
X24300000Y-49300000D03*
%TD*%
D11*
%TO.P,REF\u002A\u002A,1*%
%TO.N,N/C*%
X39000000Y-61000000D03*
%TD*%
%TO.P,REF\u002A\u002A,1*%
%TO.N,N/C*%
X17000000Y-61000000D03*
%TD*%
%TO.P,REF\u002A\u002A,1*%
%TO.N,N/C*%
X39000000Y-19000000D03*
%TD*%
%TO.P,REF\u002A\u002A,1*%
%TO.N,N/C*%
X17000000Y-19000000D03*
%TD*%
%TO.P,C1,2*%
%TO.N,+BATT*%
%TA.AperFunction,SMDPad,CuDef*%
G36*
G01*
X16237500Y-24275000D02*
X15762500Y-24275000D01*
G75*
G02*
X15525000Y-24037500I0J237500D01*
G01*
X15525000Y-23437500D01*
G75*
G02*
X15762500Y-23200000I237500J0D01*
G01*
X16237500Y-23200000D01*
G75*
G02*
X16475000Y-23437500I0J-237500D01*
G01*
X16475000Y-24037500D01*
G75*
G02*
X16237500Y-24275000I-237500J0D01*
G01*
G37*
%TD.AperFunction*%
%TO.P,C1,1*%
%TO.N,GND*%
%TA.AperFunction,SMDPad,CuDef*%
G36*
G01*
X16237500Y-26000000D02*
X15762500Y-26000000D01*
G75*
G02*
X15525000Y-25762500I0J237500D01*
G01*
X15525000Y-25162500D01*
G75*
G02*
X15762500Y-24925000I237500J0D01*
G01*
X16237500Y-24925000D01*
G75*
G02*
X16475000Y-25162500I0J-237500D01*
G01*
X16475000Y-25762500D01*
G75*
G02*
X16237500Y-26000000I-237500J0D01*
G01*
G37*
%TD.AperFunction*%
%TD*%
%TO.P,C2,2*%
%TO.N,Net-(C2-Pad2)*%
%TA.AperFunction,SMDPad,CuDef*%
G36*
G01*
X31175000Y-34562500D02*
X31175000Y-35037500D01*
G75*
G02*
X30937500Y-35275000I-237500J0D01*
G01*
X30337500Y-35275000D01*
G75*
G02*
X30100000Y-35037500I0J237500D01*
G01*
X30100000Y-34562500D01*
G75*
G02*
X30337500Y-34325000I237500J0D01*
G01*
X30937500Y-34325000D01*
G75*
G02*
X31175000Y-34562500I0J-237500D01*
G01*
G37*
%TD.AperFunction*%
%TO.P,C2,1*%
%TO.N,Net-(C2-Pad1)*%
%TA.AperFunction,SMDPad,CuDef*%
G36*
G01*
X32900000Y-34562500D02*
X32900000Y-35037500D01*
G75*
G02*
X32662500Y-35275000I-237500J0D01*
G01*
X32062500Y-35275000D01*
G75*
G02*
X31825000Y-35037500I0J237500D01*
G01*
X31825000Y-34562500D01*
G75*
G02*
X32062500Y-34325000I237500J0D01*
G01*
X32662500Y-34325000D01*
G75*
G02*
X32900000Y-34562500I0J-237500D01*
G01*
G37*
%TD.AperFunction*%
%TD*%
%TO.P,C4,2*%
%TO.N,GND*%
%TA.AperFunction,SMDPad,CuDef*%
G36*
G01*
X32462500Y-61825000D02*
X32937500Y-61825000D01*
G75*
G02*
X33175000Y-62062500I0J-237500D01*
G01*
X33175000Y-62662500D01*
G75*
G02*
X32937500Y-62900000I-237500J0D01*
G01*
X32462500Y-62900000D01*
G75*
G02*
X32225000Y-62662500I0J237500D01*
G01*
X32225000Y-62062500D01*
G75*
G02*
X32462500Y-61825000I237500J0D01*
G01*
G37*
%TD.AperFunction*%
%TO.P,C4,1*%
%TO.N,Net-(C4-Pad1)*%
%TA.AperFunction,SMDPad,CuDef*%
G36*
G01*
X32462500Y-60100000D02*
X32937500Y-60100000D01*
G75*
G02*
X33175000Y-60337500I0J-237500D01*
G01*
X33175000Y-60937500D01*
G75*
G02*
X32937500Y-61175000I-237500J0D01*
G01*
X32462500Y-61175000D01*
G75*
G02*
X32225000Y-60937500I0J237500D01*
G01*
X32225000Y-60337500D01*
G75*
G02*
X32462500Y-60100000I237500J0D01*
G01*
G37*
%TD.AperFunction*%
%TD*%
%TO.P,C5,1*%
%TO.N,Net-(C4-Pad1)*%
%TA.AperFunction,SMDPad,CuDef*%
G36*
G01*
X29562500Y-60100000D02*
X30037500Y-60100000D01*
G75*
G02*
X30275000Y-60337500I0J-237500D01*
G01*
X30275000Y-60937500D01*
G75*
G02*
X30037500Y-61175000I-237500J0D01*
G01*
X29562500Y-61175000D01*
G75*
G02*
X29325000Y-60937500I0J237500D01*
G01*
X29325000Y-60337500D01*
G75*
G02*
X29562500Y-60100000I237500J0D01*
G01*
G37*
%TD.AperFunction*%
%TO.P,C5,2*%
%TO.N,GND*%
%TA.AperFunction,SMDPad,CuDef*%
G36*
G01*
X29562500Y-61825000D02*
X30037500Y-61825000D01*
G75*
G02*
X30275000Y-62062500I0J-237500D01*
G01*
X30275000Y-62662500D01*
G75*
G02*
X30037500Y-62900000I-237500J0D01*
G01*
X29562500Y-62900000D01*
G75*
G02*
X29325000Y-62662500I0J237500D01*
G01*
X29325000Y-62062500D01*
G75*
G02*
X29562500Y-61825000I237500J0D01*
G01*
G37*
%TD.AperFunction*%
%TD*%
%TO.P,C6,1*%
%TO.N,Net-(C6-Pad1)*%
%TA.AperFunction,SMDPad,CuDef*%
G36*
G01*
X36237500Y-53800000D02*
X35762500Y-53800000D01*
G75*
G02*
X35525000Y-53562500I0J237500D01*
G01*
X35525000Y-52962500D01*
G75*
G02*
X35762500Y-52725000I237500J0D01*
G01*
X36237500Y-52725000D01*
G75*
G02*
X36475000Y-52962500I0J-237500D01*
G01*
X36475000Y-53562500D01*
G75*
G02*
X36237500Y-53800000I-237500J0D01*
G01*
G37*
%TD.AperFunction*%
%TO.P,C6,2*%
%TO.N,GND*%
%TA.AperFunction,SMDPad,CuDef*%
G36*
G01*
X36237500Y-52075000D02*
X35762500Y-52075000D01*
G75*
G02*
X35525000Y-51837500I0J237500D01*
G01*
X35525000Y-51237500D01*
G75*
G02*
X35762500Y-51000000I237500J0D01*
G01*
X36237500Y-51000000D01*
G75*
G02*
X36475000Y-51237500I0J-237500D01*
G01*
X36475000Y-51837500D01*
G75*
G02*
X36237500Y-52075000I-237500J0D01*
G01*
G37*
%TD.AperFunction*%
%TD*%
%TO.P,C7,1*%
%TO.N,/LDO2_EN*%
%TA.AperFunction,SMDPad,CuDef*%
G36*
G01*
X27300000Y-55562500D02*
X27300000Y-56037500D01*
G75*
G02*
X27062500Y-56275000I-237500J0D01*
G01*
X26462500Y-56275000D01*
G75*
G02*
X26225000Y-56037500I0J237500D01*
G01*
X26225000Y-55562500D01*
G75*
G02*
X26462500Y-55325000I237500J0D01*
G01*
X27062500Y-55325000D01*
G75*
G02*
X27300000Y-55562500I0J-237500D01*
G01*
G37*
%TD.AperFunction*%
%TO.P,C7,2*%
%TO.N,GND*%
%TA.AperFunction,SMDPad,CuDef*%
G36*
G01*
X25575000Y-55562500D02*
X25575000Y-56037500D01*
G75*
G02*
X25337500Y-56275000I-237500J0D01*
G01*
X24737500Y-56275000D01*
G75*
G02*
X24500000Y-56037500I0J237500D01*
G01*
X24500000Y-55562500D01*
G75*
G02*
X24737500Y-55325000I237500J0D01*
G01*
X25337500Y-55325000D01*
G75*
G02*
X25575000Y-55562500I0J-237500D01*
G01*
G37*
%TD.AperFunction*%
%TD*%
%TO.P,C8,1*%
%TO.N,Net-(C8-Pad1)*%
%TA.AperFunction,SMDPad,CuDef*%
G36*
G01*
X30237500Y-48400000D02*
X29762500Y-48400000D01*
G75*
G02*
X29525000Y-48162500I0J237500D01*
G01*
X29525000Y-47562500D01*
G75*
G02*
X29762500Y-47325000I237500J0D01*
G01*
X30237500Y-47325000D01*
G75*
G02*
X30475000Y-47562500I0J-237500D01*
G01*
X30475000Y-48162500D01*
G75*
G02*
X30237500Y-48400000I-237500J0D01*
G01*
G37*
%TD.AperFunction*%
%TO.P,C8,2*%
%TO.N,GND*%
%TA.AperFunction,SMDPad,CuDef*%
G36*
G01*
X30237500Y-46675000D02*
X29762500Y-46675000D01*
G75*
G02*
X29525000Y-46437500I0J237500D01*
G01*
X29525000Y-45837500D01*
G75*
G02*
X29762500Y-45600000I237500J0D01*
G01*
X30237500Y-45600000D01*
G75*
G02*
X30475000Y-45837500I0J-237500D01*
G01*
X30475000Y-46437500D01*
G75*
G02*
X30237500Y-46675000I-237500J0D01*
G01*
G37*
%TD.AperFunction*%
%TD*%
%TO.P,C9,2*%
%TO.N,GND*%
%TA.AperFunction,SMDPad,CuDef*%
G36*
G01*
X24550000Y-58425000D02*
X24550000Y-59375000D01*
G75*
G02*
X24300000Y-59625000I-250000J0D01*
G01*
X23625000Y-59625000D01*
G75*
G02*
X23375000Y-59375000I0J250000D01*
G01*
X23375000Y-58425000D01*
G75*
G02*
X23625000Y-58175000I250000J0D01*
G01*
X24300000Y-58175000D01*
G75*
G02*
X24550000Y-58425000I0J-250000D01*
G01*
G37*
%TD.AperFunction*%
%TO.P,C9,1*%
%TO.N,/LDO2_EN*%
%TA.AperFunction,SMDPad,CuDef*%
G36*
G01*
X26625000Y-58425000D02*
X26625000Y-59375000D01*
G75*
G02*
X26375000Y-59625000I-250000J0D01*
G01*
X25700000Y-59625000D01*
G75*
G02*
X25450000Y-59375000I0J250000D01*
G01*
X25450000Y-58425000D01*
G75*
G02*
X25700000Y-58175000I250000J0D01*
G01*
X26375000Y-58175000D01*
G75*
G02*
X26625000Y-58425000I0J-250000D01*
G01*
G37*
%TD.AperFunction*%
%TD*%
%TO.P,C10,1*%
%TO.N,/LDO2_EN*%
%TA.AperFunction,SMDPad,CuDef*%
G36*
G01*
X26625000Y-61725000D02*
X26625000Y-62675000D01*
G75*
G02*
X26375000Y-62925000I-250000J0D01*
G01*
X25700000Y-62925000D01*
G75*
G02*
X25450000Y-62675000I0J250000D01*
G01*
X25450000Y-61725000D01*
G75*
G02*
X25700000Y-61475000I250000J0D01*
G01*
X26375000Y-61475000D01*
G75*
G02*
X26625000Y-61725000I0J-250000D01*
G01*
G37*
%TD.AperFunction*%
%TO.P,C10,2*%
%TO.N,GND*%
%TA.AperFunction,SMDPad,CuDef*%
G36*
G01*
X24550000Y-61725000D02*
X24550000Y-62675000D01*
G75*
G02*
X24300000Y-62925000I-250000J0D01*
G01*
X23625000Y-62925000D01*
G75*
G02*
X23375000Y-62675000I0J250000D01*
G01*
X23375000Y-61725000D01*
G75*
G02*
X23625000Y-61475000I250000J0D01*
G01*
X24300000Y-61475000D01*
G75*
G02*
X24550000Y-61725000I0J-250000D01*
G01*
G37*
%TD.AperFunction*%
%TD*%
%TO.P,C11,2*%
%TO.N,GND*%
%TA.AperFunction,SMDPad,CuDef*%
G36*
G01*
X39762500Y-52725000D02*
X40237500Y-52725000D01*
G75*
G02*
X40475000Y-52962500I0J-237500D01*
G01*
X40475000Y-53562500D01*
G75*
G02*
X40237500Y-53800000I-237500J0D01*
G01*
X39762500Y-53800000D01*
G75*
G02*
X39525000Y-53562500I0J237500D01*
G01*
X39525000Y-52962500D01*
G75*
G02*
X39762500Y-52725000I237500J0D01*
G01*
G37*
%TD.AperFunction*%
%TO.P,C11,1*%
%TO.N,+3V3*%
%TA.AperFunction,SMDPad,CuDef*%
G36*
G01*
X39762500Y-51000000D02*
X40237500Y-51000000D01*
G75*
G02*
X40475000Y-51237500I0J-237500D01*
G01*
X40475000Y-51837500D01*
G75*
G02*
X40237500Y-52075000I-237500J0D01*
G01*
X39762500Y-52075000D01*
G75*
G02*
X39525000Y-51837500I0J237500D01*
G01*
X39525000Y-51237500D01*
G75*
G02*
X39762500Y-51000000I237500J0D01*
G01*
G37*
%TD.AperFunction*%
%TD*%
%TO.P,C13,2*%
%TO.N,GND*%
%TA.AperFunction,SMDPad,CuDef*%
G36*
G01*
X25475000Y-52662500D02*
X25475000Y-53137500D01*
G75*
G02*
X25237500Y-53375000I-237500J0D01*
G01*
X24637500Y-53375000D01*
G75*
G02*
X24400000Y-53137500I0J237500D01*
G01*
X24400000Y-52662500D01*
G75*
G02*
X24637500Y-52425000I237500J0D01*
G01*
X25237500Y-52425000D01*
G75*
G02*
X25475000Y-52662500I0J-237500D01*
G01*
G37*
%TD.AperFunction*%
%TO.P,C13,1*%
%TO.N,+BATT*%
%TA.AperFunction,SMDPad,CuDef*%
G36*
G01*
X27200000Y-52662500D02*
X27200000Y-53137500D01*
G75*
G02*
X26962500Y-53375000I-237500J0D01*
G01*
X26362500Y-53375000D01*
G75*
G02*
X26125000Y-53137500I0J237500D01*
G01*
X26125000Y-52662500D01*
G75*
G02*
X26362500Y-52425000I237500J0D01*
G01*
X26962500Y-52425000D01*
G75*
G02*
X27200000Y-52662500I0J-237500D01*
G01*
G37*
%TD.AperFunction*%
%TD*%
D12*
%TO.P,D1,2*%
%TO.N,GND*%
X32750000Y-31400000D03*
%TO.P,D1,1*%
%TO.N,Net-(D1-Pad1)*%
X30250000Y-31400000D03*
%TD*%
%TO.P,D3,1*%
%TO.N,+BATT*%
X24150000Y-22700000D03*
%TO.P,D3,2*%
%TO.N,/BATT_OUT*%
X26650000Y-22700000D03*
%TD*%
%TO.P,J1,1*%
%TO.N,-BATT*%
%TA.AperFunction,ComponentPad*%
G36*
G01*
X21750000Y-33950000D02*
X20250000Y-33950000D01*
G75*
G02*
X20000000Y-33700000I0J250000D01*
G01*
X20000000Y-32500000D01*
G75*
G02*
X20250000Y-32250000I250000J0D01*
G01*
X21750000Y-32250000D01*
G75*
G02*
X22000000Y-32500000I0J-250000D01*
G01*
X22000000Y-33700000D01*
G75*
G02*
X21750000Y-33950000I-250000J0D01*
G01*
G37*
%TD.AperFunction*%
D13*
%TO.P,J1,2*%
%TO.N,Net-(J1-Pad2)*%
X21000000Y-30600000D03*
%TD*%
%TO.P,J2,1*%
%TO.N,GND*%
%TA.AperFunction,ComponentPad*%
G36*
G01*
X19374999Y-52000000D02*
X20625001Y-52000000D01*
G75*
G02*
X20875000Y-52249999I0J-249999D01*
G01*
X20875000Y-52950001D01*
G75*
G02*
X20625001Y-53200000I-249999J0D01*
G01*
X19374999Y-53200000D01*
G75*
G02*
X19125000Y-52950001I0J249999D01*
G01*
X19125000Y-52249999D01*
G75*
G02*
X19374999Y-52000000I249999J0D01*
G01*
G37*
%TD.AperFunction*%
D14*
%TO.P,J2,2*%
%TO.N,Net-(C4-Pad1)*%
X20000000Y-54600000D03*
%TD*%
%TO.P,J3,1*%
%TO.N,GND*%
%TA.AperFunction,ComponentPad*%
G36*
G01*
X36625001Y-42600000D02*
X35374999Y-42600000D01*
G75*
G02*
X35125000Y-42350001I0J249999D01*
G01*
X35125000Y-41649999D01*
G75*
G02*
X35374999Y-41400000I249999J0D01*
G01*
X36625001Y-41400000D01*
G75*
G02*
X36875000Y-41649999I0J-249999D01*
G01*
X36875000Y-42350001D01*
G75*
G02*
X36625001Y-42600000I-249999J0D01*
G01*
G37*
%TD.AperFunction*%
%TO.P,J3,2*%
%TO.N,/SDA_DQ*%
X36000000Y-40000000D03*
%TO.P,J3,3*%
%TO.N,/SCL*%
X36000000Y-38000000D03*
%TO.P,J3,4*%
%TO.N,/INT*%
X36000000Y-36000000D03*
%TD*%
%TO.P,J4,1*%
%TO.N,GND*%
%TA.AperFunction,ComponentPad*%
G36*
G01*
X36625001Y-30600000D02*
X35374999Y-30600000D01*
G75*
G02*
X35125000Y-30350001I0J249999D01*
G01*
X35125000Y-29649999D01*
G75*
G02*
X35374999Y-29400000I249999J0D01*
G01*
X36625001Y-29400000D01*
G75*
G02*
X36875000Y-29649999I0J-249999D01*
G01*
X36875000Y-30350001D01*
G75*
G02*
X36625001Y-30600000I-249999J0D01*
G01*
G37*
%TD.AperFunction*%
%TO.P,J4,2*%
%TO.N,+3V3*%
X36000000Y-28000000D03*
%TO.P,J4,3*%
%TO.N,/BATT_OUT*%
X36000000Y-26000000D03*
%TD*%
D15*
%TO.P,Q1,1*%
%TO.N,/~BATT_CHG*%
X27300000Y-31150000D03*
%TO.P,Q1,2*%
%TO.N,+3V3*%
X27300000Y-29250000D03*
%TO.P,Q1,3*%
%TO.N,Net-(Q1-Pad3)*%
X25300000Y-30200000D03*
%TD*%
D16*
%TO.P,Q2,1*%
%TO.N,/PIO*%
X32050000Y-20400000D03*
%TO.P,Q2,2*%
%TO.N,Net-(Q2-Pad2)*%
X30150000Y-20400000D03*
%TO.P,Q2,3*%
%TO.N,/BATT_OUT*%
X31100000Y-22400000D03*
%TD*%
D15*
%TO.P,Q3,3*%
%TO.N,Net-(Q2-Pad2)*%
X27100000Y-18600000D03*
%TO.P,Q3,2*%
%TO.N,+BATT*%
X25100000Y-19550000D03*
%TO.P,Q3,1*%
%TO.N,/~BATT_CONN*%
X25100000Y-17650000D03*
%TD*%
%TO.P,R1,1*%
%TO.N,/I_SENSE_P*%
%TA.AperFunction,SMDPad,CuDef*%
G36*
G01*
X20575000Y-44500000D02*
X21825000Y-44500000D01*
G75*
G02*
X22075000Y-44750000I0J-250000D01*
G01*
X22075000Y-45550000D01*
G75*
G02*
X21825000Y-45800000I-250000J0D01*
G01*
X20575000Y-45800000D01*
G75*
G02*
X20325000Y-45550000I0J250000D01*
G01*
X20325000Y-44750000D01*
G75*
G02*
X20575000Y-44500000I250000J0D01*
G01*
G37*
%TD.AperFunction*%
%TO.P,R1,2*%
%TO.N,GND*%
%TA.AperFunction,SMDPad,CuDef*%
G36*
G01*
X20575000Y-47600000D02*
X21825000Y-47600000D01*
G75*
G02*
X22075000Y-47850000I0J-250000D01*
G01*
X22075000Y-48650000D01*
G75*
G02*
X21825000Y-48900000I-250000J0D01*
G01*
X20575000Y-48900000D01*
G75*
G02*
X20325000Y-48650000I0J250000D01*
G01*
X20325000Y-47850000D01*
G75*
G02*
X20575000Y-47600000I250000J0D01*
G01*
G37*
%TD.AperFunction*%
%TD*%
%TO.P,R2,1*%
%TO.N,Net-(R2-Pad1)*%
%TA.AperFunction,SMDPad,CuDef*%
G36*
G01*
X20662500Y-40100000D02*
X21137500Y-40100000D01*
G75*
G02*
X21375000Y-40337500I0J-237500D01*
G01*
X21375000Y-40837500D01*
G75*
G02*
X21137500Y-41075000I-237500J0D01*
G01*
X20662500Y-41075000D01*
G75*
G02*
X20425000Y-40837500I0J237500D01*
G01*
X20425000Y-40337500D01*
G75*
G02*
X20662500Y-40100000I237500J0D01*
G01*
G37*
%TD.AperFunction*%
%TO.P,R2,2*%
%TO.N,GND*%
%TA.AperFunction,SMDPad,CuDef*%
G36*
G01*
X20662500Y-41925000D02*
X21137500Y-41925000D01*
G75*
G02*
X21375000Y-42162500I0J-237500D01*
G01*
X21375000Y-42662500D01*
G75*
G02*
X21137500Y-42900000I-237500J0D01*
G01*
X20662500Y-42900000D01*
G75*
G02*
X20425000Y-42662500I0J237500D01*
G01*
X20425000Y-42162500D01*
G75*
G02*
X20662500Y-41925000I237500J0D01*
G01*
G37*
%TD.AperFunction*%
%TD*%
%TO.P,R3,2*%
%TO.N,Net-(R3-Pad2)*%
%TA.AperFunction,SMDPad,CuDef*%
G36*
G01*
X21375000Y-37862500D02*
X21375000Y-38337500D01*
G75*
G02*
X21137500Y-38575000I-237500J0D01*
G01*
X20637500Y-38575000D01*
G75*
G02*
X20400000Y-38337500I0J237500D01*
G01*
X20400000Y-37862500D01*
G75*
G02*
X20637500Y-37625000I237500J0D01*
G01*
X21137500Y-37625000D01*
G75*
G02*
X21375000Y-37862500I0J-237500D01*
G01*
G37*
%TD.AperFunction*%
%TO.P,R3,1*%
%TO.N,+BATT*%
%TA.AperFunction,SMDPad,CuDef*%
G36*
G01*
X23200000Y-37862500D02*
X23200000Y-38337500D01*
G75*
G02*
X22962500Y-38575000I-237500J0D01*
G01*
X22462500Y-38575000D01*
G75*
G02*
X22225000Y-38337500I0J237500D01*
G01*
X22225000Y-37862500D01*
G75*
G02*
X22462500Y-37625000I237500J0D01*
G01*
X22962500Y-37625000D01*
G75*
G02*
X23200000Y-37862500I0J-237500D01*
G01*
G37*
%TD.AperFunction*%
%TD*%
%TO.P,R4,2*%
%TO.N,/SDA_DQ*%
%TA.AperFunction,SMDPad,CuDef*%
G36*
G01*
X25975000Y-37662500D02*
X25975000Y-38137500D01*
G75*
G02*
X25737500Y-38375000I-237500J0D01*
G01*
X25237500Y-38375000D01*
G75*
G02*
X25000000Y-38137500I0J237500D01*
G01*
X25000000Y-37662500D01*
G75*
G02*
X25237500Y-37425000I237500J0D01*
G01*
X25737500Y-37425000D01*
G75*
G02*
X25975000Y-37662500I0J-237500D01*
G01*
G37*
%TD.AperFunction*%
%TO.P,R4,1*%
%TO.N,Net-(D1-Pad1)*%
%TA.AperFunction,SMDPad,CuDef*%
G36*
G01*
X27800000Y-37662500D02*
X27800000Y-38137500D01*
G75*
G02*
X27562500Y-38375000I-237500J0D01*
G01*
X27062500Y-38375000D01*
G75*
G02*
X26825000Y-38137500I0J237500D01*
G01*
X26825000Y-37662500D01*
G75*
G02*
X27062500Y-37425000I237500J0D01*
G01*
X27562500Y-37425000D01*
G75*
G02*
X27800000Y-37662500I0J-237500D01*
G01*
G37*
%TD.AperFunction*%
%TD*%
%TO.P,R5,2*%
%TO.N,GND*%
%TA.AperFunction,SMDPad,CuDef*%
G36*
G01*
X27762500Y-34725000D02*
X28237500Y-34725000D01*
G75*
G02*
X28475000Y-34962500I0J-237500D01*
G01*
X28475000Y-35462500D01*
G75*
G02*
X28237500Y-35700000I-237500J0D01*
G01*
X27762500Y-35700000D01*
G75*
G02*
X27525000Y-35462500I0J237500D01*
G01*
X27525000Y-34962500D01*
G75*
G02*
X27762500Y-34725000I237500J0D01*
G01*
G37*
%TD.AperFunction*%
%TO.P,R5,1*%
%TO.N,Net-(D1-Pad1)*%
%TA.AperFunction,SMDPad,CuDef*%
G36*
G01*
X27762500Y-32900000D02*
X28237500Y-32900000D01*
G75*
G02*
X28475000Y-33137500I0J-237500D01*
G01*
X28475000Y-33637500D01*
G75*
G02*
X28237500Y-33875000I-237500J0D01*
G01*
X27762500Y-33875000D01*
G75*
G02*
X27525000Y-33637500I0J237500D01*
G01*
X27525000Y-33137500D01*
G75*
G02*
X27762500Y-32900000I237500J0D01*
G01*
G37*
%TD.AperFunction*%
%TD*%
%TO.P,R6,2*%
%TO.N,Net-(Q1-Pad3)*%
%TA.AperFunction,SMDPad,CuDef*%
G36*
G01*
X25437500Y-33875000D02*
X24962500Y-33875000D01*
G75*
G02*
X24725000Y-33637500I0J237500D01*
G01*
X24725000Y-33137500D01*
G75*
G02*
X24962500Y-32900000I237500J0D01*
G01*
X25437500Y-32900000D01*
G75*
G02*
X25675000Y-33137500I0J-237500D01*
G01*
X25675000Y-33637500D01*
G75*
G02*
X25437500Y-33875000I-237500J0D01*
G01*
G37*
%TD.AperFunction*%
%TO.P,R6,1*%
%TO.N,Net-(D1-Pad1)*%
%TA.AperFunction,SMDPad,CuDef*%
G36*
G01*
X25437500Y-35700000D02*
X24962500Y-35700000D01*
G75*
G02*
X24725000Y-35462500I0J237500D01*
G01*
X24725000Y-34962500D01*
G75*
G02*
X24962500Y-34725000I237500J0D01*
G01*
X25437500Y-34725000D01*
G75*
G02*
X25675000Y-34962500I0J-237500D01*
G01*
X25675000Y-35462500D01*
G75*
G02*
X25437500Y-35700000I-237500J0D01*
G01*
G37*
%TD.AperFunction*%
%TD*%
%TO.P,R7,2*%
%TO.N,+3V3*%
%TA.AperFunction,SMDPad,CuDef*%
G36*
G01*
X30675000Y-27762500D02*
X30675000Y-28237500D01*
G75*
G02*
X30437500Y-28475000I-237500J0D01*
G01*
X29937500Y-28475000D01*
G75*
G02*
X29700000Y-28237500I0J237500D01*
G01*
X29700000Y-27762500D01*
G75*
G02*
X29937500Y-27525000I237500J0D01*
G01*
X30437500Y-27525000D01*
G75*
G02*
X30675000Y-27762500I0J-237500D01*
G01*
G37*
%TD.AperFunction*%
%TO.P,R7,1*%
%TO.N,/~BATT_CHG*%
%TA.AperFunction,SMDPad,CuDef*%
G36*
G01*
X32500000Y-27762500D02*
X32500000Y-28237500D01*
G75*
G02*
X32262500Y-28475000I-237500J0D01*
G01*
X31762500Y-28475000D01*
G75*
G02*
X31525000Y-28237500I0J237500D01*
G01*
X31525000Y-27762500D01*
G75*
G02*
X31762500Y-27525000I237500J0D01*
G01*
X32262500Y-27525000D01*
G75*
G02*
X32500000Y-27762500I0J-237500D01*
G01*
G37*
%TD.AperFunction*%
%TD*%
%TO.P,R8,2*%
%TO.N,Net-(R8-Pad2)*%
%TA.AperFunction,SMDPad,CuDef*%
G36*
G01*
X27337500Y-42575000D02*
X26862500Y-42575000D01*
G75*
G02*
X26625000Y-42337500I0J237500D01*
G01*
X26625000Y-41837500D01*
G75*
G02*
X26862500Y-41600000I237500J0D01*
G01*
X27337500Y-41600000D01*
G75*
G02*
X27575000Y-41837500I0J-237500D01*
G01*
X27575000Y-42337500D01*
G75*
G02*
X27337500Y-42575000I-237500J0D01*
G01*
G37*
%TD.AperFunction*%
%TO.P,R8,1*%
%TO.N,+BATT*%
%TA.AperFunction,SMDPad,CuDef*%
G36*
G01*
X27337500Y-44400000D02*
X26862500Y-44400000D01*
G75*
G02*
X26625000Y-44162500I0J237500D01*
G01*
X26625000Y-43662500D01*
G75*
G02*
X26862500Y-43425000I237500J0D01*
G01*
X27337500Y-43425000D01*
G75*
G02*
X27575000Y-43662500I0J-237500D01*
G01*
X27575000Y-44162500D01*
G75*
G02*
X27337500Y-44400000I-237500J0D01*
G01*
G37*
%TD.AperFunction*%
%TD*%
%TO.P,R9,1*%
%TO.N,+BATT*%
%TA.AperFunction,SMDPad,CuDef*%
G36*
G01*
X24637500Y-44400000D02*
X24162500Y-44400000D01*
G75*
G02*
X23925000Y-44162500I0J237500D01*
G01*
X23925000Y-43662500D01*
G75*
G02*
X24162500Y-43425000I237500J0D01*
G01*
X24637500Y-43425000D01*
G75*
G02*
X24875000Y-43662500I0J-237500D01*
G01*
X24875000Y-44162500D01*
G75*
G02*
X24637500Y-44400000I-237500J0D01*
G01*
G37*
%TD.AperFunction*%
%TO.P,R9,2*%
%TO.N,Net-(R9-Pad2)*%
%TA.AperFunction,SMDPad,CuDef*%
G36*
G01*
X24637500Y-42575000D02*
X24162500Y-42575000D01*
G75*
G02*
X23925000Y-42337500I0J237500D01*
G01*
X23925000Y-41837500D01*
G75*
G02*
X24162500Y-41600000I237500J0D01*
G01*
X24637500Y-41600000D01*
G75*
G02*
X24875000Y-41837500I0J-237500D01*
G01*
X24875000Y-42337500D01*
G75*
G02*
X24637500Y-42575000I-237500J0D01*
G01*
G37*
%TD.AperFunction*%
%TD*%
%TO.P,R10,1*%
%TO.N,Net-(C4-Pad1)*%
%TA.AperFunction,SMDPad,CuDef*%
G36*
G01*
X33237500Y-58312500D02*
X32762500Y-58312500D01*
G75*
G02*
X32525000Y-58075000I0J237500D01*
G01*
X32525000Y-57575000D01*
G75*
G02*
X32762500Y-57337500I237500J0D01*
G01*
X33237500Y-57337500D01*
G75*
G02*
X33475000Y-57575000I0J-237500D01*
G01*
X33475000Y-58075000D01*
G75*
G02*
X33237500Y-58312500I-237500J0D01*
G01*
G37*
%TD.AperFunction*%
%TO.P,R10,2*%
%TO.N,Net-(R10-Pad2)*%
%TA.AperFunction,SMDPad,CuDef*%
G36*
G01*
X33237500Y-56487500D02*
X32762500Y-56487500D01*
G75*
G02*
X32525000Y-56250000I0J237500D01*
G01*
X32525000Y-55750000D01*
G75*
G02*
X32762500Y-55512500I237500J0D01*
G01*
X33237500Y-55512500D01*
G75*
G02*
X33475000Y-55750000I0J-237500D01*
G01*
X33475000Y-56250000D01*
G75*
G02*
X33237500Y-56487500I-237500J0D01*
G01*
G37*
%TD.AperFunction*%
%TD*%
%TO.P,R11,2*%
%TO.N,Net-(R11-Pad2)*%
%TA.AperFunction,SMDPad,CuDef*%
G36*
G01*
X36037500Y-56475000D02*
X35562500Y-56475000D01*
G75*
G02*
X35325000Y-56237500I0J237500D01*
G01*
X35325000Y-55737500D01*
G75*
G02*
X35562500Y-55500000I237500J0D01*
G01*
X36037500Y-55500000D01*
G75*
G02*
X36275000Y-55737500I0J-237500D01*
G01*
X36275000Y-56237500D01*
G75*
G02*
X36037500Y-56475000I-237500J0D01*
G01*
G37*
%TD.AperFunction*%
%TO.P,R11,1*%
%TO.N,Net-(R10-Pad2)*%
%TA.AperFunction,SMDPad,CuDef*%
G36*
G01*
X36037500Y-58300000D02*
X35562500Y-58300000D01*
G75*
G02*
X35325000Y-58062500I0J237500D01*
G01*
X35325000Y-57562500D01*
G75*
G02*
X35562500Y-57325000I237500J0D01*
G01*
X36037500Y-57325000D01*
G75*
G02*
X36275000Y-57562500I0J-237500D01*
G01*
X36275000Y-58062500D01*
G75*
G02*
X36037500Y-58300000I-237500J0D01*
G01*
G37*
%TD.AperFunction*%
%TD*%
%TO.P,R12,1*%
%TO.N,Net-(R11-Pad2)*%
%TA.AperFunction,SMDPad,CuDef*%
G36*
G01*
X38100000Y-56237500D02*
X38100000Y-55762500D01*
G75*
G02*
X38337500Y-55525000I237500J0D01*
G01*
X38837500Y-55525000D01*
G75*
G02*
X39075000Y-55762500I0J-237500D01*
G01*
X39075000Y-56237500D01*
G75*
G02*
X38837500Y-56475000I-237500J0D01*
G01*
X38337500Y-56475000D01*
G75*
G02*
X38100000Y-56237500I0J237500D01*
G01*
G37*
%TD.AperFunction*%
%TO.P,R12,2*%
%TO.N,GND*%
%TA.AperFunction,SMDPad,CuDef*%
G36*
G01*
X39925000Y-56237500D02*
X39925000Y-55762500D01*
G75*
G02*
X40162500Y-55525000I237500J0D01*
G01*
X40662500Y-55525000D01*
G75*
G02*
X40900000Y-55762500I0J-237500D01*
G01*
X40900000Y-56237500D01*
G75*
G02*
X40662500Y-56475000I-237500J0D01*
G01*
X40162500Y-56475000D01*
G75*
G02*
X39925000Y-56237500I0J237500D01*
G01*
G37*
%TD.AperFunction*%
%TD*%
%TO.P,R13,1*%
%TO.N,/LDO2_EN*%
%TA.AperFunction,SMDPad,CuDef*%
G36*
G01*
X27237500Y-48400000D02*
X26762500Y-48400000D01*
G75*
G02*
X26525000Y-48162500I0J237500D01*
G01*
X26525000Y-47662500D01*
G75*
G02*
X26762500Y-47425000I237500J0D01*
G01*
X27237500Y-47425000D01*
G75*
G02*
X27475000Y-47662500I0J-237500D01*
G01*
X27475000Y-48162500D01*
G75*
G02*
X27237500Y-48400000I-237500J0D01*
G01*
G37*
%TD.AperFunction*%
%TO.P,R13,2*%
%TO.N,Net-(C8-Pad1)*%
%TA.AperFunction,SMDPad,CuDef*%
G36*
G01*
X27237500Y-46575000D02*
X26762500Y-46575000D01*
G75*
G02*
X26525000Y-46337500I0J237500D01*
G01*
X26525000Y-45837500D01*
G75*
G02*
X26762500Y-45600000I237500J0D01*
G01*
X27237500Y-45600000D01*
G75*
G02*
X27475000Y-45837500I0J-237500D01*
G01*
X27475000Y-46337500D01*
G75*
G02*
X27237500Y-46575000I-237500J0D01*
G01*
G37*
%TD.AperFunction*%
%TD*%
%TO.P,R14,2*%
%TO.N,Net-(R14-Pad2)*%
%TA.AperFunction,SMDPad,CuDef*%
G36*
G01*
X32762500Y-47425000D02*
X33237500Y-47425000D01*
G75*
G02*
X33475000Y-47662500I0J-237500D01*
G01*
X33475000Y-48162500D01*
G75*
G02*
X33237500Y-48400000I-237500J0D01*
G01*
X32762500Y-48400000D01*
G75*
G02*
X32525000Y-48162500I0J237500D01*
G01*
X32525000Y-47662500D01*
G75*
G02*
X32762500Y-47425000I237500J0D01*
G01*
G37*
%TD.AperFunction*%
%TO.P,R14,1*%
%TO.N,Net-(C8-Pad1)*%
%TA.AperFunction,SMDPad,CuDef*%
G36*
G01*
X32762500Y-45600000D02*
X33237500Y-45600000D01*
G75*
G02*
X33475000Y-45837500I0J-237500D01*
G01*
X33475000Y-46337500D01*
G75*
G02*
X33237500Y-46575000I-237500J0D01*
G01*
X32762500Y-46575000D01*
G75*
G02*
X32525000Y-46337500I0J237500D01*
G01*
X32525000Y-45837500D01*
G75*
G02*
X32762500Y-45600000I237500J0D01*
G01*
G37*
%TD.AperFunction*%
%TD*%
%TO.P,R15,1*%
%TO.N,Net-(R14-Pad2)*%
%TA.AperFunction,SMDPad,CuDef*%
G36*
G01*
X36237500Y-48400000D02*
X35762500Y-48400000D01*
G75*
G02*
X35525000Y-48162500I0J237500D01*
G01*
X35525000Y-47662500D01*
G75*
G02*
X35762500Y-47425000I237500J0D01*
G01*
X36237500Y-47425000D01*
G75*
G02*
X36475000Y-47662500I0J-237500D01*
G01*
X36475000Y-48162500D01*
G75*
G02*
X36237500Y-48400000I-237500J0D01*
G01*
G37*
%TD.AperFunction*%
%TO.P,R15,2*%
%TO.N,Net-(R15-Pad2)*%
%TA.AperFunction,SMDPad,CuDef*%
G36*
G01*
X36237500Y-46575000D02*
X35762500Y-46575000D01*
G75*
G02*
X35525000Y-46337500I0J237500D01*
G01*
X35525000Y-45837500D01*
G75*
G02*
X35762500Y-45600000I237500J0D01*
G01*
X36237500Y-45600000D01*
G75*
G02*
X36475000Y-45837500I0J-237500D01*
G01*
X36475000Y-46337500D01*
G75*
G02*
X36237500Y-46575000I-237500J0D01*
G01*
G37*
%TD.AperFunction*%
%TD*%
%TO.P,R16,2*%
%TO.N,GND*%
%TA.AperFunction,SMDPad,CuDef*%
G36*
G01*
X38762500Y-47425000D02*
X39237500Y-47425000D01*
G75*
G02*
X39475000Y-47662500I0J-237500D01*
G01*
X39475000Y-48162500D01*
G75*
G02*
X39237500Y-48400000I-237500J0D01*
G01*
X38762500Y-48400000D01*
G75*
G02*
X38525000Y-48162500I0J237500D01*
G01*
X38525000Y-47662500D01*
G75*
G02*
X38762500Y-47425000I237500J0D01*
G01*
G37*
%TD.AperFunction*%
%TO.P,R16,1*%
%TO.N,Net-(R15-Pad2)*%
%TA.AperFunction,SMDPad,CuDef*%
G36*
G01*
X38762500Y-45600000D02*
X39237500Y-45600000D01*
G75*
G02*
X39475000Y-45837500I0J-237500D01*
G01*
X39475000Y-46337500D01*
G75*
G02*
X39237500Y-46575000I-237500J0D01*
G01*
X38762500Y-46575000D01*
G75*
G02*
X38525000Y-46337500I0J237500D01*
G01*
X38525000Y-45837500D01*
G75*
G02*
X38762500Y-45600000I237500J0D01*
G01*
G37*
%TD.AperFunction*%
%TD*%
%TO.P,R17,1*%
%TO.N,/PIO*%
%TA.AperFunction,SMDPad,CuDef*%
G36*
G01*
X32500000Y-17362500D02*
X32500000Y-17837500D01*
G75*
G02*
X32262500Y-18075000I-237500J0D01*
G01*
X31762500Y-18075000D01*
G75*
G02*
X31525000Y-17837500I0J237500D01*
G01*
X31525000Y-17362500D01*
G75*
G02*
X31762500Y-17125000I237500J0D01*
G01*
X32262500Y-17125000D01*
G75*
G02*
X32500000Y-17362500I0J-237500D01*
G01*
G37*
%TD.AperFunction*%
%TO.P,R17,2*%
%TO.N,Net-(Q2-Pad2)*%
%TA.AperFunction,SMDPad,CuDef*%
G36*
G01*
X30675000Y-17362500D02*
X30675000Y-17837500D01*
G75*
G02*
X30437500Y-18075000I-237500J0D01*
G01*
X29937500Y-18075000D01*
G75*
G02*
X29700000Y-17837500I0J237500D01*
G01*
X29700000Y-17362500D01*
G75*
G02*
X29937500Y-17125000I237500J0D01*
G01*
X30437500Y-17125000D01*
G75*
G02*
X30675000Y-17362500I0J-237500D01*
G01*
G37*
%TD.AperFunction*%
%TD*%
%TO.P,R18,1*%
%TO.N,/~BATT_CONN*%
%TA.AperFunction,SMDPad,CuDef*%
G36*
G01*
X22062500Y-17100000D02*
X22537500Y-17100000D01*
G75*
G02*
X22775000Y-17337500I0J-237500D01*
G01*
X22775000Y-17837500D01*
G75*
G02*
X22537500Y-18075000I-237500J0D01*
G01*
X22062500Y-18075000D01*
G75*
G02*
X21825000Y-17837500I0J237500D01*
G01*
X21825000Y-17337500D01*
G75*
G02*
X22062500Y-17100000I237500J0D01*
G01*
G37*
%TD.AperFunction*%
%TO.P,R18,2*%
%TO.N,+BATT*%
%TA.AperFunction,SMDPad,CuDef*%
G36*
G01*
X22062500Y-18925000D02*
X22537500Y-18925000D01*
G75*
G02*
X22775000Y-19162500I0J-237500D01*
G01*
X22775000Y-19662500D01*
G75*
G02*
X22537500Y-19900000I-237500J0D01*
G01*
X22062500Y-19900000D01*
G75*
G02*
X21825000Y-19662500I0J237500D01*
G01*
X21825000Y-19162500D01*
G75*
G02*
X22062500Y-18925000I237500J0D01*
G01*
G37*
%TD.AperFunction*%
%TD*%
D17*
%TO.P,U1,5*%
%TO.N,Net-(U1-Pad5)*%
X16900000Y-44950000D03*
%TO.P,U1,6*%
%TO.N,Net-(U1-Pad6)*%
X15950000Y-44950000D03*
%TO.P,U1,4*%
%TO.N,Net-(U1-Pad4)*%
X17850000Y-44950000D03*
%TO.P,U1,3*%
%TO.N,/I_SENSE_P*%
X17850000Y-47650000D03*
%TO.P,U1,2*%
%TO.N,Net-(U1-Pad2)*%
X16900000Y-47650000D03*
%TO.P,U1,1*%
%TO.N,-BATT*%
X15950000Y-47650000D03*
%TD*%
%TO.P,U2,1*%
%TO.N,Net-(U1-Pad6)*%
X15950000Y-41050000D03*
%TO.P,U2,2*%
%TO.N,Net-(R2-Pad1)*%
X16900000Y-41050000D03*
%TO.P,U2,3*%
%TO.N,Net-(U1-Pad4)*%
X17850000Y-41050000D03*
%TO.P,U2,4*%
%TO.N,Net-(U2-Pad4)*%
X17850000Y-38350000D03*
%TO.P,U2,6*%
%TO.N,-BATT*%
X15950000Y-38350000D03*
%TO.P,U2,5*%
%TO.N,Net-(R3-Pad2)*%
X16900000Y-38350000D03*
%TD*%
%TO.P,U3,1*%
%TO.N,Net-(R9-Pad2)*%
%TA.AperFunction,SMDPad,CuDef*%
G36*
G01*
X30025000Y-44300000D02*
X29825000Y-44300000D01*
G75*
G02*
X29725000Y-44200000I0J100000D01*
G01*
X29725000Y-42925000D01*
G75*
G02*
X29825000Y-42825000I100000J0D01*
G01*
X30025000Y-42825000D01*
G75*
G02*
X30125000Y-42925000I0J-100000D01*
G01*
X30125000Y-44200000D01*
G75*
G02*
X30025000Y-44300000I-100000J0D01*
G01*
G37*
%TD.AperFunction*%
%TO.P,U3,2*%
%TO.N,/I_SENSE_P*%
%TA.AperFunction,SMDPad,CuDef*%
G36*
G01*
X30675000Y-44300000D02*
X30475000Y-44300000D01*
G75*
G02*
X30375000Y-44200000I0J100000D01*
G01*
X30375000Y-42925000D01*
G75*
G02*
X30475000Y-42825000I100000J0D01*
G01*
X30675000Y-42825000D01*
G75*
G02*
X30775000Y-42925000I0J-100000D01*
G01*
X30775000Y-44200000D01*
G75*
G02*
X30675000Y-44300000I-100000J0D01*
G01*
G37*
%TD.AperFunction*%
%TO.P,U3,3*%
%TO.N,/PIO*%
%TA.AperFunction,SMDPad,CuDef*%
G36*
G01*
X31325000Y-44300000D02*
X31125000Y-44300000D01*
G75*
G02*
X31025000Y-44200000I0J100000D01*
G01*
X31025000Y-42925000D01*
G75*
G02*
X31125000Y-42825000I100000J0D01*
G01*
X31325000Y-42825000D01*
G75*
G02*
X31425000Y-42925000I0J-100000D01*
G01*
X31425000Y-44200000D01*
G75*
G02*
X31325000Y-44300000I-100000J0D01*
G01*
G37*
%TD.AperFunction*%
%TO.P,U3,4*%
%TO.N,Net-(R8-Pad2)*%
%TA.AperFunction,SMDPad,CuDef*%
G36*
G01*
X31975000Y-44300000D02*
X31775000Y-44300000D01*
G75*
G02*
X31675000Y-44200000I0J100000D01*
G01*
X31675000Y-42925000D01*
G75*
G02*
X31775000Y-42825000I100000J0D01*
G01*
X31975000Y-42825000D01*
G75*
G02*
X32075000Y-42925000I0J-100000D01*
G01*
X32075000Y-44200000D01*
G75*
G02*
X31975000Y-44300000I-100000J0D01*
G01*
G37*
%TD.AperFunction*%
%TO.P,U3,5*%
%TO.N,Net-(C2-Pad1)*%
%TA.AperFunction,SMDPad,CuDef*%
G36*
G01*
X31975000Y-38575000D02*
X31775000Y-38575000D01*
G75*
G02*
X31675000Y-38475000I0J100000D01*
G01*
X31675000Y-37200000D01*
G75*
G02*
X31775000Y-37100000I100000J0D01*
G01*
X31975000Y-37100000D01*
G75*
G02*
X32075000Y-37200000I0J-100000D01*
G01*
X32075000Y-38475000D01*
G75*
G02*
X31975000Y-38575000I-100000J0D01*
G01*
G37*
%TD.AperFunction*%
%TO.P,U3,6*%
%TO.N,Net-(C2-Pad2)*%
%TA.AperFunction,SMDPad,CuDef*%
G36*
G01*
X31325000Y-38575000D02*
X31125000Y-38575000D01*
G75*
G02*
X31025000Y-38475000I0J100000D01*
G01*
X31025000Y-37200000D01*
G75*
G02*
X31125000Y-37100000I100000J0D01*
G01*
X31325000Y-37100000D01*
G75*
G02*
X31425000Y-37200000I0J-100000D01*
G01*
X31425000Y-38475000D01*
G75*
G02*
X31325000Y-38575000I-100000J0D01*
G01*
G37*
%TD.AperFunction*%
%TO.P,U3,7*%
%TO.N,GND*%
%TA.AperFunction,SMDPad,CuDef*%
G36*
G01*
X30675000Y-38575000D02*
X30475000Y-38575000D01*
G75*
G02*
X30375000Y-38475000I0J100000D01*
G01*
X30375000Y-37200000D01*
G75*
G02*
X30475000Y-37100000I100000J0D01*
G01*
X30675000Y-37100000D01*
G75*
G02*
X30775000Y-37200000I0J-100000D01*
G01*
X30775000Y-38475000D01*
G75*
G02*
X30675000Y-38575000I-100000J0D01*
G01*
G37*
%TD.AperFunction*%
%TO.P,U3,8*%
%TO.N,Net-(D1-Pad1)*%
%TA.AperFunction,SMDPad,CuDef*%
G36*
G01*
X30025000Y-38575000D02*
X29825000Y-38575000D01*
G75*
G02*
X29725000Y-38475000I0J100000D01*
G01*
X29725000Y-37200000D01*
G75*
G02*
X29825000Y-37100000I100000J0D01*
G01*
X30025000Y-37100000D01*
G75*
G02*
X30125000Y-37200000I0J-100000D01*
G01*
X30125000Y-38475000D01*
G75*
G02*
X30025000Y-38575000I-100000J0D01*
G01*
G37*
%TD.AperFunction*%
%TD*%
D18*
%TO.P,U4,EP*%
%TO.N,N/C*%
X30400000Y-52400000D03*
D19*
%TO.P,U4,11*%
%TO.N,Net-(U4-Pad11)*%
X29140000Y-51140000D03*
%TO.P,U4,6*%
%TO.N,/LDO2_EN*%
X31660000Y-51140000D03*
%TO.P,U4,1*%
%TO.N,Net-(R10-Pad2)*%
X31660000Y-53660000D03*
%TO.P,U4,16*%
%TO.N,Net-(L1-Pad2)*%
X29140000Y-53660000D03*
D20*
%TO.P,U4,5*%
%TO.N,GND*%
X31800000Y-51650000D03*
%TO.P,U4,4*%
X31800000Y-52150000D03*
%TO.P,U4,3*%
%TO.N,Net-(C6-Pad1)*%
X31800000Y-52650000D03*
%TO.P,U4,2*%
%TO.N,Net-(R11-Pad2)*%
X31800000Y-53150000D03*
%TO.P,U4,12*%
%TO.N,+3V3*%
X29000000Y-51650000D03*
%TO.P,U4,13*%
%TO.N,Net-(C4-Pad1)*%
X29000000Y-52150000D03*
%TO.P,U4,15*%
%TO.N,/LDO2_EN*%
X29000000Y-53150000D03*
%TO.P,U4,14*%
%TO.N,+BATT*%
X29000000Y-52650000D03*
D21*
%TO.P,U4,17*%
%TO.N,Net-(U4-Pad17)*%
X29650000Y-53800000D03*
%TO.P,U4,18*%
%TO.N,GND*%
X30150000Y-53800000D03*
%TO.P,U4,19*%
X30650000Y-53800000D03*
%TO.P,U4,20*%
X31150000Y-53800000D03*
%TO.P,U4,10*%
%TO.N,Net-(C8-Pad1)*%
X29650000Y-51000000D03*
%TO.P,U4,9*%
%TO.N,Net-(R14-Pad2)*%
X30150000Y-51000000D03*
%TO.P,U4,8*%
%TO.N,/~BATT_CONN*%
X30650000Y-51000000D03*
%TO.P,U4,7*%
%TO.N,/~BATT_CHG*%
X31150000Y-51000000D03*
%TD*%
%TO.P,C12,1*%
%TO.N,/BATT_OUT*%
%TA.AperFunction,SMDPad,CuDef*%
G36*
G01*
X32600000Y-24862500D02*
X32600000Y-25337500D01*
G75*
G02*
X32362500Y-25575000I-237500J0D01*
G01*
X31762500Y-25575000D01*
G75*
G02*
X31525000Y-25337500I0J237500D01*
G01*
X31525000Y-24862500D01*
G75*
G02*
X31762500Y-24625000I237500J0D01*
G01*
X32362500Y-24625000D01*
G75*
G02*
X32600000Y-24862500I0J-237500D01*
G01*
G37*
%TD.AperFunction*%
%TO.P,C12,2*%
%TO.N,GND*%
%TA.AperFunction,SMDPad,CuDef*%
G36*
G01*
X30875000Y-24862500D02*
X30875000Y-25337500D01*
G75*
G02*
X30637500Y-25575000I-237500J0D01*
G01*
X30037500Y-25575000D01*
G75*
G02*
X29800000Y-25337500I0J237500D01*
G01*
X29800000Y-24862500D01*
G75*
G02*
X30037500Y-24625000I237500J0D01*
G01*
X30637500Y-24625000D01*
G75*
G02*
X30875000Y-24862500I0J-237500D01*
G01*
G37*
%TD.AperFunction*%
%TD*%
%TO.P,L1,1*%
%TO.N,Net-(C4-Pad1)*%
%TA.AperFunction,SMDPad,CuDef*%
G36*
G01*
X30250001Y-58500000D02*
X29349999Y-58500000D01*
G75*
G02*
X29100000Y-58250001I0J249999D01*
G01*
X29100000Y-57599999D01*
G75*
G02*
X29349999Y-57350000I249999J0D01*
G01*
X30250001Y-57350000D01*
G75*
G02*
X30500000Y-57599999I0J-249999D01*
G01*
X30500000Y-58250001D01*
G75*
G02*
X30250001Y-58500000I-249999J0D01*
G01*
G37*
%TD.AperFunction*%
%TO.P,L1,2*%
%TO.N,Net-(L1-Pad2)*%
%TA.AperFunction,SMDPad,CuDef*%
G36*
G01*
X30250001Y-56450000D02*
X29349999Y-56450000D01*
G75*
G02*
X29100000Y-56200001I0J249999D01*
G01*
X29100000Y-55549999D01*
G75*
G02*
X29349999Y-55300000I249999J0D01*
G01*
X30250001Y-55300000D01*
G75*
G02*
X30500000Y-55549999I0J-249999D01*
G01*
X30500000Y-56200001D01*
G75*
G02*
X30250001Y-56450000I-249999J0D01*
G01*
G37*
%TD.AperFunction*%
%TD*%
D16*
%TO.P,Q4,1*%
%TO.N,-BATT*%
X20850000Y-23800000D03*
%TO.P,Q4,2*%
%TO.N,+BATT*%
X18950000Y-23800000D03*
%TO.P,Q4,3*%
%TO.N,Net-(J1-Pad2)*%
X19900000Y-25800000D03*
%TD*%
D12*
%TO.P,D4,1*%
%TO.N,+BATT*%
X26650000Y-25900000D03*
%TO.P,D4,2*%
%TO.N,-BATT*%
X24150000Y-25900000D03*
%TD*%
D22*
%TO.N,GND*%
X30000000Y-46100000D03*
X21200000Y-48300000D03*
X31500000Y-56800000D03*
X19500000Y-43800000D03*
X38400000Y-53500000D03*
X37500000Y-47700000D03*
X17600000Y-28800000D03*
X16000000Y-28800000D03*
X16000000Y-30200000D03*
X40500000Y-28900000D03*
X40500000Y-30200000D03*
X38300000Y-44300000D03*
X41600000Y-51400000D03*
X41600000Y-53300000D03*
X28200000Y-56700000D03*
X19300000Y-48300000D03*
X35300000Y-20400000D03*
X35300000Y-16600000D03*
X19900000Y-39500000D03*
X28600000Y-25100000D03*
%TO.N,+3V3*%
X27800000Y-50000000D03*
X38300000Y-51400000D03*
%TO.N,+BATT*%
X24400000Y-43912500D03*
X22712500Y-38100000D03*
%TO.N,/LDO2_EN*%
X26762500Y-55800000D03*
X27000000Y-47912500D03*
X33100000Y-51100000D03*
%TO.N,/PIO*%
X39000000Y-38000000D03*
X34200000Y-23000000D03*
%TO.N,/~BATT_CONN*%
X37700000Y-49300000D03*
X40700000Y-35400000D03*
%TO.N,Net-(C4-Pad1)*%
X25800000Y-50500000D03*
X29800000Y-57925000D03*
%TD*%
D23*
%TO.N,GND*%
X30150000Y-53800000D02*
X31150000Y-53800000D01*
X35887500Y-51650000D02*
X36000000Y-51537500D01*
X31500000Y-55700000D02*
X31500000Y-56800000D01*
X30650000Y-54850000D02*
X31500000Y-55700000D01*
X30650000Y-53800000D02*
X30650000Y-54850000D01*
X31150000Y-53800000D02*
X31150000Y-54550000D01*
X31150000Y-54550000D02*
X30900000Y-54800000D01*
X30150000Y-54350000D02*
X30650000Y-54850000D01*
X30150000Y-53800000D02*
X30150000Y-54350000D01*
X31800000Y-52150000D02*
X33550000Y-52150000D01*
X34162500Y-51537500D02*
X36000000Y-51537500D01*
X33550000Y-52150000D02*
X34162500Y-51537500D01*
X31800000Y-51650000D02*
X31800000Y-52150000D01*
X19900000Y-39500000D02*
X20200000Y-39500000D01*
X30575000Y-36675000D02*
X30575000Y-37837500D01*
X29112500Y-35212500D02*
X30575000Y-36675000D01*
X28000000Y-35212500D02*
X29112500Y-35212500D01*
%TO.N,+3V3*%
X28935001Y-51635001D02*
X28635001Y-51635001D01*
X28950000Y-51650000D02*
X28935001Y-51635001D01*
X29000000Y-51650000D02*
X28950000Y-51650000D01*
X27800000Y-50800000D02*
X27800000Y-50000000D01*
X28635001Y-51635001D02*
X27800000Y-50800000D01*
X39862500Y-51400000D02*
X40000000Y-51537500D01*
X38300000Y-51400000D02*
X39862500Y-51400000D01*
X40000000Y-51537500D02*
X40000000Y-50400000D01*
X40000000Y-50400000D02*
X41000000Y-49400000D01*
X41000000Y-49400000D02*
X41000000Y-37400000D01*
X41000000Y-37400000D02*
X38300000Y-34700000D01*
X38300000Y-34700000D02*
X38300000Y-29300000D01*
X37000000Y-28000000D02*
X36000000Y-28000000D01*
X38300000Y-29300000D02*
X37000000Y-28000000D01*
X27300000Y-29250000D02*
X27550000Y-29250000D01*
X28800000Y-28000000D02*
X30187500Y-28000000D01*
X27550000Y-29250000D02*
X28800000Y-28000000D01*
X36000000Y-28000000D02*
X35100000Y-28000000D01*
X35100000Y-28000000D02*
X33800000Y-26700000D01*
X33800000Y-26700000D02*
X30600000Y-26700000D01*
X30187500Y-27112500D02*
X30187500Y-28000000D01*
X30600000Y-26700000D02*
X30187500Y-27112500D01*
%TO.N,Net-(R9-Pad2)*%
X29925000Y-42125000D02*
X29925000Y-43562500D01*
X24400000Y-42087500D02*
X24400000Y-41900000D01*
X24400000Y-41900000D02*
X25400000Y-40900000D01*
X28700000Y-40900000D02*
X29925000Y-42125000D01*
X25400000Y-40900000D02*
X28700000Y-40900000D01*
%TO.N,+BATT*%
X24400000Y-43912500D02*
X24400000Y-43912500D01*
X22712500Y-38100000D02*
X22712500Y-38100000D01*
X24962500Y-19412500D02*
X25100000Y-19550000D01*
X22300000Y-19412500D02*
X24962500Y-19412500D01*
X23700000Y-49300000D02*
X24300000Y-49300000D01*
X23100000Y-49900000D02*
X23700000Y-49300000D01*
X28950000Y-52650000D02*
X28925001Y-52674999D01*
X29000000Y-52650000D02*
X28950000Y-52650000D01*
X23100000Y-49900000D02*
X23200000Y-49900000D01*
X23200000Y-49900000D02*
X25100000Y-51800000D01*
X25100000Y-51800000D02*
X26400000Y-51800000D01*
X26662500Y-52062500D02*
X26662500Y-52900000D01*
X26400000Y-51800000D02*
X26662500Y-52062500D01*
X26912500Y-52650000D02*
X26662500Y-52900000D01*
X29000000Y-52650000D02*
X26912500Y-52650000D01*
X23100000Y-47400000D02*
X23100000Y-49900000D01*
X24400000Y-46100000D02*
X23100000Y-47400000D01*
X24400000Y-43912500D02*
X24400000Y-46100000D01*
X23900000Y-34800000D02*
X22712500Y-35987500D01*
X22712500Y-35987500D02*
X22712500Y-38100000D01*
X23950000Y-22500000D02*
X24150000Y-22700000D01*
X20200000Y-22500000D02*
X23950000Y-22500000D01*
X18950000Y-23750000D02*
X20200000Y-22500000D01*
X18950000Y-23800000D02*
X18950000Y-23750000D01*
X24150000Y-21950000D02*
X24150000Y-22700000D01*
X25100000Y-21000000D02*
X24150000Y-21950000D01*
X25100000Y-19550000D02*
X25100000Y-21000000D01*
X24150000Y-22700000D02*
X24150000Y-23850000D01*
X24150000Y-23850000D02*
X24700000Y-24400000D01*
X24700000Y-24400000D02*
X25400000Y-24400000D01*
X26650000Y-25650000D02*
X26650000Y-25900000D01*
X25400000Y-24400000D02*
X26650000Y-25650000D01*
X23900000Y-34800000D02*
X23900000Y-29100000D01*
X26650000Y-26350000D02*
X26650000Y-25900000D01*
X23900000Y-29100000D02*
X26650000Y-26350000D01*
X24400000Y-43912500D02*
X27100000Y-43912500D01*
X22712500Y-38100000D02*
X22712500Y-38087500D01*
X16062500Y-23800000D02*
X16000000Y-23737500D01*
X18950000Y-23800000D02*
X16062500Y-23800000D01*
%TO.N,/LDO2_EN*%
X26062500Y-58875000D02*
X26037500Y-58900000D01*
X26037500Y-58900000D02*
X26037500Y-62200000D01*
X26812500Y-55850000D02*
X26762500Y-55800000D01*
X26762500Y-55800000D02*
X26762500Y-55800000D01*
X24312500Y-47912500D02*
X24300000Y-47900000D01*
X27000000Y-47912500D02*
X24312500Y-47912500D01*
X33060000Y-51140000D02*
X33100000Y-51100000D01*
X31660000Y-51140000D02*
X33060000Y-51140000D01*
X26762500Y-55187500D02*
X26762500Y-55800000D01*
X28800000Y-53150000D02*
X26762500Y-55187500D01*
X29000000Y-53150000D02*
X28800000Y-53150000D01*
X26037500Y-58900000D02*
X26037500Y-58162500D01*
X26762500Y-57437500D02*
X26762500Y-55800000D01*
X26037500Y-58162500D02*
X26762500Y-57437500D01*
%TO.N,Net-(L1-Pad2)*%
X29800000Y-55875000D02*
X29800000Y-55300000D01*
X29140000Y-54640000D02*
X29140000Y-53660000D01*
X29800000Y-55300000D02*
X29140000Y-54640000D01*
%TO.N,Net-(Q1-Pad3)*%
X25200000Y-33387500D02*
X25312500Y-33387500D01*
X25300000Y-33287500D02*
X25200000Y-33387500D01*
X25300000Y-30200000D02*
X25300000Y-33287500D01*
%TO.N,Net-(C2-Pad1)*%
X31875000Y-35287500D02*
X32362500Y-34800000D01*
X31875000Y-37837500D02*
X31875000Y-35287500D01*
%TO.N,/I_SENSE_P*%
X21000000Y-45350000D02*
X21200000Y-45550000D01*
X21200000Y-45550000D02*
X21200000Y-45100000D01*
X20350000Y-45150000D02*
X21200000Y-45150000D01*
X17850000Y-47650000D02*
X20350000Y-45150000D01*
X30575000Y-41575000D02*
X30575000Y-43562500D01*
X29100000Y-40100000D02*
X30575000Y-41575000D01*
X22800000Y-41500000D02*
X24200000Y-40100000D01*
X24200000Y-40100000D02*
X29100000Y-40100000D01*
X22800000Y-43550000D02*
X22800000Y-41500000D01*
X21200000Y-45150000D02*
X22800000Y-43550000D01*
%TO.N,/BATT_OUT*%
X31100000Y-22400000D02*
X31700000Y-22400000D01*
X35300000Y-26000000D02*
X36000000Y-26000000D01*
X26650000Y-22700000D02*
X26700000Y-22700000D01*
X27000000Y-22400000D02*
X31100000Y-22400000D01*
X26700000Y-22700000D02*
X27000000Y-22400000D01*
X34300000Y-25100000D02*
X34350000Y-25050000D01*
X32062500Y-25100000D02*
X34300000Y-25100000D01*
X34350000Y-25050000D02*
X35300000Y-26000000D01*
X31700000Y-22400000D02*
X34350000Y-25050000D01*
%TO.N,Net-(D1-Pad1)*%
X29987500Y-31400000D02*
X28000000Y-33387500D01*
X30250000Y-31400000D02*
X29987500Y-31400000D01*
X28000000Y-33387500D02*
X27412500Y-33387500D01*
X25587500Y-35212500D02*
X25200000Y-35212500D01*
X27412500Y-33387500D02*
X25587500Y-35212500D01*
X29862500Y-37900000D02*
X29925000Y-37837500D01*
X27312500Y-37900000D02*
X29862500Y-37900000D01*
X27312500Y-37900000D02*
X27312500Y-37212500D01*
X25312500Y-35212500D02*
X25200000Y-35212500D01*
X27312500Y-37212500D02*
X25312500Y-35212500D01*
%TO.N,/SDA_DQ*%
X25487500Y-38587500D02*
X25487500Y-37900000D01*
X26000000Y-39100000D02*
X25487500Y-38587500D01*
X29100000Y-39100000D02*
X26000000Y-39100000D01*
X30000000Y-40000000D02*
X29100000Y-39100000D01*
X36000000Y-40000000D02*
X30000000Y-40000000D01*
%TO.N,/~BATT_CHG*%
X40400000Y-49100000D02*
X40400000Y-37700000D01*
X39300000Y-50200000D02*
X40400000Y-49100000D01*
X31674998Y-50200000D02*
X39300000Y-50200000D01*
X31150000Y-50724998D02*
X31674998Y-50200000D01*
X31150000Y-51000000D02*
X31150000Y-50724998D01*
X40400000Y-37700000D02*
X37700000Y-35000000D01*
X37700000Y-29911810D02*
X36788190Y-29000000D01*
X37700000Y-35000000D02*
X37700000Y-29911810D01*
X36788190Y-29000000D02*
X34200000Y-29000000D01*
X33200000Y-28000000D02*
X32012500Y-28000000D01*
X34200000Y-29000000D02*
X33200000Y-28000000D01*
X32012500Y-28000000D02*
X32012500Y-28287500D01*
X32012500Y-28287500D02*
X31100000Y-29200000D01*
X31100000Y-29200000D02*
X29200000Y-29200000D01*
X27300000Y-31100000D02*
X27300000Y-31150000D01*
X29200000Y-29200000D02*
X27300000Y-31100000D01*
%TO.N,/PIO*%
X31225000Y-43562500D02*
X31225000Y-42175000D01*
X31225000Y-42175000D02*
X31600000Y-41800000D01*
X31600000Y-41800000D02*
X32400000Y-41800000D01*
X32400000Y-41800000D02*
X34300000Y-43700000D01*
X34300000Y-43700000D02*
X37400000Y-43700000D01*
X39000000Y-42100000D02*
X39000000Y-38000000D01*
X37400000Y-43700000D02*
X39000000Y-42100000D01*
X32050000Y-20850000D02*
X32050000Y-20400000D01*
X34200000Y-23000000D02*
X32050000Y-20850000D01*
X32012500Y-20362500D02*
X32050000Y-20400000D01*
X32012500Y-17600000D02*
X32012500Y-20362500D01*
%TO.N,Net-(Q2-Pad2)*%
X30187500Y-20362500D02*
X30150000Y-20400000D01*
X30187500Y-17600000D02*
X30187500Y-20362500D01*
X27100000Y-18600000D02*
X27300000Y-18600000D01*
X28300000Y-17600000D02*
X30187500Y-17600000D01*
X27300000Y-18600000D02*
X28300000Y-17600000D01*
%TO.N,/~BATT_CONN*%
X30650000Y-50400000D02*
X31750000Y-49300000D01*
X30650000Y-51000000D02*
X30650000Y-50400000D01*
X31750000Y-49300000D02*
X37700000Y-49300000D01*
X25037500Y-17587500D02*
X25100000Y-17650000D01*
X22300000Y-17587500D02*
X25037500Y-17587500D01*
X26250000Y-16500000D02*
X25100000Y-17650000D01*
X33200000Y-16500000D02*
X26250000Y-16500000D01*
X34100000Y-21000000D02*
X34100000Y-17400000D01*
X34100000Y-17400000D02*
X33200000Y-16500000D01*
X39000000Y-25900000D02*
X34100000Y-21000000D01*
X39000000Y-33700000D02*
X39000000Y-25900000D01*
X40700000Y-35400000D02*
X39000000Y-33700000D01*
%TO.N,Net-(R8-Pad2)*%
X27487500Y-42087500D02*
X27100000Y-42087500D01*
X28500000Y-44200000D02*
X28500000Y-43100000D01*
X28500000Y-43100000D02*
X27487500Y-42087500D01*
X29200000Y-44900000D02*
X28500000Y-44200000D01*
X31600000Y-44900000D02*
X29200000Y-44900000D01*
X31875000Y-44625000D02*
X31600000Y-44900000D01*
X31875000Y-43562500D02*
X31875000Y-44625000D01*
%TO.N,Net-(R11-Pad2)*%
X32150000Y-53150000D02*
X31800000Y-53150000D01*
X34987500Y-55987500D02*
X32150000Y-53150000D01*
X38175000Y-55987500D02*
X38187500Y-56000000D01*
X34987500Y-55987500D02*
X35800000Y-55987500D01*
X38575000Y-55987500D02*
X38587500Y-56000000D01*
X35800000Y-55987500D02*
X38575000Y-55987500D01*
%TO.N,Net-(C2-Pad2)*%
X31225000Y-35387500D02*
X30637500Y-34800000D01*
X31225000Y-37837500D02*
X31225000Y-35387500D01*
%TO.N,Net-(C4-Pad1)*%
X29900000Y-57825000D02*
X29812500Y-57912500D01*
X33000000Y-57825000D02*
X29900000Y-57825000D01*
X29812500Y-57912500D02*
X29800000Y-57925000D01*
X28850000Y-52150000D02*
X28825001Y-52125001D01*
X29000000Y-52150000D02*
X28850000Y-52150000D01*
X28625001Y-52125001D02*
X28325001Y-52125001D01*
X28650000Y-52150000D02*
X28625001Y-52125001D01*
X29000000Y-52150000D02*
X28650000Y-52150000D01*
X26700000Y-50500000D02*
X25800000Y-50500000D01*
X28325001Y-52125001D02*
X26700000Y-50500000D01*
X29800000Y-57925000D02*
X29800000Y-60637500D01*
X33000000Y-60337500D02*
X32700000Y-60637500D01*
X33000000Y-57825000D02*
X33000000Y-60337500D01*
%TO.N,Net-(C6-Pad1)*%
X36000000Y-53262500D02*
X35662500Y-53262500D01*
X35050000Y-52650000D02*
X31800000Y-52650000D01*
X35662500Y-53262500D02*
X35050000Y-52650000D01*
%TO.N,Net-(C8-Pad1)*%
X27000000Y-46087500D02*
X27887500Y-46087500D01*
X29662500Y-47862500D02*
X30000000Y-47862500D01*
X27887500Y-46087500D02*
X29662500Y-47862500D01*
X29650000Y-48212500D02*
X29650000Y-51000000D01*
X30000000Y-47862500D02*
X29650000Y-48212500D01*
X30000000Y-47862500D02*
X30337500Y-47862500D01*
X32112500Y-46087500D02*
X33000000Y-46087500D01*
X30337500Y-47862500D02*
X32112500Y-46087500D01*
%TO.N,-BATT*%
X15950000Y-38350000D02*
X15000000Y-39300000D01*
X15000000Y-46700000D02*
X15950000Y-47650000D01*
X15000000Y-39300000D02*
X15000000Y-46700000D01*
X21000000Y-33100000D02*
X19400000Y-33100000D01*
X15950000Y-36650000D02*
X15950000Y-38350000D01*
X19400000Y-33100000D02*
X15950000Y-36550000D01*
X21500000Y-23800000D02*
X20850000Y-23800000D01*
X22900000Y-25200000D02*
X21500000Y-23800000D01*
X21700000Y-33100000D02*
X22900000Y-31900000D01*
X21000000Y-33100000D02*
X21700000Y-33100000D01*
X24150000Y-25900000D02*
X22900000Y-25900000D01*
X22900000Y-25900000D02*
X22900000Y-25200000D01*
X22900000Y-31900000D02*
X22900000Y-25900000D01*
%TO.N,Net-(R2-Pad1)*%
X17100000Y-39700000D02*
X16900000Y-39900000D01*
X18400000Y-39700000D02*
X17100000Y-39700000D01*
X19587500Y-40887500D02*
X18400000Y-39700000D01*
X16900000Y-39900000D02*
X16900000Y-41050000D01*
X20900000Y-40887500D02*
X19587500Y-40887500D01*
%TO.N,Net-(R3-Pad2)*%
X19787500Y-37000000D02*
X20887500Y-38100000D01*
X17400000Y-37000000D02*
X19787500Y-37000000D01*
X16900000Y-37500000D02*
X17400000Y-37000000D01*
X16900000Y-38350000D02*
X16900000Y-37500000D01*
%TO.N,Net-(R10-Pad2)*%
X33000000Y-56000000D02*
X33100000Y-56000000D01*
X33100000Y-56000000D02*
X34912500Y-57812500D01*
X31660000Y-54660000D02*
X31660000Y-53660000D01*
X33000000Y-56000000D02*
X31660000Y-54660000D01*
X34912500Y-57812500D02*
X35800000Y-57812500D01*
%TO.N,Net-(R14-Pad2)*%
X30150000Y-50050000D02*
X30150000Y-51000000D01*
X32287500Y-47912500D02*
X30150000Y-50050000D01*
X33000000Y-47912500D02*
X32287500Y-47912500D01*
X33000000Y-47912500D02*
X36000000Y-47912500D01*
%TO.N,Net-(R15-Pad2)*%
X36000000Y-46087500D02*
X39000000Y-46087500D01*
%TO.N,Net-(U1-Pad6)*%
X15950000Y-41050000D02*
X15950000Y-44950000D01*
%TO.N,Net-(U1-Pad4)*%
X17850000Y-41050000D02*
X17850000Y-44950000D01*
%TO.N,Net-(J1-Pad2)*%
X21000000Y-30600000D02*
X21000000Y-28700000D01*
X19900000Y-27600000D02*
X19900000Y-25800000D01*
X21000000Y-28700000D02*
X19900000Y-27600000D01*
%TD*%
D24*
%TO.N,GND*%
X37998048Y-15697006D02*
X37372918Y-15955943D01*
X36810315Y-16331862D01*
X36331862Y-16810315D01*
X35955943Y-17372918D01*
X35697006Y-17998048D01*
X35565000Y-18661682D01*
X35565000Y-19338318D01*
X35697006Y-20001952D01*
X35955943Y-20627082D01*
X36331862Y-21189685D01*
X36810315Y-21668138D01*
X37372918Y-22044057D01*
X37998048Y-22302994D01*
X38661682Y-22435000D01*
X39338318Y-22435000D01*
X40001952Y-22302994D01*
X40627082Y-22044057D01*
X41189685Y-21668138D01*
X41668138Y-21189685D01*
X42044057Y-20627082D01*
X42302994Y-20001952D01*
X42340000Y-19815912D01*
X42340001Y-60184093D01*
X42302994Y-59998048D01*
X42044057Y-59372918D01*
X41668138Y-58810315D01*
X41189685Y-58331862D01*
X40627082Y-57955943D01*
X40001952Y-57697006D01*
X39338318Y-57565000D01*
X38661682Y-57565000D01*
X37998048Y-57697006D01*
X37372918Y-57955943D01*
X36880601Y-58284899D01*
X36896248Y-58233316D01*
X36913072Y-58062500D01*
X36913072Y-57562500D01*
X36896248Y-57391684D01*
X36846423Y-57227433D01*
X36765512Y-57076058D01*
X36656623Y-56943377D01*
X36603768Y-56900000D01*
X36656623Y-56856623D01*
X36746178Y-56747500D01*
X37628822Y-56747500D01*
X37718377Y-56856623D01*
X37851058Y-56965512D01*
X38002433Y-57046423D01*
X38166684Y-57096248D01*
X38337500Y-57113072D01*
X38837500Y-57113072D01*
X39008316Y-57096248D01*
X39172567Y-57046423D01*
X39323942Y-56965512D01*
X39432783Y-56876188D01*
X39473815Y-56926185D01*
X39570506Y-57005537D01*
X39680820Y-57064502D01*
X39800518Y-57100812D01*
X39925000Y-57113072D01*
X40126750Y-57110000D01*
X40285500Y-56951250D01*
X40285500Y-56127000D01*
X40539500Y-56127000D01*
X40539500Y-56951250D01*
X40698250Y-57110000D01*
X40900000Y-57113072D01*
X41024482Y-57100812D01*
X41144180Y-57064502D01*
X41254494Y-57005537D01*
X41351185Y-56926185D01*
X41430537Y-56829494D01*
X41489502Y-56719180D01*
X41525812Y-56599482D01*
X41538072Y-56475000D01*
X41535000Y-56285750D01*
X41376250Y-56127000D01*
X40539500Y-56127000D01*
X40285500Y-56127000D01*
X40265500Y-56127000D01*
X40265500Y-55873000D01*
X40285500Y-55873000D01*
X40285500Y-55048750D01*
X40539500Y-55048750D01*
X40539500Y-55873000D01*
X41376250Y-55873000D01*
X41535000Y-55714250D01*
X41538072Y-55525000D01*
X41525812Y-55400518D01*
X41489502Y-55280820D01*
X41430537Y-55170506D01*
X41351185Y-55073815D01*
X41254494Y-54994463D01*
X41144180Y-54935498D01*
X41024482Y-54899188D01*
X40900000Y-54886928D01*
X40698250Y-54890000D01*
X40539500Y-55048750D01*
X40285500Y-55048750D01*
X40126750Y-54890000D01*
X39925000Y-54886928D01*
X39800518Y-54899188D01*
X39680820Y-54935498D01*
X39570506Y-54994463D01*
X39473815Y-55073815D01*
X39432783Y-55123812D01*
X39323942Y-55034488D01*
X39172567Y-54953577D01*
X39008316Y-54903752D01*
X38837500Y-54886928D01*
X38337500Y-54886928D01*
X38166684Y-54903752D01*
X38002433Y-54953577D01*
X37851058Y-55034488D01*
X37718377Y-55143377D01*
X37649339Y-55227500D01*
X36746178Y-55227500D01*
X36656623Y-55118377D01*
X36523942Y-55009488D01*
X36372567Y-54928577D01*
X36208316Y-54878752D01*
X36037500Y-54861928D01*
X35562500Y-54861928D01*
X35391684Y-54878752D01*
X35227433Y-54928577D01*
X35081422Y-55006621D01*
X33484801Y-53410000D01*
X34735199Y-53410000D01*
X34886928Y-53561730D01*
X34886928Y-53562500D01*
X34903752Y-53733316D01*
X34953577Y-53897567D01*
X35034488Y-54048942D01*
X35143377Y-54181623D01*
X35276058Y-54290512D01*
X35427433Y-54371423D01*
X35591684Y-54421248D01*
X35762500Y-54438072D01*
X36237500Y-54438072D01*
X36408316Y-54421248D01*
X36572567Y-54371423D01*
X36723942Y-54290512D01*
X36856623Y-54181623D01*
X36965512Y-54048942D01*
X37046423Y-53897567D01*
X37076019Y-53800000D01*
X38886928Y-53800000D01*
X38899188Y-53924482D01*
X38935498Y-54044180D01*
X38994463Y-54154494D01*
X39073815Y-54251185D01*
X39170506Y-54330537D01*
X39280820Y-54389502D01*
X39400518Y-54425812D01*
X39525000Y-54438072D01*
X39714250Y-54435000D01*
X39873000Y-54276250D01*
X39873000Y-53389500D01*
X40127000Y-53389500D01*
X40127000Y-54276250D01*
X40285750Y-54435000D01*
X40475000Y-54438072D01*
X40599482Y-54425812D01*
X40719180Y-54389502D01*
X40829494Y-54330537D01*
X40926185Y-54251185D01*
X41005537Y-54154494D01*
X41064502Y-54044180D01*
X41100812Y-53924482D01*
X41113072Y-53800000D01*
X41110000Y-53548250D01*
X40951250Y-53389500D01*
X40127000Y-53389500D01*
X39873000Y-53389500D01*
X39048750Y-53389500D01*
X38890000Y-53548250D01*
X38886928Y-53800000D01*
X37076019Y-53800000D01*
X37096248Y-53733316D01*
X37113072Y-53562500D01*
X37113072Y-52962500D01*
X37096248Y-52791684D01*
X37046423Y-52627433D01*
X36966226Y-52477394D01*
X37005537Y-52429494D01*
X37064502Y-52319180D01*
X37100812Y-52199482D01*
X37113072Y-52075000D01*
X37110000Y-51823250D01*
X36951250Y-51664500D01*
X36127000Y-51664500D01*
X36127000Y-51684500D01*
X35873000Y-51684500D01*
X35873000Y-51664500D01*
X35048750Y-51664500D01*
X34890000Y-51823250D01*
X34889185Y-51890000D01*
X33773711Y-51890000D01*
X33903937Y-51759774D01*
X34017205Y-51590256D01*
X34095226Y-51401898D01*
X34135000Y-51201939D01*
X34135000Y-50998061D01*
X34127429Y-50960000D01*
X34890868Y-50960000D01*
X34886928Y-51000000D01*
X34890000Y-51251750D01*
X35048750Y-51410500D01*
X35873000Y-51410500D01*
X35873000Y-51390500D01*
X36127000Y-51390500D01*
X36127000Y-51410500D01*
X36951250Y-51410500D01*
X37110000Y-51251750D01*
X37113072Y-51000000D01*
X37109132Y-50960000D01*
X37361978Y-50960000D01*
X37304774Y-51098102D01*
X37265000Y-51298061D01*
X37265000Y-51501939D01*
X37304774Y-51701898D01*
X37382795Y-51890256D01*
X37496063Y-52059774D01*
X37640226Y-52203937D01*
X37809744Y-52317205D01*
X37998102Y-52395226D01*
X38198061Y-52435000D01*
X38401939Y-52435000D01*
X38601898Y-52395226D01*
X38790256Y-52317205D01*
X38959774Y-52203937D01*
X38966663Y-52197048D01*
X39033774Y-52322606D01*
X38994463Y-52370506D01*
X38935498Y-52480820D01*
X38899188Y-52600518D01*
X38886928Y-52725000D01*
X38890000Y-52976750D01*
X39048750Y-53135500D01*
X39873000Y-53135500D01*
X39873000Y-53115500D01*
X40127000Y-53115500D01*
X40127000Y-53135500D01*
X40951250Y-53135500D01*
X41110000Y-52976750D01*
X41113072Y-52725000D01*
X41100812Y-52600518D01*
X41064502Y-52480820D01*
X41005537Y-52370506D01*
X40966226Y-52322606D01*
X41046423Y-52172567D01*
X41096248Y-52008316D01*
X41113072Y-51837500D01*
X41113072Y-51237500D01*
X41096248Y-51066684D01*
X41046423Y-50902433D01*
X40965512Y-50751058D01*
X40856623Y-50618377D01*
X40856514Y-50618287D01*
X41511004Y-49963798D01*
X41540001Y-49940001D01*
X41634974Y-49824276D01*
X41705546Y-49692247D01*
X41749003Y-49548986D01*
X41760000Y-49437333D01*
X41760000Y-49437332D01*
X41763677Y-49400000D01*
X41760000Y-49362667D01*
X41760000Y-37437333D01*
X41763677Y-37400000D01*
X41751238Y-37273701D01*
X41749003Y-37251014D01*
X41705546Y-37107753D01*
X41634974Y-36975724D01*
X41540001Y-36859999D01*
X41511003Y-36836201D01*
X41050073Y-36375271D01*
X41190256Y-36317205D01*
X41359774Y-36203937D01*
X41503937Y-36059774D01*
X41617205Y-35890256D01*
X41695226Y-35701898D01*
X41735000Y-35501939D01*
X41735000Y-35298061D01*
X41695226Y-35098102D01*
X41617205Y-34909744D01*
X41503937Y-34740226D01*
X41359774Y-34596063D01*
X41190256Y-34482795D01*
X41001898Y-34404774D01*
X40801939Y-34365000D01*
X40739802Y-34365000D01*
X39760000Y-33385199D01*
X39760000Y-25937322D01*
X39763676Y-25899999D01*
X39760000Y-25862676D01*
X39760000Y-25862667D01*
X39749003Y-25751014D01*
X39705546Y-25607753D01*
X39634974Y-25475724D01*
X39621811Y-25459685D01*
X39563799Y-25388996D01*
X39563795Y-25388992D01*
X39540001Y-25359999D01*
X39511008Y-25336205D01*
X34860000Y-20685199D01*
X34860000Y-17437322D01*
X34863676Y-17399999D01*
X34860000Y-17362676D01*
X34860000Y-17362667D01*
X34849003Y-17251014D01*
X34805546Y-17107753D01*
X34734974Y-16975724D01*
X34640001Y-16859999D01*
X34611003Y-16836201D01*
X33763803Y-15989002D01*
X33740001Y-15959999D01*
X33624276Y-15865026D01*
X33492247Y-15794454D01*
X33348986Y-15750997D01*
X33237333Y-15740000D01*
X33237322Y-15740000D01*
X33200000Y-15736324D01*
X33162678Y-15740000D01*
X26287333Y-15740000D01*
X26250000Y-15736323D01*
X26212667Y-15740000D01*
X26101014Y-15750997D01*
X25957753Y-15794454D01*
X25825724Y-15865026D01*
X25709999Y-15959999D01*
X25686201Y-15988997D01*
X25063271Y-16611928D01*
X24650000Y-16611928D01*
X24525518Y-16624188D01*
X24405820Y-16660498D01*
X24295506Y-16719463D01*
X24198815Y-16798815D01*
X24175274Y-16827500D01*
X23246178Y-16827500D01*
X23156623Y-16718377D01*
X23023942Y-16609488D01*
X22872567Y-16528577D01*
X22708316Y-16478752D01*
X22537500Y-16461928D01*
X22062500Y-16461928D01*
X21891684Y-16478752D01*
X21727433Y-16528577D01*
X21576058Y-16609488D01*
X21443377Y-16718377D01*
X21334488Y-16851058D01*
X21253577Y-17002433D01*
X21203752Y-17166684D01*
X21186928Y-17337500D01*
X21186928Y-17837500D01*
X21203752Y-18008316D01*
X21253577Y-18172567D01*
X21334488Y-18323942D01*
X21443377Y-18456623D01*
X21496232Y-18500000D01*
X21443377Y-18543377D01*
X21334488Y-18676058D01*
X21253577Y-18827433D01*
X21203752Y-18991684D01*
X21186928Y-19162500D01*
X21186928Y-19662500D01*
X21203752Y-19833316D01*
X21253577Y-19997567D01*
X21334488Y-20148942D01*
X21443377Y-20281623D01*
X21576058Y-20390512D01*
X21727433Y-20471423D01*
X21891684Y-20521248D01*
X22062500Y-20538072D01*
X22537500Y-20538072D01*
X22708316Y-20521248D01*
X22872567Y-20471423D01*
X23023942Y-20390512D01*
X23156623Y-20281623D01*
X23246178Y-20172500D01*
X24053921Y-20172500D01*
X24060498Y-20194180D01*
X24119463Y-20304494D01*
X24198815Y-20401185D01*
X24295506Y-20480537D01*
X24340001Y-20504320D01*
X24340001Y-20685197D01*
X23639002Y-21386196D01*
X23609999Y-21409999D01*
X23585787Y-21439502D01*
X23515026Y-21525724D01*
X23482078Y-21587365D01*
X23405820Y-21610498D01*
X23295506Y-21669463D01*
X23209556Y-21740000D01*
X20237323Y-21740000D01*
X20200000Y-21736324D01*
X20162677Y-21740000D01*
X20162667Y-21740000D01*
X20051014Y-21750997D01*
X19907753Y-21794454D01*
X19775723Y-21865026D01*
X19717673Y-21912667D01*
X19659999Y-21959999D01*
X19636201Y-21988997D01*
X18913271Y-22711928D01*
X18550000Y-22711928D01*
X18425518Y-22724188D01*
X18305820Y-22760498D01*
X18195506Y-22819463D01*
X18098815Y-22898815D01*
X18019463Y-22995506D01*
X17995680Y-23040000D01*
X17013052Y-23040000D01*
X16965512Y-22951058D01*
X16856623Y-22818377D01*
X16723942Y-22709488D01*
X16572567Y-22628577D01*
X16408316Y-22578752D01*
X16237500Y-22561928D01*
X15762500Y-22561928D01*
X15591684Y-22578752D01*
X15427433Y-22628577D01*
X15276058Y-22709488D01*
X15143377Y-22818377D01*
X15034488Y-22951058D01*
X14953577Y-23102433D01*
X14903752Y-23266684D01*
X14886928Y-23437500D01*
X14886928Y-24037500D01*
X14903752Y-24208316D01*
X14953577Y-24372567D01*
X15033774Y-24522606D01*
X14994463Y-24570506D01*
X14935498Y-24680820D01*
X14899188Y-24800518D01*
X14886928Y-24925000D01*
X14890000Y-25176750D01*
X15048750Y-25335500D01*
X15873000Y-25335500D01*
X15873000Y-25315500D01*
X16127000Y-25315500D01*
X16127000Y-25335500D01*
X16951250Y-25335500D01*
X17110000Y-25176750D01*
X17113072Y-24925000D01*
X17100812Y-24800518D01*
X17064502Y-24680820D01*
X17005537Y-24570506D01*
X16996915Y-24560000D01*
X17995680Y-24560000D01*
X18019463Y-24604494D01*
X18098815Y-24701185D01*
X18195506Y-24780537D01*
X18305820Y-24839502D01*
X18425518Y-24875812D01*
X18550000Y-24888072D01*
X19061905Y-24888072D01*
X19048815Y-24898815D01*
X18969463Y-24995506D01*
X18910498Y-25105820D01*
X18874188Y-25225518D01*
X18861928Y-25350000D01*
X18861928Y-26250000D01*
X18874188Y-26374482D01*
X18910498Y-26494180D01*
X18969463Y-26604494D01*
X19048815Y-26701185D01*
X19140000Y-26776019D01*
X19140000Y-27562677D01*
X19136324Y-27600000D01*
X19140000Y-27637322D01*
X19140000Y-27637332D01*
X19150997Y-27748985D01*
X19189579Y-27876176D01*
X19194454Y-27892246D01*
X19265026Y-28024276D01*
X19275742Y-28037333D01*
X19359999Y-28140001D01*
X19389002Y-28163804D01*
X20240001Y-29014803D01*
X20240001Y-29242228D01*
X20020986Y-29359294D01*
X19794866Y-29544866D01*
X19609294Y-29770986D01*
X19471401Y-30028966D01*
X19386487Y-30308889D01*
X19357815Y-30600000D01*
X19386487Y-30891111D01*
X19471401Y-31171034D01*
X19609294Y-31429014D01*
X19794866Y-31655134D01*
X19858337Y-31707223D01*
X19756614Y-31761595D01*
X19622038Y-31872038D01*
X19511595Y-32006614D01*
X19429528Y-32160150D01*
X19378992Y-32326746D01*
X19377834Y-32338507D01*
X19362675Y-32340000D01*
X19362667Y-32340000D01*
X19251014Y-32350997D01*
X19107753Y-32394454D01*
X18975724Y-32465026D01*
X18859999Y-32559999D01*
X18836201Y-32588997D01*
X15386201Y-36038998D01*
X15315026Y-36125724D01*
X15244454Y-36257754D01*
X15200998Y-36401015D01*
X15186324Y-36550000D01*
X15191248Y-36599995D01*
X15190000Y-36612668D01*
X15190000Y-37105532D01*
X15173815Y-37118815D01*
X15094463Y-37215506D01*
X15035498Y-37325820D01*
X14999188Y-37445518D01*
X14986928Y-37570000D01*
X14986928Y-38238270D01*
X14489002Y-38736196D01*
X14459999Y-38759999D01*
X14422620Y-38805546D01*
X14365026Y-38875724D01*
X14324782Y-38951015D01*
X14294454Y-39007754D01*
X14250997Y-39151015D01*
X14240000Y-39262668D01*
X14240000Y-39262678D01*
X14236324Y-39300000D01*
X14240000Y-39337322D01*
X14240001Y-46662668D01*
X14236324Y-46700000D01*
X14240001Y-46737333D01*
X14250998Y-46848986D01*
X14263135Y-46888998D01*
X14294454Y-46992246D01*
X14365026Y-47124276D01*
X14424093Y-47196248D01*
X14460000Y-47240001D01*
X14488998Y-47263799D01*
X14986928Y-47761730D01*
X14986928Y-48430000D01*
X14999188Y-48554482D01*
X15035498Y-48674180D01*
X15094463Y-48784494D01*
X15173815Y-48881185D01*
X15270506Y-48960537D01*
X15380820Y-49019502D01*
X15500518Y-49055812D01*
X15625000Y-49068072D01*
X16275000Y-49068072D01*
X16399482Y-49055812D01*
X16425000Y-49048071D01*
X16450518Y-49055812D01*
X16575000Y-49068072D01*
X17225000Y-49068072D01*
X17349482Y-49055812D01*
X17375000Y-49048071D01*
X17400518Y-49055812D01*
X17525000Y-49068072D01*
X18175000Y-49068072D01*
X18299482Y-49055812D01*
X18419180Y-49019502D01*
X18529494Y-48960537D01*
X18603258Y-48900000D01*
X19686928Y-48900000D01*
X19699188Y-49024482D01*
X19735498Y-49144180D01*
X19794463Y-49254494D01*
X19873815Y-49351185D01*
X19970506Y-49430537D01*
X20080820Y-49489502D01*
X20200518Y-49525812D01*
X20325000Y-49538072D01*
X20914250Y-49535000D01*
X21073000Y-49376250D01*
X21073000Y-48377000D01*
X19848750Y-48377000D01*
X19690000Y-48535750D01*
X19686928Y-48900000D01*
X18603258Y-48900000D01*
X18626185Y-48881185D01*
X18705537Y-48784494D01*
X18764502Y-48674180D01*
X18800812Y-48554482D01*
X18813072Y-48430000D01*
X18813072Y-47761729D01*
X18974801Y-47600000D01*
X19686928Y-47600000D01*
X19690000Y-47964250D01*
X19848750Y-48123000D01*
X21073000Y-48123000D01*
X21073000Y-47123750D01*
X20914250Y-46965000D01*
X20325000Y-46961928D01*
X20200518Y-46974188D01*
X20080820Y-47010498D01*
X19970506Y-47069463D01*
X19873815Y-47148815D01*
X19794463Y-47245506D01*
X19735498Y-47355820D01*
X19699188Y-47475518D01*
X19686928Y-47600000D01*
X18974801Y-47600000D01*
X20215065Y-46359736D01*
X20235150Y-46370472D01*
X20401746Y-46421008D01*
X20575000Y-46438072D01*
X21825000Y-46438072D01*
X21998254Y-46421008D01*
X22164850Y-46370472D01*
X22318386Y-46288405D01*
X22452962Y-46177962D01*
X22563405Y-46043386D01*
X22645472Y-45889850D01*
X22696008Y-45723254D01*
X22713072Y-45550000D01*
X22713072Y-44750000D01*
X22709641Y-44715161D01*
X23286928Y-44137874D01*
X23286928Y-44162500D01*
X23303752Y-44333316D01*
X23353577Y-44497567D01*
X23434488Y-44648942D01*
X23543377Y-44781623D01*
X23640000Y-44860920D01*
X23640001Y-45785197D01*
X22589003Y-46836196D01*
X22559999Y-46859999D01*
X22512995Y-46917274D01*
X22465026Y-46975724D01*
X22418159Y-47063404D01*
X22319180Y-47010498D01*
X22199482Y-46974188D01*
X22075000Y-46961928D01*
X21485750Y-46965000D01*
X21327000Y-47123750D01*
X21327000Y-48123000D01*
X21347000Y-48123000D01*
X21347000Y-48377000D01*
X21327000Y-48377000D01*
X21327000Y-49376250D01*
X21485750Y-49535000D01*
X22075000Y-49538072D01*
X22199482Y-49525812D01*
X22319180Y-49489502D01*
X22340001Y-49478373D01*
X22340001Y-49862657D01*
X22336323Y-49900000D01*
X22350997Y-50048986D01*
X22394454Y-50192247D01*
X22465026Y-50324276D01*
X22559999Y-50440001D01*
X22675724Y-50534974D01*
X22807753Y-50605546D01*
X22840756Y-50615557D01*
X24093831Y-51868632D01*
X24045506Y-51894463D01*
X23948815Y-51973815D01*
X23869463Y-52070506D01*
X23810498Y-52180820D01*
X23774188Y-52300518D01*
X23761928Y-52425000D01*
X23765000Y-52614250D01*
X23923750Y-52773000D01*
X24810500Y-52773000D01*
X24810500Y-52753000D01*
X25064500Y-52753000D01*
X25064500Y-52773000D01*
X25084500Y-52773000D01*
X25084500Y-53027000D01*
X25064500Y-53027000D01*
X25064500Y-53851250D01*
X25223250Y-54010000D01*
X25475000Y-54013072D01*
X25599482Y-54000812D01*
X25719180Y-53964502D01*
X25829494Y-53905537D01*
X25877394Y-53866226D01*
X26027433Y-53946423D01*
X26191684Y-53996248D01*
X26362500Y-54013072D01*
X26862127Y-54013072D01*
X26251503Y-54623696D01*
X26222499Y-54647499D01*
X26176334Y-54703752D01*
X26138098Y-54750342D01*
X26127433Y-54753577D01*
X25977394Y-54833774D01*
X25929494Y-54794463D01*
X25819180Y-54735498D01*
X25699482Y-54699188D01*
X25575000Y-54686928D01*
X25323250Y-54690000D01*
X25164500Y-54848750D01*
X25164500Y-55673000D01*
X25184500Y-55673000D01*
X25184500Y-55927000D01*
X25164500Y-55927000D01*
X25164500Y-56751250D01*
X25323250Y-56910000D01*
X25575000Y-56913072D01*
X25699482Y-56900812D01*
X25819180Y-56864502D01*
X25929494Y-56805537D01*
X25977394Y-56766226D01*
X26002500Y-56779646D01*
X26002500Y-57122698D01*
X25576064Y-57549135D01*
X25526746Y-57553992D01*
X25360150Y-57604528D01*
X25206614Y-57686595D01*
X25072038Y-57797038D01*
X25066658Y-57803594D01*
X25001185Y-57723815D01*
X24904494Y-57644463D01*
X24794180Y-57585498D01*
X24674482Y-57549188D01*
X24550000Y-57536928D01*
X24248250Y-57540000D01*
X24089500Y-57698750D01*
X24089500Y-58773000D01*
X24109500Y-58773000D01*
X24109500Y-59027000D01*
X24089500Y-59027000D01*
X24089500Y-60101250D01*
X24248250Y-60260000D01*
X24550000Y-60263072D01*
X24674482Y-60250812D01*
X24794180Y-60214502D01*
X24904494Y-60155537D01*
X25001185Y-60076185D01*
X25066658Y-59996406D01*
X25072038Y-60002962D01*
X25206614Y-60113405D01*
X25277500Y-60151295D01*
X25277501Y-60948705D01*
X25206614Y-60986595D01*
X25072038Y-61097038D01*
X25066658Y-61103594D01*
X25001185Y-61023815D01*
X24904494Y-60944463D01*
X24794180Y-60885498D01*
X24674482Y-60849188D01*
X24550000Y-60836928D01*
X24248250Y-60840000D01*
X24089500Y-60998750D01*
X24089500Y-62073000D01*
X24109500Y-62073000D01*
X24109500Y-62327000D01*
X24089500Y-62327000D01*
X24089500Y-63401250D01*
X24248250Y-63560000D01*
X24550000Y-63563072D01*
X24674482Y-63550812D01*
X24794180Y-63514502D01*
X24904494Y-63455537D01*
X25001185Y-63376185D01*
X25066658Y-63296406D01*
X25072038Y-63302962D01*
X25206614Y-63413405D01*
X25360150Y-63495472D01*
X25526746Y-63546008D01*
X25700000Y-63563072D01*
X26375000Y-63563072D01*
X26548254Y-63546008D01*
X26714850Y-63495472D01*
X26868386Y-63413405D01*
X27002962Y-63302962D01*
X27113405Y-63168386D01*
X27195472Y-63014850D01*
X27230311Y-62900000D01*
X28686928Y-62900000D01*
X28699188Y-63024482D01*
X28735498Y-63144180D01*
X28794463Y-63254494D01*
X28873815Y-63351185D01*
X28970506Y-63430537D01*
X29080820Y-63489502D01*
X29200518Y-63525812D01*
X29325000Y-63538072D01*
X29514250Y-63535000D01*
X29673000Y-63376250D01*
X29673000Y-62489500D01*
X29927000Y-62489500D01*
X29927000Y-63376250D01*
X30085750Y-63535000D01*
X30275000Y-63538072D01*
X30399482Y-63525812D01*
X30519180Y-63489502D01*
X30629494Y-63430537D01*
X30726185Y-63351185D01*
X30805537Y-63254494D01*
X30864502Y-63144180D01*
X30900812Y-63024482D01*
X30913072Y-62900000D01*
X31586928Y-62900000D01*
X31599188Y-63024482D01*
X31635498Y-63144180D01*
X31694463Y-63254494D01*
X31773815Y-63351185D01*
X31870506Y-63430537D01*
X31980820Y-63489502D01*
X32100518Y-63525812D01*
X32225000Y-63538072D01*
X32414250Y-63535000D01*
X32573000Y-63376250D01*
X32573000Y-62489500D01*
X32827000Y-62489500D01*
X32827000Y-63376250D01*
X32985750Y-63535000D01*
X33175000Y-63538072D01*
X33299482Y-63525812D01*
X33419180Y-63489502D01*
X33529494Y-63430537D01*
X33626185Y-63351185D01*
X33705537Y-63254494D01*
X33764502Y-63144180D01*
X33800812Y-63024482D01*
X33813072Y-62900000D01*
X33810000Y-62648250D01*
X33651250Y-62489500D01*
X32827000Y-62489500D01*
X32573000Y-62489500D01*
X31748750Y-62489500D01*
X31590000Y-62648250D01*
X31586928Y-62900000D01*
X30913072Y-62900000D01*
X30910000Y-62648250D01*
X30751250Y-62489500D01*
X29927000Y-62489500D01*
X29673000Y-62489500D01*
X28848750Y-62489500D01*
X28690000Y-62648250D01*
X28686928Y-62900000D01*
X27230311Y-62900000D01*
X27246008Y-62848254D01*
X27263072Y-62675000D01*
X27263072Y-61725000D01*
X27246008Y-61551746D01*
X27195472Y-61385150D01*
X27113405Y-61231614D01*
X27002962Y-61097038D01*
X26868386Y-60986595D01*
X26797500Y-60948706D01*
X26797500Y-60151294D01*
X26868386Y-60113405D01*
X27002962Y-60002962D01*
X27113405Y-59868386D01*
X27195472Y-59714850D01*
X27246008Y-59548254D01*
X27263072Y-59375000D01*
X27263072Y-58425000D01*
X27246008Y-58251746D01*
X27195472Y-58085150D01*
X27193445Y-58081357D01*
X27273504Y-58001298D01*
X27302501Y-57977501D01*
X27397474Y-57861776D01*
X27468046Y-57729747D01*
X27511503Y-57586486D01*
X27522500Y-57474833D01*
X27522500Y-57474823D01*
X27526176Y-57437500D01*
X27522500Y-57400177D01*
X27522500Y-56779645D01*
X27548942Y-56765512D01*
X27681623Y-56656623D01*
X27790512Y-56523942D01*
X27871423Y-56372567D01*
X27921248Y-56208316D01*
X27938072Y-56037500D01*
X27938072Y-55562500D01*
X27921248Y-55391684D01*
X27871423Y-55227433D01*
X27845628Y-55179173D01*
X28377084Y-54647717D01*
X28380000Y-54677322D01*
X28380000Y-54677332D01*
X28390997Y-54788985D01*
X28433341Y-54928577D01*
X28434454Y-54932246D01*
X28505026Y-55064276D01*
X28521439Y-55084275D01*
X28567082Y-55139891D01*
X28529528Y-55210149D01*
X28478992Y-55376745D01*
X28461928Y-55549999D01*
X28461928Y-56200001D01*
X28478992Y-56373255D01*
X28529528Y-56539851D01*
X28611595Y-56693387D01*
X28722038Y-56827962D01*
X28809816Y-56900000D01*
X28722038Y-56972038D01*
X28611595Y-57106613D01*
X28529528Y-57260149D01*
X28478992Y-57426745D01*
X28461928Y-57599999D01*
X28461928Y-58250001D01*
X28478992Y-58423255D01*
X28529528Y-58589851D01*
X28611595Y-58743387D01*
X28722038Y-58877962D01*
X28856613Y-58988405D01*
X29010149Y-59070472D01*
X29040000Y-59079527D01*
X29040001Y-59639080D01*
X28943377Y-59718377D01*
X28834488Y-59851058D01*
X28753577Y-60002433D01*
X28703752Y-60166684D01*
X28686928Y-60337500D01*
X28686928Y-60937500D01*
X28703752Y-61108316D01*
X28753577Y-61272567D01*
X28833774Y-61422606D01*
X28794463Y-61470506D01*
X28735498Y-61580820D01*
X28699188Y-61700518D01*
X28686928Y-61825000D01*
X28690000Y-62076750D01*
X28848750Y-62235500D01*
X29673000Y-62235500D01*
X29673000Y-62215500D01*
X29927000Y-62215500D01*
X29927000Y-62235500D01*
X30751250Y-62235500D01*
X30910000Y-62076750D01*
X30913072Y-61825000D01*
X30900812Y-61700518D01*
X30864502Y-61580820D01*
X30805537Y-61470506D01*
X30766226Y-61422606D01*
X30846423Y-61272567D01*
X30896248Y-61108316D01*
X30913072Y-60937500D01*
X30913072Y-60337500D01*
X30896248Y-60166684D01*
X30846423Y-60002433D01*
X30765512Y-59851058D01*
X30656623Y-59718377D01*
X30560000Y-59639080D01*
X30560000Y-59079527D01*
X30589851Y-59070472D01*
X30743387Y-58988405D01*
X30877962Y-58877962D01*
X30988405Y-58743387D01*
X31070472Y-58589851D01*
X31071944Y-58585000D01*
X32053822Y-58585000D01*
X32143377Y-58694123D01*
X32240000Y-58773420D01*
X32240001Y-59494430D01*
X32127433Y-59528577D01*
X31976058Y-59609488D01*
X31843377Y-59718377D01*
X31734488Y-59851058D01*
X31653577Y-60002433D01*
X31603752Y-60166684D01*
X31586928Y-60337500D01*
X31586928Y-60937500D01*
X31603752Y-61108316D01*
X31653577Y-61272567D01*
X31733774Y-61422606D01*
X31694463Y-61470506D01*
X31635498Y-61580820D01*
X31599188Y-61700518D01*
X31586928Y-61825000D01*
X31590000Y-62076750D01*
X31748750Y-62235500D01*
X32573000Y-62235500D01*
X32573000Y-62215500D01*
X32827000Y-62215500D01*
X32827000Y-62235500D01*
X33651250Y-62235500D01*
X33810000Y-62076750D01*
X33813072Y-61825000D01*
X33800812Y-61700518D01*
X33764502Y-61580820D01*
X33705537Y-61470506D01*
X33666226Y-61422606D01*
X33746423Y-61272567D01*
X33796248Y-61108316D01*
X33813072Y-60937500D01*
X33813072Y-60337500D01*
X33796248Y-60166684D01*
X33760000Y-60047190D01*
X33760000Y-58773420D01*
X33856623Y-58694123D01*
X33965512Y-58561442D01*
X34046423Y-58410067D01*
X34096248Y-58245816D01*
X34111918Y-58086720D01*
X34348701Y-58323503D01*
X34372499Y-58352501D01*
X34401497Y-58376299D01*
X34488223Y-58447474D01*
X34620253Y-58518046D01*
X34763514Y-58561503D01*
X34851945Y-58570213D01*
X34943377Y-58681623D01*
X35076058Y-58790512D01*
X35227433Y-58871423D01*
X35391684Y-58921248D01*
X35562500Y-58938072D01*
X36037500Y-58938072D01*
X36208316Y-58921248D01*
X36270303Y-58902444D01*
X35955943Y-59372918D01*
X35697006Y-59998048D01*
X35565000Y-60661682D01*
X35565000Y-61338318D01*
X35697006Y-62001952D01*
X35955943Y-62627082D01*
X36331862Y-63189685D01*
X36810315Y-63668138D01*
X37372918Y-64044057D01*
X37998048Y-64302994D01*
X38184088Y-64340000D01*
X17815912Y-64340000D01*
X18001952Y-64302994D01*
X18627082Y-64044057D01*
X19189685Y-63668138D01*
X19668138Y-63189685D01*
X19844994Y-62925000D01*
X22736928Y-62925000D01*
X22749188Y-63049482D01*
X22785498Y-63169180D01*
X22844463Y-63279494D01*
X22923815Y-63376185D01*
X23020506Y-63455537D01*
X23130820Y-63514502D01*
X23250518Y-63550812D01*
X23375000Y-63563072D01*
X23676750Y-63560000D01*
X23835500Y-63401250D01*
X23835500Y-62327000D01*
X22898750Y-62327000D01*
X22740000Y-62485750D01*
X22736928Y-62925000D01*
X19844994Y-62925000D01*
X20044057Y-62627082D01*
X20302994Y-62001952D01*
X20407812Y-61475000D01*
X22736928Y-61475000D01*
X22740000Y-61914250D01*
X22898750Y-62073000D01*
X23835500Y-62073000D01*
X23835500Y-60998750D01*
X23676750Y-60840000D01*
X23375000Y-60836928D01*
X23250518Y-60849188D01*
X23130820Y-60885498D01*
X23020506Y-60944463D01*
X22923815Y-61023815D01*
X22844463Y-61120506D01*
X22785498Y-61230820D01*
X22749188Y-61350518D01*
X22736928Y-61475000D01*
X20407812Y-61475000D01*
X20435000Y-61338318D01*
X20435000Y-60661682D01*
X20302994Y-59998048D01*
X20148473Y-59625000D01*
X22736928Y-59625000D01*
X22749188Y-59749482D01*
X22785498Y-59869180D01*
X22844463Y-59979494D01*
X22923815Y-60076185D01*
X23020506Y-60155537D01*
X23130820Y-60214502D01*
X23250518Y-60250812D01*
X23375000Y-60263072D01*
X23676750Y-60260000D01*
X23835500Y-60101250D01*
X23835500Y-59027000D01*
X22898750Y-59027000D01*
X22740000Y-59185750D01*
X22736928Y-59625000D01*
X20148473Y-59625000D01*
X20044057Y-59372918D01*
X19668138Y-58810315D01*
X19189685Y-58331862D01*
X18954925Y-58175000D01*
X22736928Y-58175000D01*
X22740000Y-58614250D01*
X22898750Y-58773000D01*
X23835500Y-58773000D01*
X23835500Y-57698750D01*
X23676750Y-57540000D01*
X23375000Y-57536928D01*
X23250518Y-57549188D01*
X23130820Y-57585498D01*
X23020506Y-57644463D01*
X22923815Y-57723815D01*
X22844463Y-57820506D01*
X22785498Y-57930820D01*
X22749188Y-58050518D01*
X22736928Y-58175000D01*
X18954925Y-58175000D01*
X18627082Y-57955943D01*
X18001952Y-57697006D01*
X17338318Y-57565000D01*
X16661682Y-57565000D01*
X15998048Y-57697006D01*
X15372918Y-57955943D01*
X14810315Y-58331862D01*
X14331862Y-58810315D01*
X13955943Y-59372918D01*
X13697006Y-59998048D01*
X13660000Y-60184088D01*
X13660000Y-56275000D01*
X23861928Y-56275000D01*
X23874188Y-56399482D01*
X23910498Y-56519180D01*
X23969463Y-56629494D01*
X24048815Y-56726185D01*
X24145506Y-56805537D01*
X24255820Y-56864502D01*
X24375518Y-56900812D01*
X24500000Y-56913072D01*
X24751750Y-56910000D01*
X24910500Y-56751250D01*
X24910500Y-55927000D01*
X24023750Y-55927000D01*
X23865000Y-56085750D01*
X23861928Y-56275000D01*
X13660000Y-56275000D01*
X13660000Y-54600000D01*
X18484025Y-54600000D01*
X18507870Y-54842102D01*
X18578489Y-55074901D01*
X18693167Y-55289449D01*
X18847498Y-55477502D01*
X19035551Y-55631833D01*
X19250099Y-55746511D01*
X19482898Y-55817130D01*
X19664335Y-55835000D01*
X20335665Y-55835000D01*
X20517102Y-55817130D01*
X20749901Y-55746511D01*
X20964449Y-55631833D01*
X21152502Y-55477502D01*
X21277657Y-55325000D01*
X23861928Y-55325000D01*
X23865000Y-55514250D01*
X24023750Y-55673000D01*
X24910500Y-55673000D01*
X24910500Y-54848750D01*
X24751750Y-54690000D01*
X24500000Y-54686928D01*
X24375518Y-54699188D01*
X24255820Y-54735498D01*
X24145506Y-54794463D01*
X24048815Y-54873815D01*
X23969463Y-54970506D01*
X23910498Y-55080820D01*
X23874188Y-55200518D01*
X23861928Y-55325000D01*
X21277657Y-55325000D01*
X21306833Y-55289449D01*
X21421511Y-55074901D01*
X21492130Y-54842102D01*
X21515975Y-54600000D01*
X21492130Y-54357898D01*
X21421511Y-54125099D01*
X21306833Y-53910551D01*
X21180564Y-53756691D01*
X21229494Y-53730537D01*
X21326185Y-53651185D01*
X21405537Y-53554494D01*
X21464502Y-53444180D01*
X21485487Y-53375000D01*
X23761928Y-53375000D01*
X23774188Y-53499482D01*
X23810498Y-53619180D01*
X23869463Y-53729494D01*
X23948815Y-53826185D01*
X24045506Y-53905537D01*
X24155820Y-53964502D01*
X24275518Y-54000812D01*
X24400000Y-54013072D01*
X24651750Y-54010000D01*
X24810500Y-53851250D01*
X24810500Y-53027000D01*
X23923750Y-53027000D01*
X23765000Y-53185750D01*
X23761928Y-53375000D01*
X21485487Y-53375000D01*
X21500812Y-53324482D01*
X21513072Y-53200000D01*
X21510000Y-52885750D01*
X21351250Y-52727000D01*
X20127000Y-52727000D01*
X20127000Y-52747000D01*
X19873000Y-52747000D01*
X19873000Y-52727000D01*
X18648750Y-52727000D01*
X18490000Y-52885750D01*
X18486928Y-53200000D01*
X18499188Y-53324482D01*
X18535498Y-53444180D01*
X18594463Y-53554494D01*
X18673815Y-53651185D01*
X18770506Y-53730537D01*
X18819436Y-53756691D01*
X18693167Y-53910551D01*
X18578489Y-54125099D01*
X18507870Y-54357898D01*
X18484025Y-54600000D01*
X13660000Y-54600000D01*
X13660000Y-52000000D01*
X18486928Y-52000000D01*
X18490000Y-52314250D01*
X18648750Y-52473000D01*
X19873000Y-52473000D01*
X19873000Y-51523750D01*
X20127000Y-51523750D01*
X20127000Y-52473000D01*
X21351250Y-52473000D01*
X21510000Y-52314250D01*
X21513072Y-52000000D01*
X21500812Y-51875518D01*
X21464502Y-51755820D01*
X21405537Y-51645506D01*
X21326185Y-51548815D01*
X21229494Y-51469463D01*
X21119180Y-51410498D01*
X20999482Y-51374188D01*
X20875000Y-51361928D01*
X20285750Y-51365000D01*
X20127000Y-51523750D01*
X19873000Y-51523750D01*
X19714250Y-51365000D01*
X19125000Y-51361928D01*
X19000518Y-51374188D01*
X18880820Y-51410498D01*
X18770506Y-51469463D01*
X18673815Y-51548815D01*
X18594463Y-51645506D01*
X18535498Y-51755820D01*
X18499188Y-51875518D01*
X18486928Y-52000000D01*
X13660000Y-52000000D01*
X13660000Y-26000000D01*
X14886928Y-26000000D01*
X14899188Y-26124482D01*
X14935498Y-26244180D01*
X14994463Y-26354494D01*
X15073815Y-26451185D01*
X15170506Y-26530537D01*
X15280820Y-26589502D01*
X15400518Y-26625812D01*
X15525000Y-26638072D01*
X15714250Y-26635000D01*
X15873000Y-26476250D01*
X15873000Y-25589500D01*
X16127000Y-25589500D01*
X16127000Y-26476250D01*
X16285750Y-26635000D01*
X16475000Y-26638072D01*
X16599482Y-26625812D01*
X16719180Y-26589502D01*
X16829494Y-26530537D01*
X16926185Y-26451185D01*
X17005537Y-26354494D01*
X17064502Y-26244180D01*
X17100812Y-26124482D01*
X17113072Y-26000000D01*
X17110000Y-25748250D01*
X16951250Y-25589500D01*
X16127000Y-25589500D01*
X15873000Y-25589500D01*
X15048750Y-25589500D01*
X14890000Y-25748250D01*
X14886928Y-26000000D01*
X13660000Y-26000000D01*
X13660000Y-19815912D01*
X13697006Y-20001952D01*
X13955943Y-20627082D01*
X14331862Y-21189685D01*
X14810315Y-21668138D01*
X15372918Y-22044057D01*
X15998048Y-22302994D01*
X16661682Y-22435000D01*
X17338318Y-22435000D01*
X18001952Y-22302994D01*
X18627082Y-22044057D01*
X19189685Y-21668138D01*
X19668138Y-21189685D01*
X20044057Y-20627082D01*
X20302994Y-20001952D01*
X20435000Y-19338318D01*
X20435000Y-18661682D01*
X20302994Y-17998048D01*
X20044057Y-17372918D01*
X19668138Y-16810315D01*
X19189685Y-16331862D01*
X18627082Y-15955943D01*
X18001952Y-15697006D01*
X17815912Y-15660000D01*
X38184088Y-15660000D01*
X37998048Y-15697006D01*
%TA.AperFunction,Conductor*%
D25*
G36*
X37998048Y-15697006D02*
G01*
X37372918Y-15955943D01*
X36810315Y-16331862D01*
X36331862Y-16810315D01*
X35955943Y-17372918D01*
X35697006Y-17998048D01*
X35565000Y-18661682D01*
X35565000Y-19338318D01*
X35697006Y-20001952D01*
X35955943Y-20627082D01*
X36331862Y-21189685D01*
X36810315Y-21668138D01*
X37372918Y-22044057D01*
X37998048Y-22302994D01*
X38661682Y-22435000D01*
X39338318Y-22435000D01*
X40001952Y-22302994D01*
X40627082Y-22044057D01*
X41189685Y-21668138D01*
X41668138Y-21189685D01*
X42044057Y-20627082D01*
X42302994Y-20001952D01*
X42340000Y-19815912D01*
X42340001Y-60184093D01*
X42302994Y-59998048D01*
X42044057Y-59372918D01*
X41668138Y-58810315D01*
X41189685Y-58331862D01*
X40627082Y-57955943D01*
X40001952Y-57697006D01*
X39338318Y-57565000D01*
X38661682Y-57565000D01*
X37998048Y-57697006D01*
X37372918Y-57955943D01*
X36880601Y-58284899D01*
X36896248Y-58233316D01*
X36913072Y-58062500D01*
X36913072Y-57562500D01*
X36896248Y-57391684D01*
X36846423Y-57227433D01*
X36765512Y-57076058D01*
X36656623Y-56943377D01*
X36603768Y-56900000D01*
X36656623Y-56856623D01*
X36746178Y-56747500D01*
X37628822Y-56747500D01*
X37718377Y-56856623D01*
X37851058Y-56965512D01*
X38002433Y-57046423D01*
X38166684Y-57096248D01*
X38337500Y-57113072D01*
X38837500Y-57113072D01*
X39008316Y-57096248D01*
X39172567Y-57046423D01*
X39323942Y-56965512D01*
X39432783Y-56876188D01*
X39473815Y-56926185D01*
X39570506Y-57005537D01*
X39680820Y-57064502D01*
X39800518Y-57100812D01*
X39925000Y-57113072D01*
X40126750Y-57110000D01*
X40285500Y-56951250D01*
X40285500Y-56127000D01*
X40539500Y-56127000D01*
X40539500Y-56951250D01*
X40698250Y-57110000D01*
X40900000Y-57113072D01*
X41024482Y-57100812D01*
X41144180Y-57064502D01*
X41254494Y-57005537D01*
X41351185Y-56926185D01*
X41430537Y-56829494D01*
X41489502Y-56719180D01*
X41525812Y-56599482D01*
X41538072Y-56475000D01*
X41535000Y-56285750D01*
X41376250Y-56127000D01*
X40539500Y-56127000D01*
X40285500Y-56127000D01*
X40265500Y-56127000D01*
X40265500Y-55873000D01*
X40285500Y-55873000D01*
X40285500Y-55048750D01*
X40539500Y-55048750D01*
X40539500Y-55873000D01*
X41376250Y-55873000D01*
X41535000Y-55714250D01*
X41538072Y-55525000D01*
X41525812Y-55400518D01*
X41489502Y-55280820D01*
X41430537Y-55170506D01*
X41351185Y-55073815D01*
X41254494Y-54994463D01*
X41144180Y-54935498D01*
X41024482Y-54899188D01*
X40900000Y-54886928D01*
X40698250Y-54890000D01*
X40539500Y-55048750D01*
X40285500Y-55048750D01*
X40126750Y-54890000D01*
X39925000Y-54886928D01*
X39800518Y-54899188D01*
X39680820Y-54935498D01*
X39570506Y-54994463D01*
X39473815Y-55073815D01*
X39432783Y-55123812D01*
X39323942Y-55034488D01*
X39172567Y-54953577D01*
X39008316Y-54903752D01*
X38837500Y-54886928D01*
X38337500Y-54886928D01*
X38166684Y-54903752D01*
X38002433Y-54953577D01*
X37851058Y-55034488D01*
X37718377Y-55143377D01*
X37649339Y-55227500D01*
X36746178Y-55227500D01*
X36656623Y-55118377D01*
X36523942Y-55009488D01*
X36372567Y-54928577D01*
X36208316Y-54878752D01*
X36037500Y-54861928D01*
X35562500Y-54861928D01*
X35391684Y-54878752D01*
X35227433Y-54928577D01*
X35081422Y-55006621D01*
X33484801Y-53410000D01*
X34735199Y-53410000D01*
X34886928Y-53561730D01*
X34886928Y-53562500D01*
X34903752Y-53733316D01*
X34953577Y-53897567D01*
X35034488Y-54048942D01*
X35143377Y-54181623D01*
X35276058Y-54290512D01*
X35427433Y-54371423D01*
X35591684Y-54421248D01*
X35762500Y-54438072D01*
X36237500Y-54438072D01*
X36408316Y-54421248D01*
X36572567Y-54371423D01*
X36723942Y-54290512D01*
X36856623Y-54181623D01*
X36965512Y-54048942D01*
X37046423Y-53897567D01*
X37076019Y-53800000D01*
X38886928Y-53800000D01*
X38899188Y-53924482D01*
X38935498Y-54044180D01*
X38994463Y-54154494D01*
X39073815Y-54251185D01*
X39170506Y-54330537D01*
X39280820Y-54389502D01*
X39400518Y-54425812D01*
X39525000Y-54438072D01*
X39714250Y-54435000D01*
X39873000Y-54276250D01*
X39873000Y-53389500D01*
X40127000Y-53389500D01*
X40127000Y-54276250D01*
X40285750Y-54435000D01*
X40475000Y-54438072D01*
X40599482Y-54425812D01*
X40719180Y-54389502D01*
X40829494Y-54330537D01*
X40926185Y-54251185D01*
X41005537Y-54154494D01*
X41064502Y-54044180D01*
X41100812Y-53924482D01*
X41113072Y-53800000D01*
X41110000Y-53548250D01*
X40951250Y-53389500D01*
X40127000Y-53389500D01*
X39873000Y-53389500D01*
X39048750Y-53389500D01*
X38890000Y-53548250D01*
X38886928Y-53800000D01*
X37076019Y-53800000D01*
X37096248Y-53733316D01*
X37113072Y-53562500D01*
X37113072Y-52962500D01*
X37096248Y-52791684D01*
X37046423Y-52627433D01*
X36966226Y-52477394D01*
X37005537Y-52429494D01*
X37064502Y-52319180D01*
X37100812Y-52199482D01*
X37113072Y-52075000D01*
X37110000Y-51823250D01*
X36951250Y-51664500D01*
X36127000Y-51664500D01*
X36127000Y-51684500D01*
X35873000Y-51684500D01*
X35873000Y-51664500D01*
X35048750Y-51664500D01*
X34890000Y-51823250D01*
X34889185Y-51890000D01*
X33773711Y-51890000D01*
X33903937Y-51759774D01*
X34017205Y-51590256D01*
X34095226Y-51401898D01*
X34135000Y-51201939D01*
X34135000Y-50998061D01*
X34127429Y-50960000D01*
X34890868Y-50960000D01*
X34886928Y-51000000D01*
X34890000Y-51251750D01*
X35048750Y-51410500D01*
X35873000Y-51410500D01*
X35873000Y-51390500D01*
X36127000Y-51390500D01*
X36127000Y-51410500D01*
X36951250Y-51410500D01*
X37110000Y-51251750D01*
X37113072Y-51000000D01*
X37109132Y-50960000D01*
X37361978Y-50960000D01*
X37304774Y-51098102D01*
X37265000Y-51298061D01*
X37265000Y-51501939D01*
X37304774Y-51701898D01*
X37382795Y-51890256D01*
X37496063Y-52059774D01*
X37640226Y-52203937D01*
X37809744Y-52317205D01*
X37998102Y-52395226D01*
X38198061Y-52435000D01*
X38401939Y-52435000D01*
X38601898Y-52395226D01*
X38790256Y-52317205D01*
X38959774Y-52203937D01*
X38966663Y-52197048D01*
X39033774Y-52322606D01*
X38994463Y-52370506D01*
X38935498Y-52480820D01*
X38899188Y-52600518D01*
X38886928Y-52725000D01*
X38890000Y-52976750D01*
X39048750Y-53135500D01*
X39873000Y-53135500D01*
X39873000Y-53115500D01*
X40127000Y-53115500D01*
X40127000Y-53135500D01*
X40951250Y-53135500D01*
X41110000Y-52976750D01*
X41113072Y-52725000D01*
X41100812Y-52600518D01*
X41064502Y-52480820D01*
X41005537Y-52370506D01*
X40966226Y-52322606D01*
X41046423Y-52172567D01*
X41096248Y-52008316D01*
X41113072Y-51837500D01*
X41113072Y-51237500D01*
X41096248Y-51066684D01*
X41046423Y-50902433D01*
X40965512Y-50751058D01*
X40856623Y-50618377D01*
X40856514Y-50618287D01*
X41511004Y-49963798D01*
X41540001Y-49940001D01*
X41634974Y-49824276D01*
X41705546Y-49692247D01*
X41749003Y-49548986D01*
X41760000Y-49437333D01*
X41760000Y-49437332D01*
X41763677Y-49400000D01*
X41760000Y-49362667D01*
X41760000Y-37437333D01*
X41763677Y-37400000D01*
X41751238Y-37273701D01*
X41749003Y-37251014D01*
X41705546Y-37107753D01*
X41634974Y-36975724D01*
X41540001Y-36859999D01*
X41511003Y-36836201D01*
X41050073Y-36375271D01*
X41190256Y-36317205D01*
X41359774Y-36203937D01*
X41503937Y-36059774D01*
X41617205Y-35890256D01*
X41695226Y-35701898D01*
X41735000Y-35501939D01*
X41735000Y-35298061D01*
X41695226Y-35098102D01*
X41617205Y-34909744D01*
X41503937Y-34740226D01*
X41359774Y-34596063D01*
X41190256Y-34482795D01*
X41001898Y-34404774D01*
X40801939Y-34365000D01*
X40739802Y-34365000D01*
X39760000Y-33385199D01*
X39760000Y-25937322D01*
X39763676Y-25899999D01*
X39760000Y-25862676D01*
X39760000Y-25862667D01*
X39749003Y-25751014D01*
X39705546Y-25607753D01*
X39634974Y-25475724D01*
X39621811Y-25459685D01*
X39563799Y-25388996D01*
X39563795Y-25388992D01*
X39540001Y-25359999D01*
X39511008Y-25336205D01*
X34860000Y-20685199D01*
X34860000Y-17437322D01*
X34863676Y-17399999D01*
X34860000Y-17362676D01*
X34860000Y-17362667D01*
X34849003Y-17251014D01*
X34805546Y-17107753D01*
X34734974Y-16975724D01*
X34640001Y-16859999D01*
X34611003Y-16836201D01*
X33763803Y-15989002D01*
X33740001Y-15959999D01*
X33624276Y-15865026D01*
X33492247Y-15794454D01*
X33348986Y-15750997D01*
X33237333Y-15740000D01*
X33237322Y-15740000D01*
X33200000Y-15736324D01*
X33162678Y-15740000D01*
X26287333Y-15740000D01*
X26250000Y-15736323D01*
X26212667Y-15740000D01*
X26101014Y-15750997D01*
X25957753Y-15794454D01*
X25825724Y-15865026D01*
X25709999Y-15959999D01*
X25686201Y-15988997D01*
X25063271Y-16611928D01*
X24650000Y-16611928D01*
X24525518Y-16624188D01*
X24405820Y-16660498D01*
X24295506Y-16719463D01*
X24198815Y-16798815D01*
X24175274Y-16827500D01*
X23246178Y-16827500D01*
X23156623Y-16718377D01*
X23023942Y-16609488D01*
X22872567Y-16528577D01*
X22708316Y-16478752D01*
X22537500Y-16461928D01*
X22062500Y-16461928D01*
X21891684Y-16478752D01*
X21727433Y-16528577D01*
X21576058Y-16609488D01*
X21443377Y-16718377D01*
X21334488Y-16851058D01*
X21253577Y-17002433D01*
X21203752Y-17166684D01*
X21186928Y-17337500D01*
X21186928Y-17837500D01*
X21203752Y-18008316D01*
X21253577Y-18172567D01*
X21334488Y-18323942D01*
X21443377Y-18456623D01*
X21496232Y-18500000D01*
X21443377Y-18543377D01*
X21334488Y-18676058D01*
X21253577Y-18827433D01*
X21203752Y-18991684D01*
X21186928Y-19162500D01*
X21186928Y-19662500D01*
X21203752Y-19833316D01*
X21253577Y-19997567D01*
X21334488Y-20148942D01*
X21443377Y-20281623D01*
X21576058Y-20390512D01*
X21727433Y-20471423D01*
X21891684Y-20521248D01*
X22062500Y-20538072D01*
X22537500Y-20538072D01*
X22708316Y-20521248D01*
X22872567Y-20471423D01*
X23023942Y-20390512D01*
X23156623Y-20281623D01*
X23246178Y-20172500D01*
X24053921Y-20172500D01*
X24060498Y-20194180D01*
X24119463Y-20304494D01*
X24198815Y-20401185D01*
X24295506Y-20480537D01*
X24340001Y-20504320D01*
X24340001Y-20685197D01*
X23639002Y-21386196D01*
X23609999Y-21409999D01*
X23585787Y-21439502D01*
X23515026Y-21525724D01*
X23482078Y-21587365D01*
X23405820Y-21610498D01*
X23295506Y-21669463D01*
X23209556Y-21740000D01*
X20237323Y-21740000D01*
X20200000Y-21736324D01*
X20162677Y-21740000D01*
X20162667Y-21740000D01*
X20051014Y-21750997D01*
X19907753Y-21794454D01*
X19775723Y-21865026D01*
X19717673Y-21912667D01*
X19659999Y-21959999D01*
X19636201Y-21988997D01*
X18913271Y-22711928D01*
X18550000Y-22711928D01*
X18425518Y-22724188D01*
X18305820Y-22760498D01*
X18195506Y-22819463D01*
X18098815Y-22898815D01*
X18019463Y-22995506D01*
X17995680Y-23040000D01*
X17013052Y-23040000D01*
X16965512Y-22951058D01*
X16856623Y-22818377D01*
X16723942Y-22709488D01*
X16572567Y-22628577D01*
X16408316Y-22578752D01*
X16237500Y-22561928D01*
X15762500Y-22561928D01*
X15591684Y-22578752D01*
X15427433Y-22628577D01*
X15276058Y-22709488D01*
X15143377Y-22818377D01*
X15034488Y-22951058D01*
X14953577Y-23102433D01*
X14903752Y-23266684D01*
X14886928Y-23437500D01*
X14886928Y-24037500D01*
X14903752Y-24208316D01*
X14953577Y-24372567D01*
X15033774Y-24522606D01*
X14994463Y-24570506D01*
X14935498Y-24680820D01*
X14899188Y-24800518D01*
X14886928Y-24925000D01*
X14890000Y-25176750D01*
X15048750Y-25335500D01*
X15873000Y-25335500D01*
X15873000Y-25315500D01*
X16127000Y-25315500D01*
X16127000Y-25335500D01*
X16951250Y-25335500D01*
X17110000Y-25176750D01*
X17113072Y-24925000D01*
X17100812Y-24800518D01*
X17064502Y-24680820D01*
X17005537Y-24570506D01*
X16996915Y-24560000D01*
X17995680Y-24560000D01*
X18019463Y-24604494D01*
X18098815Y-24701185D01*
X18195506Y-24780537D01*
X18305820Y-24839502D01*
X18425518Y-24875812D01*
X18550000Y-24888072D01*
X19061905Y-24888072D01*
X19048815Y-24898815D01*
X18969463Y-24995506D01*
X18910498Y-25105820D01*
X18874188Y-25225518D01*
X18861928Y-25350000D01*
X18861928Y-26250000D01*
X18874188Y-26374482D01*
X18910498Y-26494180D01*
X18969463Y-26604494D01*
X19048815Y-26701185D01*
X19140000Y-26776019D01*
X19140000Y-27562677D01*
X19136324Y-27600000D01*
X19140000Y-27637322D01*
X19140000Y-27637332D01*
X19150997Y-27748985D01*
X19189579Y-27876176D01*
X19194454Y-27892246D01*
X19265026Y-28024276D01*
X19275742Y-28037333D01*
X19359999Y-28140001D01*
X19389002Y-28163804D01*
X20240001Y-29014803D01*
X20240001Y-29242228D01*
X20020986Y-29359294D01*
X19794866Y-29544866D01*
X19609294Y-29770986D01*
X19471401Y-30028966D01*
X19386487Y-30308889D01*
X19357815Y-30600000D01*
X19386487Y-30891111D01*
X19471401Y-31171034D01*
X19609294Y-31429014D01*
X19794866Y-31655134D01*
X19858337Y-31707223D01*
X19756614Y-31761595D01*
X19622038Y-31872038D01*
X19511595Y-32006614D01*
X19429528Y-32160150D01*
X19378992Y-32326746D01*
X19377834Y-32338507D01*
X19362675Y-32340000D01*
X19362667Y-32340000D01*
X19251014Y-32350997D01*
X19107753Y-32394454D01*
X18975724Y-32465026D01*
X18859999Y-32559999D01*
X18836201Y-32588997D01*
X15386201Y-36038998D01*
X15315026Y-36125724D01*
X15244454Y-36257754D01*
X15200998Y-36401015D01*
X15186324Y-36550000D01*
X15191248Y-36599995D01*
X15190000Y-36612668D01*
X15190000Y-37105532D01*
X15173815Y-37118815D01*
X15094463Y-37215506D01*
X15035498Y-37325820D01*
X14999188Y-37445518D01*
X14986928Y-37570000D01*
X14986928Y-38238270D01*
X14489002Y-38736196D01*
X14459999Y-38759999D01*
X14422620Y-38805546D01*
X14365026Y-38875724D01*
X14324782Y-38951015D01*
X14294454Y-39007754D01*
X14250997Y-39151015D01*
X14240000Y-39262668D01*
X14240000Y-39262678D01*
X14236324Y-39300000D01*
X14240000Y-39337322D01*
X14240001Y-46662668D01*
X14236324Y-46700000D01*
X14240001Y-46737333D01*
X14250998Y-46848986D01*
X14263135Y-46888998D01*
X14294454Y-46992246D01*
X14365026Y-47124276D01*
X14424093Y-47196248D01*
X14460000Y-47240001D01*
X14488998Y-47263799D01*
X14986928Y-47761730D01*
X14986928Y-48430000D01*
X14999188Y-48554482D01*
X15035498Y-48674180D01*
X15094463Y-48784494D01*
X15173815Y-48881185D01*
X15270506Y-48960537D01*
X15380820Y-49019502D01*
X15500518Y-49055812D01*
X15625000Y-49068072D01*
X16275000Y-49068072D01*
X16399482Y-49055812D01*
X16425000Y-49048071D01*
X16450518Y-49055812D01*
X16575000Y-49068072D01*
X17225000Y-49068072D01*
X17349482Y-49055812D01*
X17375000Y-49048071D01*
X17400518Y-49055812D01*
X17525000Y-49068072D01*
X18175000Y-49068072D01*
X18299482Y-49055812D01*
X18419180Y-49019502D01*
X18529494Y-48960537D01*
X18603258Y-48900000D01*
X19686928Y-48900000D01*
X19699188Y-49024482D01*
X19735498Y-49144180D01*
X19794463Y-49254494D01*
X19873815Y-49351185D01*
X19970506Y-49430537D01*
X20080820Y-49489502D01*
X20200518Y-49525812D01*
X20325000Y-49538072D01*
X20914250Y-49535000D01*
X21073000Y-49376250D01*
X21073000Y-48377000D01*
X19848750Y-48377000D01*
X19690000Y-48535750D01*
X19686928Y-48900000D01*
X18603258Y-48900000D01*
X18626185Y-48881185D01*
X18705537Y-48784494D01*
X18764502Y-48674180D01*
X18800812Y-48554482D01*
X18813072Y-48430000D01*
X18813072Y-47761729D01*
X18974801Y-47600000D01*
X19686928Y-47600000D01*
X19690000Y-47964250D01*
X19848750Y-48123000D01*
X21073000Y-48123000D01*
X21073000Y-47123750D01*
X20914250Y-46965000D01*
X20325000Y-46961928D01*
X20200518Y-46974188D01*
X20080820Y-47010498D01*
X19970506Y-47069463D01*
X19873815Y-47148815D01*
X19794463Y-47245506D01*
X19735498Y-47355820D01*
X19699188Y-47475518D01*
X19686928Y-47600000D01*
X18974801Y-47600000D01*
X20215065Y-46359736D01*
X20235150Y-46370472D01*
X20401746Y-46421008D01*
X20575000Y-46438072D01*
X21825000Y-46438072D01*
X21998254Y-46421008D01*
X22164850Y-46370472D01*
X22318386Y-46288405D01*
X22452962Y-46177962D01*
X22563405Y-46043386D01*
X22645472Y-45889850D01*
X22696008Y-45723254D01*
X22713072Y-45550000D01*
X22713072Y-44750000D01*
X22709641Y-44715161D01*
X23286928Y-44137874D01*
X23286928Y-44162500D01*
X23303752Y-44333316D01*
X23353577Y-44497567D01*
X23434488Y-44648942D01*
X23543377Y-44781623D01*
X23640000Y-44860920D01*
X23640001Y-45785197D01*
X22589003Y-46836196D01*
X22559999Y-46859999D01*
X22512995Y-46917274D01*
X22465026Y-46975724D01*
X22418159Y-47063404D01*
X22319180Y-47010498D01*
X22199482Y-46974188D01*
X22075000Y-46961928D01*
X21485750Y-46965000D01*
X21327000Y-47123750D01*
X21327000Y-48123000D01*
X21347000Y-48123000D01*
X21347000Y-48377000D01*
X21327000Y-48377000D01*
X21327000Y-49376250D01*
X21485750Y-49535000D01*
X22075000Y-49538072D01*
X22199482Y-49525812D01*
X22319180Y-49489502D01*
X22340001Y-49478373D01*
X22340001Y-49862657D01*
X22336323Y-49900000D01*
X22350997Y-50048986D01*
X22394454Y-50192247D01*
X22465026Y-50324276D01*
X22559999Y-50440001D01*
X22675724Y-50534974D01*
X22807753Y-50605546D01*
X22840756Y-50615557D01*
X24093831Y-51868632D01*
X24045506Y-51894463D01*
X23948815Y-51973815D01*
X23869463Y-52070506D01*
X23810498Y-52180820D01*
X23774188Y-52300518D01*
X23761928Y-52425000D01*
X23765000Y-52614250D01*
X23923750Y-52773000D01*
X24810500Y-52773000D01*
X24810500Y-52753000D01*
X25064500Y-52753000D01*
X25064500Y-52773000D01*
X25084500Y-52773000D01*
X25084500Y-53027000D01*
X25064500Y-53027000D01*
X25064500Y-53851250D01*
X25223250Y-54010000D01*
X25475000Y-54013072D01*
X25599482Y-54000812D01*
X25719180Y-53964502D01*
X25829494Y-53905537D01*
X25877394Y-53866226D01*
X26027433Y-53946423D01*
X26191684Y-53996248D01*
X26362500Y-54013072D01*
X26862127Y-54013072D01*
X26251503Y-54623696D01*
X26222499Y-54647499D01*
X26176334Y-54703752D01*
X26138098Y-54750342D01*
X26127433Y-54753577D01*
X25977394Y-54833774D01*
X25929494Y-54794463D01*
X25819180Y-54735498D01*
X25699482Y-54699188D01*
X25575000Y-54686928D01*
X25323250Y-54690000D01*
X25164500Y-54848750D01*
X25164500Y-55673000D01*
X25184500Y-55673000D01*
X25184500Y-55927000D01*
X25164500Y-55927000D01*
X25164500Y-56751250D01*
X25323250Y-56910000D01*
X25575000Y-56913072D01*
X25699482Y-56900812D01*
X25819180Y-56864502D01*
X25929494Y-56805537D01*
X25977394Y-56766226D01*
X26002500Y-56779646D01*
X26002500Y-57122698D01*
X25576064Y-57549135D01*
X25526746Y-57553992D01*
X25360150Y-57604528D01*
X25206614Y-57686595D01*
X25072038Y-57797038D01*
X25066658Y-57803594D01*
X25001185Y-57723815D01*
X24904494Y-57644463D01*
X24794180Y-57585498D01*
X24674482Y-57549188D01*
X24550000Y-57536928D01*
X24248250Y-57540000D01*
X24089500Y-57698750D01*
X24089500Y-58773000D01*
X24109500Y-58773000D01*
X24109500Y-59027000D01*
X24089500Y-59027000D01*
X24089500Y-60101250D01*
X24248250Y-60260000D01*
X24550000Y-60263072D01*
X24674482Y-60250812D01*
X24794180Y-60214502D01*
X24904494Y-60155537D01*
X25001185Y-60076185D01*
X25066658Y-59996406D01*
X25072038Y-60002962D01*
X25206614Y-60113405D01*
X25277500Y-60151295D01*
X25277501Y-60948705D01*
X25206614Y-60986595D01*
X25072038Y-61097038D01*
X25066658Y-61103594D01*
X25001185Y-61023815D01*
X24904494Y-60944463D01*
X24794180Y-60885498D01*
X24674482Y-60849188D01*
X24550000Y-60836928D01*
X24248250Y-60840000D01*
X24089500Y-60998750D01*
X24089500Y-62073000D01*
X24109500Y-62073000D01*
X24109500Y-62327000D01*
X24089500Y-62327000D01*
X24089500Y-63401250D01*
X24248250Y-63560000D01*
X24550000Y-63563072D01*
X24674482Y-63550812D01*
X24794180Y-63514502D01*
X24904494Y-63455537D01*
X25001185Y-63376185D01*
X25066658Y-63296406D01*
X25072038Y-63302962D01*
X25206614Y-63413405D01*
X25360150Y-63495472D01*
X25526746Y-63546008D01*
X25700000Y-63563072D01*
X26375000Y-63563072D01*
X26548254Y-63546008D01*
X26714850Y-63495472D01*
X26868386Y-63413405D01*
X27002962Y-63302962D01*
X27113405Y-63168386D01*
X27195472Y-63014850D01*
X27230311Y-62900000D01*
X28686928Y-62900000D01*
X28699188Y-63024482D01*
X28735498Y-63144180D01*
X28794463Y-63254494D01*
X28873815Y-63351185D01*
X28970506Y-63430537D01*
X29080820Y-63489502D01*
X29200518Y-63525812D01*
X29325000Y-63538072D01*
X29514250Y-63535000D01*
X29673000Y-63376250D01*
X29673000Y-62489500D01*
X29927000Y-62489500D01*
X29927000Y-63376250D01*
X30085750Y-63535000D01*
X30275000Y-63538072D01*
X30399482Y-63525812D01*
X30519180Y-63489502D01*
X30629494Y-63430537D01*
X30726185Y-63351185D01*
X30805537Y-63254494D01*
X30864502Y-63144180D01*
X30900812Y-63024482D01*
X30913072Y-62900000D01*
X31586928Y-62900000D01*
X31599188Y-63024482D01*
X31635498Y-63144180D01*
X31694463Y-63254494D01*
X31773815Y-63351185D01*
X31870506Y-63430537D01*
X31980820Y-63489502D01*
X32100518Y-63525812D01*
X32225000Y-63538072D01*
X32414250Y-63535000D01*
X32573000Y-63376250D01*
X32573000Y-62489500D01*
X32827000Y-62489500D01*
X32827000Y-63376250D01*
X32985750Y-63535000D01*
X33175000Y-63538072D01*
X33299482Y-63525812D01*
X33419180Y-63489502D01*
X33529494Y-63430537D01*
X33626185Y-63351185D01*
X33705537Y-63254494D01*
X33764502Y-63144180D01*
X33800812Y-63024482D01*
X33813072Y-62900000D01*
X33810000Y-62648250D01*
X33651250Y-62489500D01*
X32827000Y-62489500D01*
X32573000Y-62489500D01*
X31748750Y-62489500D01*
X31590000Y-62648250D01*
X31586928Y-62900000D01*
X30913072Y-62900000D01*
X30910000Y-62648250D01*
X30751250Y-62489500D01*
X29927000Y-62489500D01*
X29673000Y-62489500D01*
X28848750Y-62489500D01*
X28690000Y-62648250D01*
X28686928Y-62900000D01*
X27230311Y-62900000D01*
X27246008Y-62848254D01*
X27263072Y-62675000D01*
X27263072Y-61725000D01*
X27246008Y-61551746D01*
X27195472Y-61385150D01*
X27113405Y-61231614D01*
X27002962Y-61097038D01*
X26868386Y-60986595D01*
X26797500Y-60948706D01*
X26797500Y-60151294D01*
X26868386Y-60113405D01*
X27002962Y-60002962D01*
X27113405Y-59868386D01*
X27195472Y-59714850D01*
X27246008Y-59548254D01*
X27263072Y-59375000D01*
X27263072Y-58425000D01*
X27246008Y-58251746D01*
X27195472Y-58085150D01*
X27193445Y-58081357D01*
X27273504Y-58001298D01*
X27302501Y-57977501D01*
X27397474Y-57861776D01*
X27468046Y-57729747D01*
X27511503Y-57586486D01*
X27522500Y-57474833D01*
X27522500Y-57474823D01*
X27526176Y-57437500D01*
X27522500Y-57400177D01*
X27522500Y-56779645D01*
X27548942Y-56765512D01*
X27681623Y-56656623D01*
X27790512Y-56523942D01*
X27871423Y-56372567D01*
X27921248Y-56208316D01*
X27938072Y-56037500D01*
X27938072Y-55562500D01*
X27921248Y-55391684D01*
X27871423Y-55227433D01*
X27845628Y-55179173D01*
X28377084Y-54647717D01*
X28380000Y-54677322D01*
X28380000Y-54677332D01*
X28390997Y-54788985D01*
X28433341Y-54928577D01*
X28434454Y-54932246D01*
X28505026Y-55064276D01*
X28521439Y-55084275D01*
X28567082Y-55139891D01*
X28529528Y-55210149D01*
X28478992Y-55376745D01*
X28461928Y-55549999D01*
X28461928Y-56200001D01*
X28478992Y-56373255D01*
X28529528Y-56539851D01*
X28611595Y-56693387D01*
X28722038Y-56827962D01*
X28809816Y-56900000D01*
X28722038Y-56972038D01*
X28611595Y-57106613D01*
X28529528Y-57260149D01*
X28478992Y-57426745D01*
X28461928Y-57599999D01*
X28461928Y-58250001D01*
X28478992Y-58423255D01*
X28529528Y-58589851D01*
X28611595Y-58743387D01*
X28722038Y-58877962D01*
X28856613Y-58988405D01*
X29010149Y-59070472D01*
X29040000Y-59079527D01*
X29040001Y-59639080D01*
X28943377Y-59718377D01*
X28834488Y-59851058D01*
X28753577Y-60002433D01*
X28703752Y-60166684D01*
X28686928Y-60337500D01*
X28686928Y-60937500D01*
X28703752Y-61108316D01*
X28753577Y-61272567D01*
X28833774Y-61422606D01*
X28794463Y-61470506D01*
X28735498Y-61580820D01*
X28699188Y-61700518D01*
X28686928Y-61825000D01*
X28690000Y-62076750D01*
X28848750Y-62235500D01*
X29673000Y-62235500D01*
X29673000Y-62215500D01*
X29927000Y-62215500D01*
X29927000Y-62235500D01*
X30751250Y-62235500D01*
X30910000Y-62076750D01*
X30913072Y-61825000D01*
X30900812Y-61700518D01*
X30864502Y-61580820D01*
X30805537Y-61470506D01*
X30766226Y-61422606D01*
X30846423Y-61272567D01*
X30896248Y-61108316D01*
X30913072Y-60937500D01*
X30913072Y-60337500D01*
X30896248Y-60166684D01*
X30846423Y-60002433D01*
X30765512Y-59851058D01*
X30656623Y-59718377D01*
X30560000Y-59639080D01*
X30560000Y-59079527D01*
X30589851Y-59070472D01*
X30743387Y-58988405D01*
X30877962Y-58877962D01*
X30988405Y-58743387D01*
X31070472Y-58589851D01*
X31071944Y-58585000D01*
X32053822Y-58585000D01*
X32143377Y-58694123D01*
X32240000Y-58773420D01*
X32240001Y-59494430D01*
X32127433Y-59528577D01*
X31976058Y-59609488D01*
X31843377Y-59718377D01*
X31734488Y-59851058D01*
X31653577Y-60002433D01*
X31603752Y-60166684D01*
X31586928Y-60337500D01*
X31586928Y-60937500D01*
X31603752Y-61108316D01*
X31653577Y-61272567D01*
X31733774Y-61422606D01*
X31694463Y-61470506D01*
X31635498Y-61580820D01*
X31599188Y-61700518D01*
X31586928Y-61825000D01*
X31590000Y-62076750D01*
X31748750Y-62235500D01*
X32573000Y-62235500D01*
X32573000Y-62215500D01*
X32827000Y-62215500D01*
X32827000Y-62235500D01*
X33651250Y-62235500D01*
X33810000Y-62076750D01*
X33813072Y-61825000D01*
X33800812Y-61700518D01*
X33764502Y-61580820D01*
X33705537Y-61470506D01*
X33666226Y-61422606D01*
X33746423Y-61272567D01*
X33796248Y-61108316D01*
X33813072Y-60937500D01*
X33813072Y-60337500D01*
X33796248Y-60166684D01*
X33760000Y-60047190D01*
X33760000Y-58773420D01*
X33856623Y-58694123D01*
X33965512Y-58561442D01*
X34046423Y-58410067D01*
X34096248Y-58245816D01*
X34111918Y-58086720D01*
X34348701Y-58323503D01*
X34372499Y-58352501D01*
X34401497Y-58376299D01*
X34488223Y-58447474D01*
X34620253Y-58518046D01*
X34763514Y-58561503D01*
X34851945Y-58570213D01*
X34943377Y-58681623D01*
X35076058Y-58790512D01*
X35227433Y-58871423D01*
X35391684Y-58921248D01*
X35562500Y-58938072D01*
X36037500Y-58938072D01*
X36208316Y-58921248D01*
X36270303Y-58902444D01*
X35955943Y-59372918D01*
X35697006Y-59998048D01*
X35565000Y-60661682D01*
X35565000Y-61338318D01*
X35697006Y-62001952D01*
X35955943Y-62627082D01*
X36331862Y-63189685D01*
X36810315Y-63668138D01*
X37372918Y-64044057D01*
X37998048Y-64302994D01*
X38184088Y-64340000D01*
X17815912Y-64340000D01*
X18001952Y-64302994D01*
X18627082Y-64044057D01*
X19189685Y-63668138D01*
X19668138Y-63189685D01*
X19844994Y-62925000D01*
X22736928Y-62925000D01*
X22749188Y-63049482D01*
X22785498Y-63169180D01*
X22844463Y-63279494D01*
X22923815Y-63376185D01*
X23020506Y-63455537D01*
X23130820Y-63514502D01*
X23250518Y-63550812D01*
X23375000Y-63563072D01*
X23676750Y-63560000D01*
X23835500Y-63401250D01*
X23835500Y-62327000D01*
X22898750Y-62327000D01*
X22740000Y-62485750D01*
X22736928Y-62925000D01*
X19844994Y-62925000D01*
X20044057Y-62627082D01*
X20302994Y-62001952D01*
X20407812Y-61475000D01*
X22736928Y-61475000D01*
X22740000Y-61914250D01*
X22898750Y-62073000D01*
X23835500Y-62073000D01*
X23835500Y-60998750D01*
X23676750Y-60840000D01*
X23375000Y-60836928D01*
X23250518Y-60849188D01*
X23130820Y-60885498D01*
X23020506Y-60944463D01*
X22923815Y-61023815D01*
X22844463Y-61120506D01*
X22785498Y-61230820D01*
X22749188Y-61350518D01*
X22736928Y-61475000D01*
X20407812Y-61475000D01*
X20435000Y-61338318D01*
X20435000Y-60661682D01*
X20302994Y-59998048D01*
X20148473Y-59625000D01*
X22736928Y-59625000D01*
X22749188Y-59749482D01*
X22785498Y-59869180D01*
X22844463Y-59979494D01*
X22923815Y-60076185D01*
X23020506Y-60155537D01*
X23130820Y-60214502D01*
X23250518Y-60250812D01*
X23375000Y-60263072D01*
X23676750Y-60260000D01*
X23835500Y-60101250D01*
X23835500Y-59027000D01*
X22898750Y-59027000D01*
X22740000Y-59185750D01*
X22736928Y-59625000D01*
X20148473Y-59625000D01*
X20044057Y-59372918D01*
X19668138Y-58810315D01*
X19189685Y-58331862D01*
X18954925Y-58175000D01*
X22736928Y-58175000D01*
X22740000Y-58614250D01*
X22898750Y-58773000D01*
X23835500Y-58773000D01*
X23835500Y-57698750D01*
X23676750Y-57540000D01*
X23375000Y-57536928D01*
X23250518Y-57549188D01*
X23130820Y-57585498D01*
X23020506Y-57644463D01*
X22923815Y-57723815D01*
X22844463Y-57820506D01*
X22785498Y-57930820D01*
X22749188Y-58050518D01*
X22736928Y-58175000D01*
X18954925Y-58175000D01*
X18627082Y-57955943D01*
X18001952Y-57697006D01*
X17338318Y-57565000D01*
X16661682Y-57565000D01*
X15998048Y-57697006D01*
X15372918Y-57955943D01*
X14810315Y-58331862D01*
X14331862Y-58810315D01*
X13955943Y-59372918D01*
X13697006Y-59998048D01*
X13660000Y-60184088D01*
X13660000Y-56275000D01*
X23861928Y-56275000D01*
X23874188Y-56399482D01*
X23910498Y-56519180D01*
X23969463Y-56629494D01*
X24048815Y-56726185D01*
X24145506Y-56805537D01*
X24255820Y-56864502D01*
X24375518Y-56900812D01*
X24500000Y-56913072D01*
X24751750Y-56910000D01*
X24910500Y-56751250D01*
X24910500Y-55927000D01*
X24023750Y-55927000D01*
X23865000Y-56085750D01*
X23861928Y-56275000D01*
X13660000Y-56275000D01*
X13660000Y-54600000D01*
X18484025Y-54600000D01*
X18507870Y-54842102D01*
X18578489Y-55074901D01*
X18693167Y-55289449D01*
X18847498Y-55477502D01*
X19035551Y-55631833D01*
X19250099Y-55746511D01*
X19482898Y-55817130D01*
X19664335Y-55835000D01*
X20335665Y-55835000D01*
X20517102Y-55817130D01*
X20749901Y-55746511D01*
X20964449Y-55631833D01*
X21152502Y-55477502D01*
X21277657Y-55325000D01*
X23861928Y-55325000D01*
X23865000Y-55514250D01*
X24023750Y-55673000D01*
X24910500Y-55673000D01*
X24910500Y-54848750D01*
X24751750Y-54690000D01*
X24500000Y-54686928D01*
X24375518Y-54699188D01*
X24255820Y-54735498D01*
X24145506Y-54794463D01*
X24048815Y-54873815D01*
X23969463Y-54970506D01*
X23910498Y-55080820D01*
X23874188Y-55200518D01*
X23861928Y-55325000D01*
X21277657Y-55325000D01*
X21306833Y-55289449D01*
X21421511Y-55074901D01*
X21492130Y-54842102D01*
X21515975Y-54600000D01*
X21492130Y-54357898D01*
X21421511Y-54125099D01*
X21306833Y-53910551D01*
X21180564Y-53756691D01*
X21229494Y-53730537D01*
X21326185Y-53651185D01*
X21405537Y-53554494D01*
X21464502Y-53444180D01*
X21485487Y-53375000D01*
X23761928Y-53375000D01*
X23774188Y-53499482D01*
X23810498Y-53619180D01*
X23869463Y-53729494D01*
X23948815Y-53826185D01*
X24045506Y-53905537D01*
X24155820Y-53964502D01*
X24275518Y-54000812D01*
X24400000Y-54013072D01*
X24651750Y-54010000D01*
X24810500Y-53851250D01*
X24810500Y-53027000D01*
X23923750Y-53027000D01*
X23765000Y-53185750D01*
X23761928Y-53375000D01*
X21485487Y-53375000D01*
X21500812Y-53324482D01*
X21513072Y-53200000D01*
X21510000Y-52885750D01*
X21351250Y-52727000D01*
X20127000Y-52727000D01*
X20127000Y-52747000D01*
X19873000Y-52747000D01*
X19873000Y-52727000D01*
X18648750Y-52727000D01*
X18490000Y-52885750D01*
X18486928Y-53200000D01*
X18499188Y-53324482D01*
X18535498Y-53444180D01*
X18594463Y-53554494D01*
X18673815Y-53651185D01*
X18770506Y-53730537D01*
X18819436Y-53756691D01*
X18693167Y-53910551D01*
X18578489Y-54125099D01*
X18507870Y-54357898D01*
X18484025Y-54600000D01*
X13660000Y-54600000D01*
X13660000Y-52000000D01*
X18486928Y-52000000D01*
X18490000Y-52314250D01*
X18648750Y-52473000D01*
X19873000Y-52473000D01*
X19873000Y-51523750D01*
X20127000Y-51523750D01*
X20127000Y-52473000D01*
X21351250Y-52473000D01*
X21510000Y-52314250D01*
X21513072Y-52000000D01*
X21500812Y-51875518D01*
X21464502Y-51755820D01*
X21405537Y-51645506D01*
X21326185Y-51548815D01*
X21229494Y-51469463D01*
X21119180Y-51410498D01*
X20999482Y-51374188D01*
X20875000Y-51361928D01*
X20285750Y-51365000D01*
X20127000Y-51523750D01*
X19873000Y-51523750D01*
X19714250Y-51365000D01*
X19125000Y-51361928D01*
X19000518Y-51374188D01*
X18880820Y-51410498D01*
X18770506Y-51469463D01*
X18673815Y-51548815D01*
X18594463Y-51645506D01*
X18535498Y-51755820D01*
X18499188Y-51875518D01*
X18486928Y-52000000D01*
X13660000Y-52000000D01*
X13660000Y-26000000D01*
X14886928Y-26000000D01*
X14899188Y-26124482D01*
X14935498Y-26244180D01*
X14994463Y-26354494D01*
X15073815Y-26451185D01*
X15170506Y-26530537D01*
X15280820Y-26589502D01*
X15400518Y-26625812D01*
X15525000Y-26638072D01*
X15714250Y-26635000D01*
X15873000Y-26476250D01*
X15873000Y-25589500D01*
X16127000Y-25589500D01*
X16127000Y-26476250D01*
X16285750Y-26635000D01*
X16475000Y-26638072D01*
X16599482Y-26625812D01*
X16719180Y-26589502D01*
X16829494Y-26530537D01*
X16926185Y-26451185D01*
X17005537Y-26354494D01*
X17064502Y-26244180D01*
X17100812Y-26124482D01*
X17113072Y-26000000D01*
X17110000Y-25748250D01*
X16951250Y-25589500D01*
X16127000Y-25589500D01*
X15873000Y-25589500D01*
X15048750Y-25589500D01*
X14890000Y-25748250D01*
X14886928Y-26000000D01*
X13660000Y-26000000D01*
X13660000Y-19815912D01*
X13697006Y-20001952D01*
X13955943Y-20627082D01*
X14331862Y-21189685D01*
X14810315Y-21668138D01*
X15372918Y-22044057D01*
X15998048Y-22302994D01*
X16661682Y-22435000D01*
X17338318Y-22435000D01*
X18001952Y-22302994D01*
X18627082Y-22044057D01*
X19189685Y-21668138D01*
X19668138Y-21189685D01*
X20044057Y-20627082D01*
X20302994Y-20001952D01*
X20435000Y-19338318D01*
X20435000Y-18661682D01*
X20302994Y-17998048D01*
X20044057Y-17372918D01*
X19668138Y-16810315D01*
X19189685Y-16331862D01*
X18627082Y-15955943D01*
X18001952Y-15697006D01*
X17815912Y-15660000D01*
X38184088Y-15660000D01*
X37998048Y-15697006D01*
G37*
%TD.AperFunction*%
D24*
X30799153Y-54752403D02*
X30831750Y-54785000D01*
X30900000Y-54777181D01*
X30907954Y-54778092D01*
X30910997Y-54808985D01*
X30949374Y-54935498D01*
X30954454Y-54952246D01*
X31025026Y-55084276D01*
X31063271Y-55130877D01*
X31119999Y-55200001D01*
X31149003Y-55223804D01*
X31886928Y-55961730D01*
X31886928Y-56250000D01*
X31903752Y-56420816D01*
X31953577Y-56585067D01*
X32034488Y-56736442D01*
X32143377Y-56869123D01*
X32196232Y-56912500D01*
X32143377Y-56955877D01*
X32053822Y-57065000D01*
X30954254Y-57065000D01*
X30877962Y-56972038D01*
X30790184Y-56900000D01*
X30877962Y-56827962D01*
X30988405Y-56693387D01*
X31070472Y-56539851D01*
X31121008Y-56373255D01*
X31138072Y-56200001D01*
X31138072Y-55549999D01*
X31121008Y-55376745D01*
X31070472Y-55210149D01*
X30988405Y-55056613D01*
X30877962Y-54922038D01*
X30743387Y-54811595D01*
X30693631Y-54785000D01*
X30777002Y-54785000D01*
X30777002Y-54745104D01*
X30799153Y-54752403D01*
%TA.AperFunction,Conductor*%
D25*
G36*
X30799153Y-54752403D02*
G01*
X30831750Y-54785000D01*
X30900000Y-54777181D01*
X30907954Y-54778092D01*
X30910997Y-54808985D01*
X30949374Y-54935498D01*
X30954454Y-54952246D01*
X31025026Y-55084276D01*
X31063271Y-55130877D01*
X31119999Y-55200001D01*
X31149003Y-55223804D01*
X31886928Y-55961730D01*
X31886928Y-56250000D01*
X31903752Y-56420816D01*
X31953577Y-56585067D01*
X32034488Y-56736442D01*
X32143377Y-56869123D01*
X32196232Y-56912500D01*
X32143377Y-56955877D01*
X32053822Y-57065000D01*
X30954254Y-57065000D01*
X30877962Y-56972038D01*
X30790184Y-56900000D01*
X30877962Y-56827962D01*
X30988405Y-56693387D01*
X31070472Y-56539851D01*
X31121008Y-56373255D01*
X31138072Y-56200001D01*
X31138072Y-55549999D01*
X31121008Y-55376745D01*
X31070472Y-55210149D01*
X30988405Y-55056613D01*
X30877962Y-54922038D01*
X30743387Y-54811595D01*
X30693631Y-54785000D01*
X30777002Y-54785000D01*
X30777002Y-54745104D01*
X30799153Y-54752403D01*
G37*
%TD.AperFunction*%
D24*
X38123812Y-46932783D02*
X38073815Y-46973815D01*
X37994463Y-47070506D01*
X37935498Y-47180820D01*
X37899188Y-47300518D01*
X37886928Y-47425000D01*
X37890000Y-47626750D01*
X38048750Y-47785500D01*
X38873000Y-47785500D01*
X38873000Y-47765500D01*
X39127000Y-47765500D01*
X39127000Y-47785500D01*
X39147000Y-47785500D01*
X39147000Y-48039500D01*
X39127000Y-48039500D01*
X39127000Y-48876250D01*
X39285750Y-49035000D01*
X39388530Y-49036668D01*
X38985199Y-49440000D01*
X38727429Y-49440000D01*
X38735000Y-49401939D01*
X38735000Y-49198061D01*
X38702603Y-49035189D01*
X38714250Y-49035000D01*
X38873000Y-48876250D01*
X38873000Y-48039500D01*
X38048750Y-48039500D01*
X37890000Y-48198250D01*
X37888721Y-48282262D01*
X37801939Y-48265000D01*
X37598061Y-48265000D01*
X37398102Y-48304774D01*
X37209744Y-48382795D01*
X37048571Y-48490487D01*
X37096248Y-48333316D01*
X37113072Y-48162500D01*
X37113072Y-47662500D01*
X37096248Y-47491684D01*
X37046423Y-47327433D01*
X36965512Y-47176058D01*
X36856623Y-47043377D01*
X36803768Y-47000000D01*
X36856623Y-46956623D01*
X36946178Y-46847500D01*
X38053822Y-46847500D01*
X38123812Y-46932783D01*
%TA.AperFunction,Conductor*%
D25*
G36*
X38123812Y-46932783D02*
G01*
X38073815Y-46973815D01*
X37994463Y-47070506D01*
X37935498Y-47180820D01*
X37899188Y-47300518D01*
X37886928Y-47425000D01*
X37890000Y-47626750D01*
X38048750Y-47785500D01*
X38873000Y-47785500D01*
X38873000Y-47765500D01*
X39127000Y-47765500D01*
X39127000Y-47785500D01*
X39147000Y-47785500D01*
X39147000Y-48039500D01*
X39127000Y-48039500D01*
X39127000Y-48876250D01*
X39285750Y-49035000D01*
X39388530Y-49036668D01*
X38985199Y-49440000D01*
X38727429Y-49440000D01*
X38735000Y-49401939D01*
X38735000Y-49198061D01*
X38702603Y-49035189D01*
X38714250Y-49035000D01*
X38873000Y-48876250D01*
X38873000Y-48039500D01*
X38048750Y-48039500D01*
X37890000Y-48198250D01*
X37888721Y-48282262D01*
X37801939Y-48265000D01*
X37598061Y-48265000D01*
X37398102Y-48304774D01*
X37209744Y-48382795D01*
X37048571Y-48490487D01*
X37096248Y-48333316D01*
X37113072Y-48162500D01*
X37113072Y-47662500D01*
X37096248Y-47491684D01*
X37046423Y-47327433D01*
X36965512Y-47176058D01*
X36856623Y-47043377D01*
X36803768Y-47000000D01*
X36856623Y-46956623D01*
X36946178Y-46847500D01*
X38053822Y-46847500D01*
X38123812Y-46932783D01*
G37*
%TD.AperFunction*%
D24*
X39640000Y-45064621D02*
X39572567Y-45028577D01*
X39408316Y-44978752D01*
X39237500Y-44961928D01*
X38762500Y-44961928D01*
X38591684Y-44978752D01*
X38427433Y-45028577D01*
X38276058Y-45109488D01*
X38143377Y-45218377D01*
X38053822Y-45327500D01*
X36946178Y-45327500D01*
X36856623Y-45218377D01*
X36723942Y-45109488D01*
X36572567Y-45028577D01*
X36408316Y-44978752D01*
X36237500Y-44961928D01*
X35762500Y-44961928D01*
X35591684Y-44978752D01*
X35427433Y-45028577D01*
X35276058Y-45109488D01*
X35143377Y-45218377D01*
X35034488Y-45351058D01*
X34953577Y-45502433D01*
X34903752Y-45666684D01*
X34886928Y-45837500D01*
X34886928Y-46337500D01*
X34903752Y-46508316D01*
X34953577Y-46672567D01*
X35034488Y-46823942D01*
X35143377Y-46956623D01*
X35196232Y-47000000D01*
X35143377Y-47043377D01*
X35053822Y-47152500D01*
X33946178Y-47152500D01*
X33856623Y-47043377D01*
X33803768Y-47000000D01*
X33856623Y-46956623D01*
X33965512Y-46823942D01*
X34046423Y-46672567D01*
X34096248Y-46508316D01*
X34113072Y-46337500D01*
X34113072Y-45837500D01*
X34096248Y-45666684D01*
X34046423Y-45502433D01*
X33965512Y-45351058D01*
X33856623Y-45218377D01*
X33723942Y-45109488D01*
X33572567Y-45028577D01*
X33408316Y-44978752D01*
X33237500Y-44961928D01*
X32762500Y-44961928D01*
X32591684Y-44978752D01*
X32539153Y-44994687D01*
X32580546Y-44917247D01*
X32624003Y-44773986D01*
X32635000Y-44662333D01*
X32635000Y-44662325D01*
X32638676Y-44625000D01*
X32635000Y-44587675D01*
X32635000Y-44523401D01*
X32656890Y-44482448D01*
X32698890Y-44343991D01*
X32713072Y-44200000D01*
X32713072Y-43187873D01*
X33736201Y-44211003D01*
X33759999Y-44240001D01*
X33875724Y-44334974D01*
X34007753Y-44405546D01*
X34151014Y-44449003D01*
X34262667Y-44460000D01*
X34262675Y-44460000D01*
X34300000Y-44463676D01*
X34337325Y-44460000D01*
X37362678Y-44460000D01*
X37400000Y-44463676D01*
X37437322Y-44460000D01*
X37437333Y-44460000D01*
X37548986Y-44449003D01*
X37692247Y-44405546D01*
X37824276Y-44334974D01*
X37940001Y-44240001D01*
X37963804Y-44210997D01*
X39511004Y-42663798D01*
X39540001Y-42640001D01*
X39634974Y-42524276D01*
X39640001Y-42514872D01*
X39640000Y-45064621D01*
%TA.AperFunction,Conductor*%
D25*
G36*
X39640000Y-45064621D02*
G01*
X39572567Y-45028577D01*
X39408316Y-44978752D01*
X39237500Y-44961928D01*
X38762500Y-44961928D01*
X38591684Y-44978752D01*
X38427433Y-45028577D01*
X38276058Y-45109488D01*
X38143377Y-45218377D01*
X38053822Y-45327500D01*
X36946178Y-45327500D01*
X36856623Y-45218377D01*
X36723942Y-45109488D01*
X36572567Y-45028577D01*
X36408316Y-44978752D01*
X36237500Y-44961928D01*
X35762500Y-44961928D01*
X35591684Y-44978752D01*
X35427433Y-45028577D01*
X35276058Y-45109488D01*
X35143377Y-45218377D01*
X35034488Y-45351058D01*
X34953577Y-45502433D01*
X34903752Y-45666684D01*
X34886928Y-45837500D01*
X34886928Y-46337500D01*
X34903752Y-46508316D01*
X34953577Y-46672567D01*
X35034488Y-46823942D01*
X35143377Y-46956623D01*
X35196232Y-47000000D01*
X35143377Y-47043377D01*
X35053822Y-47152500D01*
X33946178Y-47152500D01*
X33856623Y-47043377D01*
X33803768Y-47000000D01*
X33856623Y-46956623D01*
X33965512Y-46823942D01*
X34046423Y-46672567D01*
X34096248Y-46508316D01*
X34113072Y-46337500D01*
X34113072Y-45837500D01*
X34096248Y-45666684D01*
X34046423Y-45502433D01*
X33965512Y-45351058D01*
X33856623Y-45218377D01*
X33723942Y-45109488D01*
X33572567Y-45028577D01*
X33408316Y-44978752D01*
X33237500Y-44961928D01*
X32762500Y-44961928D01*
X32591684Y-44978752D01*
X32539153Y-44994687D01*
X32580546Y-44917247D01*
X32624003Y-44773986D01*
X32635000Y-44662333D01*
X32635000Y-44662325D01*
X32638676Y-44625000D01*
X32635000Y-44587675D01*
X32635000Y-44523401D01*
X32656890Y-44482448D01*
X32698890Y-44343991D01*
X32713072Y-44200000D01*
X32713072Y-43187873D01*
X33736201Y-44211003D01*
X33759999Y-44240001D01*
X33875724Y-44334974D01*
X34007753Y-44405546D01*
X34151014Y-44449003D01*
X34262667Y-44460000D01*
X34262675Y-44460000D01*
X34300000Y-44463676D01*
X34337325Y-44460000D01*
X37362678Y-44460000D01*
X37400000Y-44463676D01*
X37437322Y-44460000D01*
X37437333Y-44460000D01*
X37548986Y-44449003D01*
X37692247Y-44405546D01*
X37824276Y-44334974D01*
X37940001Y-44240001D01*
X37963804Y-44210997D01*
X39511004Y-42663798D01*
X39540001Y-42640001D01*
X39634974Y-42524276D01*
X39640001Y-42514872D01*
X39640000Y-45064621D01*
G37*
%TD.AperFunction*%
D24*
X30127000Y-46010500D02*
X30147000Y-46010500D01*
X30147000Y-46264500D01*
X30127000Y-46264500D01*
X30127000Y-46284500D01*
X29873000Y-46284500D01*
X29873000Y-46264500D01*
X29853000Y-46264500D01*
X29853000Y-46010500D01*
X29873000Y-46010500D01*
X29873000Y-45990500D01*
X30127000Y-45990500D01*
X30127000Y-46010500D01*
%TA.AperFunction,Conductor*%
D25*
G36*
X30127000Y-46010500D02*
G01*
X30147000Y-46010500D01*
X30147000Y-46264500D01*
X30127000Y-46264500D01*
X30127000Y-46284500D01*
X29873000Y-46284500D01*
X29873000Y-46264500D01*
X29853000Y-46264500D01*
X29853000Y-46010500D01*
X29873000Y-46010500D01*
X29873000Y-45990500D01*
X30127000Y-45990500D01*
X30127000Y-46010500D01*
G37*
%TD.AperFunction*%
D24*
X24153577Y-35797567D02*
X24234488Y-35948942D01*
X24343377Y-36081623D01*
X24476058Y-36190512D01*
X24627433Y-36271423D01*
X24791684Y-36321248D01*
X24962500Y-36338072D01*
X25363271Y-36338072D01*
X25820280Y-36795081D01*
X25737500Y-36786928D01*
X25237500Y-36786928D01*
X25066684Y-36803752D01*
X24902433Y-36853577D01*
X24751058Y-36934488D01*
X24618377Y-37043377D01*
X24509488Y-37176058D01*
X24428577Y-37327433D01*
X24378752Y-37491684D01*
X24361928Y-37662500D01*
X24361928Y-38137500D01*
X24378752Y-38308316D01*
X24428577Y-38472567D01*
X24509488Y-38623942D01*
X24618377Y-38756623D01*
X24751058Y-38865512D01*
X24783660Y-38882938D01*
X24852526Y-39011776D01*
X24853590Y-39013072D01*
X24947499Y-39127501D01*
X24976502Y-39151303D01*
X25165198Y-39340000D01*
X24237322Y-39340000D01*
X24200000Y-39336324D01*
X24162677Y-39340000D01*
X24162667Y-39340000D01*
X24051014Y-39350997D01*
X23915032Y-39392246D01*
X23907753Y-39394454D01*
X23775723Y-39465026D01*
X23702525Y-39525099D01*
X23659999Y-39559999D01*
X23636201Y-39588997D01*
X22288998Y-40936201D01*
X22260000Y-40959999D01*
X22236202Y-40988997D01*
X22236201Y-40988998D01*
X22165026Y-41075724D01*
X22094454Y-41207754D01*
X22073899Y-41275518D01*
X22050998Y-41351014D01*
X22046719Y-41394463D01*
X22036324Y-41500000D01*
X22040001Y-41537332D01*
X22040000Y-43235198D01*
X21413271Y-43861928D01*
X20575000Y-43861928D01*
X20401746Y-43878992D01*
X20235150Y-43929528D01*
X20081614Y-44011595D01*
X19947038Y-44122038D01*
X19836595Y-44256614D01*
X19754528Y-44410150D01*
X19703992Y-44576746D01*
X19688210Y-44736989D01*
X18813072Y-45612126D01*
X18813072Y-44170000D01*
X18800812Y-44045518D01*
X18764502Y-43925820D01*
X18705537Y-43815506D01*
X18626185Y-43718815D01*
X18610000Y-43705532D01*
X18610000Y-42900000D01*
X19786928Y-42900000D01*
X19799188Y-43024482D01*
X19835498Y-43144180D01*
X19894463Y-43254494D01*
X19973815Y-43351185D01*
X20070506Y-43430537D01*
X20180820Y-43489502D01*
X20300518Y-43525812D01*
X20425000Y-43538072D01*
X20614250Y-43535000D01*
X20773000Y-43376250D01*
X20773000Y-42539500D01*
X21027000Y-42539500D01*
X21027000Y-43376250D01*
X21185750Y-43535000D01*
X21375000Y-43538072D01*
X21499482Y-43525812D01*
X21619180Y-43489502D01*
X21729494Y-43430537D01*
X21826185Y-43351185D01*
X21905537Y-43254494D01*
X21964502Y-43144180D01*
X22000812Y-43024482D01*
X22013072Y-42900000D01*
X22010000Y-42698250D01*
X21851250Y-42539500D01*
X21027000Y-42539500D01*
X20773000Y-42539500D01*
X19948750Y-42539500D01*
X19790000Y-42698250D01*
X19786928Y-42900000D01*
X18610000Y-42900000D01*
X18610000Y-42294468D01*
X18626185Y-42281185D01*
X18705537Y-42184494D01*
X18764502Y-42074180D01*
X18800812Y-41954482D01*
X18813072Y-41830000D01*
X18813072Y-41187874D01*
X19023701Y-41398503D01*
X19047499Y-41427501D01*
X19076497Y-41451299D01*
X19163224Y-41522474D01*
X19295253Y-41593046D01*
X19438514Y-41636503D01*
X19587500Y-41651177D01*
X19624833Y-41647500D01*
X19853308Y-41647500D01*
X19835498Y-41680820D01*
X19799188Y-41800518D01*
X19786928Y-41925000D01*
X19790000Y-42126750D01*
X19948750Y-42285500D01*
X20773000Y-42285500D01*
X20773000Y-42265500D01*
X21027000Y-42265500D01*
X21027000Y-42285500D01*
X21851250Y-42285500D01*
X22010000Y-42126750D01*
X22013072Y-41925000D01*
X22000812Y-41800518D01*
X21964502Y-41680820D01*
X21905537Y-41570506D01*
X21826185Y-41473815D01*
X21776188Y-41432783D01*
X21865512Y-41323942D01*
X21946423Y-41172567D01*
X21996248Y-41008316D01*
X22013072Y-40837500D01*
X22013072Y-40337500D01*
X21996248Y-40166684D01*
X21946423Y-40002433D01*
X21865512Y-39851058D01*
X21756623Y-39718377D01*
X21623942Y-39609488D01*
X21472567Y-39528577D01*
X21308316Y-39478752D01*
X21137500Y-39461928D01*
X20662500Y-39461928D01*
X20491684Y-39478752D01*
X20327433Y-39528577D01*
X20176058Y-39609488D01*
X20043377Y-39718377D01*
X19934488Y-39851058D01*
X19853577Y-40002433D01*
X19835809Y-40061007D01*
X18963804Y-39189003D01*
X18940001Y-39159999D01*
X18824276Y-39065026D01*
X18813072Y-39059037D01*
X18813072Y-37760000D01*
X19472699Y-37760000D01*
X19761928Y-38049229D01*
X19761928Y-38337500D01*
X19778752Y-38508316D01*
X19828577Y-38672567D01*
X19909488Y-38823942D01*
X20018377Y-38956623D01*
X20151058Y-39065512D01*
X20302433Y-39146423D01*
X20466684Y-39196248D01*
X20637500Y-39213072D01*
X21137500Y-39213072D01*
X21308316Y-39196248D01*
X21472567Y-39146423D01*
X21623942Y-39065512D01*
X21756623Y-38956623D01*
X21800000Y-38903768D01*
X21843377Y-38956623D01*
X21976058Y-39065512D01*
X22127433Y-39146423D01*
X22291684Y-39196248D01*
X22462500Y-39213072D01*
X22962500Y-39213072D01*
X23133316Y-39196248D01*
X23297567Y-39146423D01*
X23448942Y-39065512D01*
X23581623Y-38956623D01*
X23690512Y-38823942D01*
X23771423Y-38672567D01*
X23821248Y-38508316D01*
X23838072Y-38337500D01*
X23838072Y-37862500D01*
X23821248Y-37691684D01*
X23771423Y-37527433D01*
X23690512Y-37376058D01*
X23581623Y-37243377D01*
X23472500Y-37153822D01*
X23472500Y-36302301D01*
X24112534Y-35662267D01*
X24153577Y-35797567D01*
%TA.AperFunction,Conductor*%
D25*
G36*
X24153577Y-35797567D02*
G01*
X24234488Y-35948942D01*
X24343377Y-36081623D01*
X24476058Y-36190512D01*
X24627433Y-36271423D01*
X24791684Y-36321248D01*
X24962500Y-36338072D01*
X25363271Y-36338072D01*
X25820280Y-36795081D01*
X25737500Y-36786928D01*
X25237500Y-36786928D01*
X25066684Y-36803752D01*
X24902433Y-36853577D01*
X24751058Y-36934488D01*
X24618377Y-37043377D01*
X24509488Y-37176058D01*
X24428577Y-37327433D01*
X24378752Y-37491684D01*
X24361928Y-37662500D01*
X24361928Y-38137500D01*
X24378752Y-38308316D01*
X24428577Y-38472567D01*
X24509488Y-38623942D01*
X24618377Y-38756623D01*
X24751058Y-38865512D01*
X24783660Y-38882938D01*
X24852526Y-39011776D01*
X24853590Y-39013072D01*
X24947499Y-39127501D01*
X24976502Y-39151303D01*
X25165198Y-39340000D01*
X24237322Y-39340000D01*
X24200000Y-39336324D01*
X24162677Y-39340000D01*
X24162667Y-39340000D01*
X24051014Y-39350997D01*
X23915032Y-39392246D01*
X23907753Y-39394454D01*
X23775723Y-39465026D01*
X23702525Y-39525099D01*
X23659999Y-39559999D01*
X23636201Y-39588997D01*
X22288998Y-40936201D01*
X22260000Y-40959999D01*
X22236202Y-40988997D01*
X22236201Y-40988998D01*
X22165026Y-41075724D01*
X22094454Y-41207754D01*
X22073899Y-41275518D01*
X22050998Y-41351014D01*
X22046719Y-41394463D01*
X22036324Y-41500000D01*
X22040001Y-41537332D01*
X22040000Y-43235198D01*
X21413271Y-43861928D01*
X20575000Y-43861928D01*
X20401746Y-43878992D01*
X20235150Y-43929528D01*
X20081614Y-44011595D01*
X19947038Y-44122038D01*
X19836595Y-44256614D01*
X19754528Y-44410150D01*
X19703992Y-44576746D01*
X19688210Y-44736989D01*
X18813072Y-45612126D01*
X18813072Y-44170000D01*
X18800812Y-44045518D01*
X18764502Y-43925820D01*
X18705537Y-43815506D01*
X18626185Y-43718815D01*
X18610000Y-43705532D01*
X18610000Y-42900000D01*
X19786928Y-42900000D01*
X19799188Y-43024482D01*
X19835498Y-43144180D01*
X19894463Y-43254494D01*
X19973815Y-43351185D01*
X20070506Y-43430537D01*
X20180820Y-43489502D01*
X20300518Y-43525812D01*
X20425000Y-43538072D01*
X20614250Y-43535000D01*
X20773000Y-43376250D01*
X20773000Y-42539500D01*
X21027000Y-42539500D01*
X21027000Y-43376250D01*
X21185750Y-43535000D01*
X21375000Y-43538072D01*
X21499482Y-43525812D01*
X21619180Y-43489502D01*
X21729494Y-43430537D01*
X21826185Y-43351185D01*
X21905537Y-43254494D01*
X21964502Y-43144180D01*
X22000812Y-43024482D01*
X22013072Y-42900000D01*
X22010000Y-42698250D01*
X21851250Y-42539500D01*
X21027000Y-42539500D01*
X20773000Y-42539500D01*
X19948750Y-42539500D01*
X19790000Y-42698250D01*
X19786928Y-42900000D01*
X18610000Y-42900000D01*
X18610000Y-42294468D01*
X18626185Y-42281185D01*
X18705537Y-42184494D01*
X18764502Y-42074180D01*
X18800812Y-41954482D01*
X18813072Y-41830000D01*
X18813072Y-41187874D01*
X19023701Y-41398503D01*
X19047499Y-41427501D01*
X19076497Y-41451299D01*
X19163224Y-41522474D01*
X19295253Y-41593046D01*
X19438514Y-41636503D01*
X19587500Y-41651177D01*
X19624833Y-41647500D01*
X19853308Y-41647500D01*
X19835498Y-41680820D01*
X19799188Y-41800518D01*
X19786928Y-41925000D01*
X19790000Y-42126750D01*
X19948750Y-42285500D01*
X20773000Y-42285500D01*
X20773000Y-42265500D01*
X21027000Y-42265500D01*
X21027000Y-42285500D01*
X21851250Y-42285500D01*
X22010000Y-42126750D01*
X22013072Y-41925000D01*
X22000812Y-41800518D01*
X21964502Y-41680820D01*
X21905537Y-41570506D01*
X21826185Y-41473815D01*
X21776188Y-41432783D01*
X21865512Y-41323942D01*
X21946423Y-41172567D01*
X21996248Y-41008316D01*
X22013072Y-40837500D01*
X22013072Y-40337500D01*
X21996248Y-40166684D01*
X21946423Y-40002433D01*
X21865512Y-39851058D01*
X21756623Y-39718377D01*
X21623942Y-39609488D01*
X21472567Y-39528577D01*
X21308316Y-39478752D01*
X21137500Y-39461928D01*
X20662500Y-39461928D01*
X20491684Y-39478752D01*
X20327433Y-39528577D01*
X20176058Y-39609488D01*
X20043377Y-39718377D01*
X19934488Y-39851058D01*
X19853577Y-40002433D01*
X19835809Y-40061007D01*
X18963804Y-39189003D01*
X18940001Y-39159999D01*
X18824276Y-39065026D01*
X18813072Y-39059037D01*
X18813072Y-37760000D01*
X19472699Y-37760000D01*
X19761928Y-38049229D01*
X19761928Y-38337500D01*
X19778752Y-38508316D01*
X19828577Y-38672567D01*
X19909488Y-38823942D01*
X20018377Y-38956623D01*
X20151058Y-39065512D01*
X20302433Y-39146423D01*
X20466684Y-39196248D01*
X20637500Y-39213072D01*
X21137500Y-39213072D01*
X21308316Y-39196248D01*
X21472567Y-39146423D01*
X21623942Y-39065512D01*
X21756623Y-38956623D01*
X21800000Y-38903768D01*
X21843377Y-38956623D01*
X21976058Y-39065512D01*
X22127433Y-39146423D01*
X22291684Y-39196248D01*
X22462500Y-39213072D01*
X22962500Y-39213072D01*
X23133316Y-39196248D01*
X23297567Y-39146423D01*
X23448942Y-39065512D01*
X23581623Y-38956623D01*
X23690512Y-38823942D01*
X23771423Y-38672567D01*
X23821248Y-38508316D01*
X23838072Y-38337500D01*
X23838072Y-37862500D01*
X23821248Y-37691684D01*
X23771423Y-37527433D01*
X23690512Y-37376058D01*
X23581623Y-37243377D01*
X23472500Y-37153822D01*
X23472500Y-36302301D01*
X24112534Y-35662267D01*
X24153577Y-35797567D01*
G37*
%TD.AperFunction*%
D24*
X38649927Y-37024729D02*
X38509744Y-37082795D01*
X38340226Y-37196063D01*
X38196063Y-37340226D01*
X38082795Y-37509744D01*
X38004774Y-37698102D01*
X37965000Y-37898061D01*
X37965000Y-38101939D01*
X38004774Y-38301898D01*
X38082795Y-38490256D01*
X38196063Y-38659774D01*
X38240001Y-38703712D01*
X38240000Y-41785198D01*
X37512221Y-42512977D01*
X37510000Y-42285750D01*
X37351250Y-42127000D01*
X36127000Y-42127000D01*
X36127000Y-42147000D01*
X35873000Y-42147000D01*
X35873000Y-42127000D01*
X34648750Y-42127000D01*
X34490000Y-42285750D01*
X34486928Y-42600000D01*
X34499188Y-42724482D01*
X34535498Y-42844180D01*
X34554464Y-42879662D01*
X32963804Y-41289003D01*
X32940001Y-41259999D01*
X32824276Y-41165026D01*
X32692247Y-41094454D01*
X32548986Y-41050997D01*
X32437333Y-41040000D01*
X32437322Y-41040000D01*
X32400000Y-41036324D01*
X32362678Y-41040000D01*
X31637322Y-41040000D01*
X31599999Y-41036324D01*
X31562676Y-41040000D01*
X31562667Y-41040000D01*
X31451014Y-41050997D01*
X31307753Y-41094454D01*
X31207690Y-41147940D01*
X31138799Y-41063997D01*
X31115001Y-41034999D01*
X31086004Y-41011202D01*
X30834802Y-40760000D01*
X34751067Y-40760000D01*
X34819436Y-40843309D01*
X34770506Y-40869463D01*
X34673815Y-40948815D01*
X34594463Y-41045506D01*
X34535498Y-41155820D01*
X34499188Y-41275518D01*
X34486928Y-41400000D01*
X34490000Y-41714250D01*
X34648750Y-41873000D01*
X35873000Y-41873000D01*
X35873000Y-41853000D01*
X36127000Y-41853000D01*
X36127000Y-41873000D01*
X37351250Y-41873000D01*
X37510000Y-41714250D01*
X37513072Y-41400000D01*
X37500812Y-41275518D01*
X37464502Y-41155820D01*
X37405537Y-41045506D01*
X37326185Y-40948815D01*
X37229494Y-40869463D01*
X37180564Y-40843309D01*
X37306833Y-40689449D01*
X37421511Y-40474901D01*
X37492130Y-40242102D01*
X37515975Y-40000000D01*
X37492130Y-39757898D01*
X37421511Y-39525099D01*
X37306833Y-39310551D01*
X37152502Y-39122498D01*
X37003238Y-39000000D01*
X37152502Y-38877502D01*
X37306833Y-38689449D01*
X37421511Y-38474901D01*
X37492130Y-38242102D01*
X37515975Y-38000000D01*
X37492130Y-37757898D01*
X37421511Y-37525099D01*
X37306833Y-37310551D01*
X37152502Y-37122498D01*
X37003238Y-37000000D01*
X37152502Y-36877502D01*
X37306833Y-36689449D01*
X37421511Y-36474901D01*
X37492130Y-36242102D01*
X37515975Y-36000000D01*
X37504042Y-35878843D01*
X38649927Y-37024729D01*
%TA.AperFunction,Conductor*%
D25*
G36*
X38649927Y-37024729D02*
G01*
X38509744Y-37082795D01*
X38340226Y-37196063D01*
X38196063Y-37340226D01*
X38082795Y-37509744D01*
X38004774Y-37698102D01*
X37965000Y-37898061D01*
X37965000Y-38101939D01*
X38004774Y-38301898D01*
X38082795Y-38490256D01*
X38196063Y-38659774D01*
X38240001Y-38703712D01*
X38240000Y-41785198D01*
X37512221Y-42512977D01*
X37510000Y-42285750D01*
X37351250Y-42127000D01*
X36127000Y-42127000D01*
X36127000Y-42147000D01*
X35873000Y-42147000D01*
X35873000Y-42127000D01*
X34648750Y-42127000D01*
X34490000Y-42285750D01*
X34486928Y-42600000D01*
X34499188Y-42724482D01*
X34535498Y-42844180D01*
X34554464Y-42879662D01*
X32963804Y-41289003D01*
X32940001Y-41259999D01*
X32824276Y-41165026D01*
X32692247Y-41094454D01*
X32548986Y-41050997D01*
X32437333Y-41040000D01*
X32437322Y-41040000D01*
X32400000Y-41036324D01*
X32362678Y-41040000D01*
X31637322Y-41040000D01*
X31599999Y-41036324D01*
X31562676Y-41040000D01*
X31562667Y-41040000D01*
X31451014Y-41050997D01*
X31307753Y-41094454D01*
X31207690Y-41147940D01*
X31138799Y-41063997D01*
X31115001Y-41034999D01*
X31086004Y-41011202D01*
X30834802Y-40760000D01*
X34751067Y-40760000D01*
X34819436Y-40843309D01*
X34770506Y-40869463D01*
X34673815Y-40948815D01*
X34594463Y-41045506D01*
X34535498Y-41155820D01*
X34499188Y-41275518D01*
X34486928Y-41400000D01*
X34490000Y-41714250D01*
X34648750Y-41873000D01*
X35873000Y-41873000D01*
X35873000Y-41853000D01*
X36127000Y-41853000D01*
X36127000Y-41873000D01*
X37351250Y-41873000D01*
X37510000Y-41714250D01*
X37513072Y-41400000D01*
X37500812Y-41275518D01*
X37464502Y-41155820D01*
X37405537Y-41045506D01*
X37326185Y-40948815D01*
X37229494Y-40869463D01*
X37180564Y-40843309D01*
X37306833Y-40689449D01*
X37421511Y-40474901D01*
X37492130Y-40242102D01*
X37515975Y-40000000D01*
X37492130Y-39757898D01*
X37421511Y-39525099D01*
X37306833Y-39310551D01*
X37152502Y-39122498D01*
X37003238Y-39000000D01*
X37152502Y-38877502D01*
X37306833Y-38689449D01*
X37421511Y-38474901D01*
X37492130Y-38242102D01*
X37515975Y-38000000D01*
X37492130Y-37757898D01*
X37421511Y-37525099D01*
X37306833Y-37310551D01*
X37152502Y-37122498D01*
X37003238Y-37000000D01*
X37152502Y-36877502D01*
X37306833Y-36689449D01*
X37421511Y-36474901D01*
X37492130Y-36242102D01*
X37515975Y-36000000D01*
X37504042Y-35878843D01*
X38649927Y-37024729D01*
G37*
%TD.AperFunction*%
D24*
X33636200Y-29511002D02*
X33659999Y-29540001D01*
X33688997Y-29563799D01*
X33775724Y-29634974D01*
X33907753Y-29705546D01*
X34051014Y-29749003D01*
X34200000Y-29763677D01*
X34237333Y-29760000D01*
X34535750Y-29760000D01*
X34648750Y-29873000D01*
X35873000Y-29873000D01*
X35873000Y-29853000D01*
X36127000Y-29853000D01*
X36127000Y-29873000D01*
X36147000Y-29873000D01*
X36147000Y-30127000D01*
X36127000Y-30127000D01*
X36127000Y-31076250D01*
X36285750Y-31235000D01*
X36875000Y-31238072D01*
X36940001Y-31231670D01*
X36940000Y-34955099D01*
X36749901Y-34853489D01*
X36517102Y-34782870D01*
X36335665Y-34765000D01*
X35664335Y-34765000D01*
X35482898Y-34782870D01*
X35250099Y-34853489D01*
X35035551Y-34968167D01*
X34847498Y-35122498D01*
X34693167Y-35310551D01*
X34578489Y-35525099D01*
X34507870Y-35757898D01*
X34484025Y-36000000D01*
X34507870Y-36242102D01*
X34578489Y-36474901D01*
X34693167Y-36689449D01*
X34847498Y-36877502D01*
X34996762Y-37000000D01*
X34847498Y-37122498D01*
X34693167Y-37310551D01*
X34578489Y-37525099D01*
X34507870Y-37757898D01*
X34484025Y-38000000D01*
X34507870Y-38242102D01*
X34578489Y-38474901D01*
X34693167Y-38689449D01*
X34847498Y-38877502D01*
X34996762Y-39000000D01*
X34847498Y-39122498D01*
X34751067Y-39240000D01*
X30314802Y-39240000D01*
X30277652Y-39202850D01*
X30343250Y-39210000D01*
X30502000Y-39051250D01*
X30502000Y-39033741D01*
X30546896Y-38996896D01*
X30575000Y-38962651D01*
X30603104Y-38996896D01*
X30648000Y-39033741D01*
X30648000Y-39051250D01*
X30806750Y-39210000D01*
X30908883Y-39198868D01*
X30943955Y-39187650D01*
X30981009Y-39198890D01*
X31125000Y-39213072D01*
X31325000Y-39213072D01*
X31468991Y-39198890D01*
X31550000Y-39174316D01*
X31631009Y-39198890D01*
X31775000Y-39213072D01*
X31975000Y-39213072D01*
X32118991Y-39198890D01*
X32257448Y-39156890D01*
X32385051Y-39088684D01*
X32496896Y-38996896D01*
X32588684Y-38885051D01*
X32656890Y-38757448D01*
X32698890Y-38618991D01*
X32713072Y-38475000D01*
X32713072Y-37200000D01*
X32698890Y-37056009D01*
X32656890Y-36917552D01*
X32635000Y-36876599D01*
X32635000Y-35913072D01*
X32662500Y-35913072D01*
X32833316Y-35896248D01*
X32997567Y-35846423D01*
X33148942Y-35765512D01*
X33281623Y-35656623D01*
X33390512Y-35523942D01*
X33471423Y-35372567D01*
X33521248Y-35208316D01*
X33538072Y-35037500D01*
X33538072Y-34562500D01*
X33521248Y-34391684D01*
X33471423Y-34227433D01*
X33390512Y-34076058D01*
X33281623Y-33943377D01*
X33148942Y-33834488D01*
X32997567Y-33753577D01*
X32833316Y-33703752D01*
X32662500Y-33686928D01*
X32062500Y-33686928D01*
X31891684Y-33703752D01*
X31727433Y-33753577D01*
X31576058Y-33834488D01*
X31500000Y-33896907D01*
X31423942Y-33834488D01*
X31272567Y-33753577D01*
X31108316Y-33703752D01*
X30937500Y-33686928D01*
X30337500Y-33686928D01*
X30166684Y-33703752D01*
X30002433Y-33753577D01*
X29851058Y-33834488D01*
X29718377Y-33943377D01*
X29609488Y-34076058D01*
X29528577Y-34227433D01*
X29478752Y-34391684D01*
X29461928Y-34562500D01*
X29461928Y-35037500D01*
X29478752Y-35208316D01*
X29528577Y-35372567D01*
X29609488Y-35523942D01*
X29718377Y-35656623D01*
X29851058Y-35765512D01*
X30002433Y-35846423D01*
X30166684Y-35896248D01*
X30337500Y-35913072D01*
X30465001Y-35913072D01*
X30465001Y-36465000D01*
X30447998Y-36465000D01*
X30447998Y-36569748D01*
X30343250Y-36465000D01*
X30241117Y-36476132D01*
X30206045Y-36487350D01*
X30168991Y-36476110D01*
X30025000Y-36461928D01*
X29825000Y-36461928D01*
X29681009Y-36476110D01*
X29542552Y-36518110D01*
X29414949Y-36586316D01*
X29303104Y-36678104D01*
X29211316Y-36789949D01*
X29143110Y-36917552D01*
X29101110Y-37056009D01*
X29092838Y-37140000D01*
X28260920Y-37140000D01*
X28181623Y-37043377D01*
X28048942Y-36934488D01*
X28016340Y-36917062D01*
X27988526Y-36865026D01*
X27947474Y-36788223D01*
X27876299Y-36701497D01*
X27852501Y-36672499D01*
X27823503Y-36648701D01*
X27511549Y-36336747D01*
X27525000Y-36338072D01*
X27714250Y-36335000D01*
X27873000Y-36176250D01*
X27873000Y-35339500D01*
X28127000Y-35339500D01*
X28127000Y-36176250D01*
X28285750Y-36335000D01*
X28475000Y-36338072D01*
X28599482Y-36325812D01*
X28719180Y-36289502D01*
X28829494Y-36230537D01*
X28926185Y-36151185D01*
X29005537Y-36054494D01*
X29064502Y-35944180D01*
X29100812Y-35824482D01*
X29113072Y-35700000D01*
X29110000Y-35498250D01*
X28951250Y-35339500D01*
X28127000Y-35339500D01*
X27873000Y-35339500D01*
X27048750Y-35339500D01*
X26890000Y-35498250D01*
X26886928Y-35700000D01*
X26888253Y-35713451D01*
X26524801Y-35350000D01*
X26919026Y-34955776D01*
X27048750Y-35085500D01*
X27873000Y-35085500D01*
X27873000Y-35065500D01*
X28127000Y-35065500D01*
X28127000Y-35085500D01*
X28951250Y-35085500D01*
X29110000Y-34926750D01*
X29113072Y-34725000D01*
X29100812Y-34600518D01*
X29064502Y-34480820D01*
X29005537Y-34370506D01*
X28926185Y-34273815D01*
X28876188Y-34232783D01*
X28965512Y-34123942D01*
X29046423Y-33972567D01*
X29096248Y-33808316D01*
X29113072Y-33637500D01*
X29113072Y-33349230D01*
X29924230Y-32538072D01*
X30750000Y-32538072D01*
X30874482Y-32525812D01*
X30994180Y-32489502D01*
X31104494Y-32430537D01*
X31201185Y-32351185D01*
X31280537Y-32254494D01*
X31339502Y-32144180D01*
X31375812Y-32024482D01*
X31388072Y-31900000D01*
X31611928Y-31900000D01*
X31624188Y-32024482D01*
X31660498Y-32144180D01*
X31719463Y-32254494D01*
X31798815Y-32351185D01*
X31895506Y-32430537D01*
X32005820Y-32489502D01*
X32125518Y-32525812D01*
X32250000Y-32538072D01*
X32464250Y-32535000D01*
X32623000Y-32376250D01*
X32623000Y-31527000D01*
X32877000Y-31527000D01*
X32877000Y-32376250D01*
X33035750Y-32535000D01*
X33250000Y-32538072D01*
X33374482Y-32525812D01*
X33494180Y-32489502D01*
X33604494Y-32430537D01*
X33701185Y-32351185D01*
X33780537Y-32254494D01*
X33839502Y-32144180D01*
X33875812Y-32024482D01*
X33888072Y-31900000D01*
X33885000Y-31685750D01*
X33726250Y-31527000D01*
X32877000Y-31527000D01*
X32623000Y-31527000D01*
X31773750Y-31527000D01*
X31615000Y-31685750D01*
X31611928Y-31900000D01*
X31388072Y-31900000D01*
X31388072Y-30900000D01*
X31611928Y-30900000D01*
X31615000Y-31114250D01*
X31773750Y-31273000D01*
X32623000Y-31273000D01*
X32623000Y-30423750D01*
X32877000Y-30423750D01*
X32877000Y-31273000D01*
X33726250Y-31273000D01*
X33885000Y-31114250D01*
X33888072Y-30900000D01*
X33875812Y-30775518D01*
X33839502Y-30655820D01*
X33809666Y-30600000D01*
X34486928Y-30600000D01*
X34499188Y-30724482D01*
X34535498Y-30844180D01*
X34594463Y-30954494D01*
X34673815Y-31051185D01*
X34770506Y-31130537D01*
X34880820Y-31189502D01*
X35000518Y-31225812D01*
X35125000Y-31238072D01*
X35714250Y-31235000D01*
X35873000Y-31076250D01*
X35873000Y-30127000D01*
X34648750Y-30127000D01*
X34490000Y-30285750D01*
X34486928Y-30600000D01*
X33809666Y-30600000D01*
X33780537Y-30545506D01*
X33701185Y-30448815D01*
X33604494Y-30369463D01*
X33494180Y-30310498D01*
X33374482Y-30274188D01*
X33250000Y-30261928D01*
X33035750Y-30265000D01*
X32877000Y-30423750D01*
X32623000Y-30423750D01*
X32464250Y-30265000D01*
X32250000Y-30261928D01*
X32125518Y-30274188D01*
X32005820Y-30310498D01*
X31895506Y-30369463D01*
X31798815Y-30448815D01*
X31719463Y-30545506D01*
X31660498Y-30655820D01*
X31624188Y-30775518D01*
X31611928Y-30900000D01*
X31388072Y-30900000D01*
X31375812Y-30775518D01*
X31339502Y-30655820D01*
X31280537Y-30545506D01*
X31201185Y-30448815D01*
X31104494Y-30369463D01*
X30994180Y-30310498D01*
X30874482Y-30274188D01*
X30750000Y-30261928D01*
X29750000Y-30261928D01*
X29625518Y-30274188D01*
X29505820Y-30310498D01*
X29395506Y-30369463D01*
X29298815Y-30448815D01*
X29219463Y-30545506D01*
X29160498Y-30655820D01*
X29124188Y-30775518D01*
X29111928Y-30900000D01*
X29111928Y-31200769D01*
X28050770Y-32261928D01*
X27762500Y-32261928D01*
X27591684Y-32278752D01*
X27427433Y-32328577D01*
X27276058Y-32409488D01*
X27143377Y-32518377D01*
X27034488Y-32651058D01*
X26974023Y-32764180D01*
X26872499Y-32847499D01*
X26848701Y-32876497D01*
X26313072Y-33412126D01*
X26313072Y-33137500D01*
X26296248Y-32966684D01*
X26246423Y-32802433D01*
X26165512Y-32651058D01*
X26060000Y-32522492D01*
X26060000Y-31154320D01*
X26104494Y-31130537D01*
X26201185Y-31051185D01*
X26211928Y-31038095D01*
X26211928Y-31550000D01*
X26224188Y-31674482D01*
X26260498Y-31794180D01*
X26319463Y-31904494D01*
X26398815Y-32001185D01*
X26495506Y-32080537D01*
X26605820Y-32139502D01*
X26725518Y-32175812D01*
X26850000Y-32188072D01*
X27750000Y-32188072D01*
X27874482Y-32175812D01*
X27994180Y-32139502D01*
X28104494Y-32080537D01*
X28201185Y-32001185D01*
X28280537Y-31904494D01*
X28339502Y-31794180D01*
X28375812Y-31674482D01*
X28388072Y-31550000D01*
X28388072Y-31086729D01*
X29514802Y-29960000D01*
X31062678Y-29960000D01*
X31100000Y-29963676D01*
X31137322Y-29960000D01*
X31137333Y-29960000D01*
X31248986Y-29949003D01*
X31392247Y-29905546D01*
X31524276Y-29834974D01*
X31640001Y-29740001D01*
X31663803Y-29710998D01*
X32261730Y-29113072D01*
X32262500Y-29113072D01*
X32433316Y-29096248D01*
X32597567Y-29046423D01*
X32748942Y-28965512D01*
X32881623Y-28856623D01*
X32926788Y-28801589D01*
X33636200Y-29511002D01*
%TA.AperFunction,Conductor*%
D25*
G36*
X33636200Y-29511002D02*
G01*
X33659999Y-29540001D01*
X33688997Y-29563799D01*
X33775724Y-29634974D01*
X33907753Y-29705546D01*
X34051014Y-29749003D01*
X34200000Y-29763677D01*
X34237333Y-29760000D01*
X34535750Y-29760000D01*
X34648750Y-29873000D01*
X35873000Y-29873000D01*
X35873000Y-29853000D01*
X36127000Y-29853000D01*
X36127000Y-29873000D01*
X36147000Y-29873000D01*
X36147000Y-30127000D01*
X36127000Y-30127000D01*
X36127000Y-31076250D01*
X36285750Y-31235000D01*
X36875000Y-31238072D01*
X36940001Y-31231670D01*
X36940000Y-34955099D01*
X36749901Y-34853489D01*
X36517102Y-34782870D01*
X36335665Y-34765000D01*
X35664335Y-34765000D01*
X35482898Y-34782870D01*
X35250099Y-34853489D01*
X35035551Y-34968167D01*
X34847498Y-35122498D01*
X34693167Y-35310551D01*
X34578489Y-35525099D01*
X34507870Y-35757898D01*
X34484025Y-36000000D01*
X34507870Y-36242102D01*
X34578489Y-36474901D01*
X34693167Y-36689449D01*
X34847498Y-36877502D01*
X34996762Y-37000000D01*
X34847498Y-37122498D01*
X34693167Y-37310551D01*
X34578489Y-37525099D01*
X34507870Y-37757898D01*
X34484025Y-38000000D01*
X34507870Y-38242102D01*
X34578489Y-38474901D01*
X34693167Y-38689449D01*
X34847498Y-38877502D01*
X34996762Y-39000000D01*
X34847498Y-39122498D01*
X34751067Y-39240000D01*
X30314802Y-39240000D01*
X30277652Y-39202850D01*
X30343250Y-39210000D01*
X30502000Y-39051250D01*
X30502000Y-39033741D01*
X30546896Y-38996896D01*
X30575000Y-38962651D01*
X30603104Y-38996896D01*
X30648000Y-39033741D01*
X30648000Y-39051250D01*
X30806750Y-39210000D01*
X30908883Y-39198868D01*
X30943955Y-39187650D01*
X30981009Y-39198890D01*
X31125000Y-39213072D01*
X31325000Y-39213072D01*
X31468991Y-39198890D01*
X31550000Y-39174316D01*
X31631009Y-39198890D01*
X31775000Y-39213072D01*
X31975000Y-39213072D01*
X32118991Y-39198890D01*
X32257448Y-39156890D01*
X32385051Y-39088684D01*
X32496896Y-38996896D01*
X32588684Y-38885051D01*
X32656890Y-38757448D01*
X32698890Y-38618991D01*
X32713072Y-38475000D01*
X32713072Y-37200000D01*
X32698890Y-37056009D01*
X32656890Y-36917552D01*
X32635000Y-36876599D01*
X32635000Y-35913072D01*
X32662500Y-35913072D01*
X32833316Y-35896248D01*
X32997567Y-35846423D01*
X33148942Y-35765512D01*
X33281623Y-35656623D01*
X33390512Y-35523942D01*
X33471423Y-35372567D01*
X33521248Y-35208316D01*
X33538072Y-35037500D01*
X33538072Y-34562500D01*
X33521248Y-34391684D01*
X33471423Y-34227433D01*
X33390512Y-34076058D01*
X33281623Y-33943377D01*
X33148942Y-33834488D01*
X32997567Y-33753577D01*
X32833316Y-33703752D01*
X32662500Y-33686928D01*
X32062500Y-33686928D01*
X31891684Y-33703752D01*
X31727433Y-33753577D01*
X31576058Y-33834488D01*
X31500000Y-33896907D01*
X31423942Y-33834488D01*
X31272567Y-33753577D01*
X31108316Y-33703752D01*
X30937500Y-33686928D01*
X30337500Y-33686928D01*
X30166684Y-33703752D01*
X30002433Y-33753577D01*
X29851058Y-33834488D01*
X29718377Y-33943377D01*
X29609488Y-34076058D01*
X29528577Y-34227433D01*
X29478752Y-34391684D01*
X29461928Y-34562500D01*
X29461928Y-35037500D01*
X29478752Y-35208316D01*
X29528577Y-35372567D01*
X29609488Y-35523942D01*
X29718377Y-35656623D01*
X29851058Y-35765512D01*
X30002433Y-35846423D01*
X30166684Y-35896248D01*
X30337500Y-35913072D01*
X30465001Y-35913072D01*
X30465001Y-36465000D01*
X30447998Y-36465000D01*
X30447998Y-36569748D01*
X30343250Y-36465000D01*
X30241117Y-36476132D01*
X30206045Y-36487350D01*
X30168991Y-36476110D01*
X30025000Y-36461928D01*
X29825000Y-36461928D01*
X29681009Y-36476110D01*
X29542552Y-36518110D01*
X29414949Y-36586316D01*
X29303104Y-36678104D01*
X29211316Y-36789949D01*
X29143110Y-36917552D01*
X29101110Y-37056009D01*
X29092838Y-37140000D01*
X28260920Y-37140000D01*
X28181623Y-37043377D01*
X28048942Y-36934488D01*
X28016340Y-36917062D01*
X27988526Y-36865026D01*
X27947474Y-36788223D01*
X27876299Y-36701497D01*
X27852501Y-36672499D01*
X27823503Y-36648701D01*
X27511549Y-36336747D01*
X27525000Y-36338072D01*
X27714250Y-36335000D01*
X27873000Y-36176250D01*
X27873000Y-35339500D01*
X28127000Y-35339500D01*
X28127000Y-36176250D01*
X28285750Y-36335000D01*
X28475000Y-36338072D01*
X28599482Y-36325812D01*
X28719180Y-36289502D01*
X28829494Y-36230537D01*
X28926185Y-36151185D01*
X29005537Y-36054494D01*
X29064502Y-35944180D01*
X29100812Y-35824482D01*
X29113072Y-35700000D01*
X29110000Y-35498250D01*
X28951250Y-35339500D01*
X28127000Y-35339500D01*
X27873000Y-35339500D01*
X27048750Y-35339500D01*
X26890000Y-35498250D01*
X26886928Y-35700000D01*
X26888253Y-35713451D01*
X26524801Y-35350000D01*
X26919026Y-34955776D01*
X27048750Y-35085500D01*
X27873000Y-35085500D01*
X27873000Y-35065500D01*
X28127000Y-35065500D01*
X28127000Y-35085500D01*
X28951250Y-35085500D01*
X29110000Y-34926750D01*
X29113072Y-34725000D01*
X29100812Y-34600518D01*
X29064502Y-34480820D01*
X29005537Y-34370506D01*
X28926185Y-34273815D01*
X28876188Y-34232783D01*
X28965512Y-34123942D01*
X29046423Y-33972567D01*
X29096248Y-33808316D01*
X29113072Y-33637500D01*
X29113072Y-33349230D01*
X29924230Y-32538072D01*
X30750000Y-32538072D01*
X30874482Y-32525812D01*
X30994180Y-32489502D01*
X31104494Y-32430537D01*
X31201185Y-32351185D01*
X31280537Y-32254494D01*
X31339502Y-32144180D01*
X31375812Y-32024482D01*
X31388072Y-31900000D01*
X31611928Y-31900000D01*
X31624188Y-32024482D01*
X31660498Y-32144180D01*
X31719463Y-32254494D01*
X31798815Y-32351185D01*
X31895506Y-32430537D01*
X32005820Y-32489502D01*
X32125518Y-32525812D01*
X32250000Y-32538072D01*
X32464250Y-32535000D01*
X32623000Y-32376250D01*
X32623000Y-31527000D01*
X32877000Y-31527000D01*
X32877000Y-32376250D01*
X33035750Y-32535000D01*
X33250000Y-32538072D01*
X33374482Y-32525812D01*
X33494180Y-32489502D01*
X33604494Y-32430537D01*
X33701185Y-32351185D01*
X33780537Y-32254494D01*
X33839502Y-32144180D01*
X33875812Y-32024482D01*
X33888072Y-31900000D01*
X33885000Y-31685750D01*
X33726250Y-31527000D01*
X32877000Y-31527000D01*
X32623000Y-31527000D01*
X31773750Y-31527000D01*
X31615000Y-31685750D01*
X31611928Y-31900000D01*
X31388072Y-31900000D01*
X31388072Y-30900000D01*
X31611928Y-30900000D01*
X31615000Y-31114250D01*
X31773750Y-31273000D01*
X32623000Y-31273000D01*
X32623000Y-30423750D01*
X32877000Y-30423750D01*
X32877000Y-31273000D01*
X33726250Y-31273000D01*
X33885000Y-31114250D01*
X33888072Y-30900000D01*
X33875812Y-30775518D01*
X33839502Y-30655820D01*
X33809666Y-30600000D01*
X34486928Y-30600000D01*
X34499188Y-30724482D01*
X34535498Y-30844180D01*
X34594463Y-30954494D01*
X34673815Y-31051185D01*
X34770506Y-31130537D01*
X34880820Y-31189502D01*
X35000518Y-31225812D01*
X35125000Y-31238072D01*
X35714250Y-31235000D01*
X35873000Y-31076250D01*
X35873000Y-30127000D01*
X34648750Y-30127000D01*
X34490000Y-30285750D01*
X34486928Y-30600000D01*
X33809666Y-30600000D01*
X33780537Y-30545506D01*
X33701185Y-30448815D01*
X33604494Y-30369463D01*
X33494180Y-30310498D01*
X33374482Y-30274188D01*
X33250000Y-30261928D01*
X33035750Y-30265000D01*
X32877000Y-30423750D01*
X32623000Y-30423750D01*
X32464250Y-30265000D01*
X32250000Y-30261928D01*
X32125518Y-30274188D01*
X32005820Y-30310498D01*
X31895506Y-30369463D01*
X31798815Y-30448815D01*
X31719463Y-30545506D01*
X31660498Y-30655820D01*
X31624188Y-30775518D01*
X31611928Y-30900000D01*
X31388072Y-30900000D01*
X31375812Y-30775518D01*
X31339502Y-30655820D01*
X31280537Y-30545506D01*
X31201185Y-30448815D01*
X31104494Y-30369463D01*
X30994180Y-30310498D01*
X30874482Y-30274188D01*
X30750000Y-30261928D01*
X29750000Y-30261928D01*
X29625518Y-30274188D01*
X29505820Y-30310498D01*
X29395506Y-30369463D01*
X29298815Y-30448815D01*
X29219463Y-30545506D01*
X29160498Y-30655820D01*
X29124188Y-30775518D01*
X29111928Y-30900000D01*
X29111928Y-31200769D01*
X28050770Y-32261928D01*
X27762500Y-32261928D01*
X27591684Y-32278752D01*
X27427433Y-32328577D01*
X27276058Y-32409488D01*
X27143377Y-32518377D01*
X27034488Y-32651058D01*
X26974023Y-32764180D01*
X26872499Y-32847499D01*
X26848701Y-32876497D01*
X26313072Y-33412126D01*
X26313072Y-33137500D01*
X26296248Y-32966684D01*
X26246423Y-32802433D01*
X26165512Y-32651058D01*
X26060000Y-32522492D01*
X26060000Y-31154320D01*
X26104494Y-31130537D01*
X26201185Y-31051185D01*
X26211928Y-31038095D01*
X26211928Y-31550000D01*
X26224188Y-31674482D01*
X26260498Y-31794180D01*
X26319463Y-31904494D01*
X26398815Y-32001185D01*
X26495506Y-32080537D01*
X26605820Y-32139502D01*
X26725518Y-32175812D01*
X26850000Y-32188072D01*
X27750000Y-32188072D01*
X27874482Y-32175812D01*
X27994180Y-32139502D01*
X28104494Y-32080537D01*
X28201185Y-32001185D01*
X28280537Y-31904494D01*
X28339502Y-31794180D01*
X28375812Y-31674482D01*
X28388072Y-31550000D01*
X28388072Y-31086729D01*
X29514802Y-29960000D01*
X31062678Y-29960000D01*
X31100000Y-29963676D01*
X31137322Y-29960000D01*
X31137333Y-29960000D01*
X31248986Y-29949003D01*
X31392247Y-29905546D01*
X31524276Y-29834974D01*
X31640001Y-29740001D01*
X31663803Y-29710998D01*
X32261730Y-29113072D01*
X32262500Y-29113072D01*
X32433316Y-29096248D01*
X32597567Y-29046423D01*
X32748942Y-28965512D01*
X32881623Y-28856623D01*
X32926788Y-28801589D01*
X33636200Y-29511002D01*
G37*
%TD.AperFunction*%
D24*
X29318377Y-18456623D02*
X29427500Y-18546179D01*
X29427501Y-19402361D01*
X29395506Y-19419463D01*
X29298815Y-19498815D01*
X29219463Y-19595506D01*
X29160498Y-19705820D01*
X29124188Y-19825518D01*
X29111928Y-19950000D01*
X29111928Y-20850000D01*
X29124188Y-20974482D01*
X29160498Y-21094180D01*
X29219463Y-21204494D01*
X29298815Y-21301185D01*
X29395506Y-21380537D01*
X29505820Y-21439502D01*
X29625518Y-21475812D01*
X29750000Y-21488072D01*
X30261905Y-21488072D01*
X30248815Y-21498815D01*
X30169463Y-21595506D01*
X30145680Y-21640000D01*
X27449373Y-21640000D01*
X27394180Y-21610498D01*
X27274482Y-21574188D01*
X27150000Y-21561928D01*
X26150000Y-21561928D01*
X26025518Y-21574188D01*
X25905820Y-21610498D01*
X25795506Y-21669463D01*
X25698815Y-21748815D01*
X25619463Y-21845506D01*
X25560498Y-21955820D01*
X25524188Y-22075518D01*
X25511928Y-22200000D01*
X25511928Y-23200000D01*
X25524188Y-23324482D01*
X25560498Y-23444180D01*
X25619463Y-23554494D01*
X25698815Y-23651185D01*
X25795506Y-23730537D01*
X25905820Y-23789502D01*
X26025518Y-23825812D01*
X26150000Y-23838072D01*
X27150000Y-23838072D01*
X27274482Y-23825812D01*
X27394180Y-23789502D01*
X27504494Y-23730537D01*
X27601185Y-23651185D01*
X27680537Y-23554494D01*
X27739502Y-23444180D01*
X27775812Y-23324482D01*
X27788072Y-23200000D01*
X27788072Y-23160000D01*
X30145680Y-23160000D01*
X30169463Y-23204494D01*
X30248815Y-23301185D01*
X30345506Y-23380537D01*
X30455820Y-23439502D01*
X30575518Y-23475812D01*
X30700000Y-23488072D01*
X31500000Y-23488072D01*
X31624482Y-23475812D01*
X31683199Y-23458000D01*
X32212127Y-23986928D01*
X31762500Y-23986928D01*
X31591684Y-24003752D01*
X31427433Y-24053577D01*
X31277394Y-24133774D01*
X31229494Y-24094463D01*
X31119180Y-24035498D01*
X30999482Y-23999188D01*
X30875000Y-23986928D01*
X30623250Y-23990000D01*
X30464500Y-24148750D01*
X30464500Y-24973000D01*
X30484500Y-24973000D01*
X30484500Y-25227000D01*
X30464500Y-25227000D01*
X30464500Y-25247000D01*
X30210500Y-25247000D01*
X30210500Y-25227000D01*
X29323750Y-25227000D01*
X29165000Y-25385750D01*
X29161928Y-25575000D01*
X29174188Y-25699482D01*
X29210498Y-25819180D01*
X29269463Y-25929494D01*
X29348815Y-26026185D01*
X29445506Y-26105537D01*
X29555820Y-26164502D01*
X29675518Y-26200812D01*
X29800000Y-26213072D01*
X30014747Y-26210452D01*
X29676503Y-26548696D01*
X29647499Y-26572499D01*
X29603747Y-26625812D01*
X29552526Y-26688224D01*
X29503183Y-26780537D01*
X29481954Y-26820254D01*
X29438497Y-26963515D01*
X29429787Y-27051944D01*
X29318377Y-27143377D01*
X29239080Y-27240000D01*
X28837323Y-27240000D01*
X28800000Y-27236324D01*
X28762677Y-27240000D01*
X28762667Y-27240000D01*
X28651014Y-27250997D01*
X28507753Y-27294454D01*
X28375723Y-27365026D01*
X28327325Y-27404746D01*
X28259999Y-27459999D01*
X28236201Y-27488997D01*
X27513271Y-28211928D01*
X26850000Y-28211928D01*
X26725518Y-28224188D01*
X26605820Y-28260498D01*
X26495506Y-28319463D01*
X26398815Y-28398815D01*
X26319463Y-28495506D01*
X26260498Y-28605820D01*
X26224188Y-28725518D01*
X26211928Y-28850000D01*
X26211928Y-29361905D01*
X26201185Y-29348815D01*
X26104494Y-29269463D01*
X25994180Y-29210498D01*
X25874482Y-29174188D01*
X25750000Y-29161928D01*
X24912873Y-29161928D01*
X27036730Y-27038072D01*
X27150000Y-27038072D01*
X27274482Y-27025812D01*
X27394180Y-26989502D01*
X27504494Y-26930537D01*
X27601185Y-26851185D01*
X27680537Y-26754494D01*
X27739502Y-26644180D01*
X27775812Y-26524482D01*
X27788072Y-26400000D01*
X27788072Y-25400000D01*
X27775812Y-25275518D01*
X27739502Y-25155820D01*
X27680537Y-25045506D01*
X27601185Y-24948815D01*
X27504494Y-24869463D01*
X27394180Y-24810498D01*
X27274482Y-24774188D01*
X27150000Y-24761928D01*
X26836730Y-24761928D01*
X26699802Y-24625000D01*
X29161928Y-24625000D01*
X29165000Y-24814250D01*
X29323750Y-24973000D01*
X30210500Y-24973000D01*
X30210500Y-24148750D01*
X30051750Y-23990000D01*
X29800000Y-23986928D01*
X29675518Y-23999188D01*
X29555820Y-24035498D01*
X29445506Y-24094463D01*
X29348815Y-24173815D01*
X29269463Y-24270506D01*
X29210498Y-24380820D01*
X29174188Y-24500518D01*
X29161928Y-24625000D01*
X26699802Y-24625000D01*
X25963804Y-23889003D01*
X25940001Y-23859999D01*
X25824276Y-23765026D01*
X25692247Y-23694454D01*
X25548986Y-23650997D01*
X25437333Y-23640000D01*
X25437322Y-23640000D01*
X25400000Y-23636324D01*
X25362678Y-23640000D01*
X25110364Y-23640000D01*
X25180537Y-23554494D01*
X25239502Y-23444180D01*
X25275812Y-23324482D01*
X25288072Y-23200000D01*
X25288072Y-22200000D01*
X25275812Y-22075518D01*
X25239502Y-21955820D01*
X25232354Y-21942447D01*
X25611003Y-21563799D01*
X25640001Y-21540001D01*
X25666332Y-21507917D01*
X25734974Y-21424277D01*
X25805546Y-21292247D01*
X25810998Y-21274275D01*
X25849003Y-21148986D01*
X25860000Y-21037333D01*
X25860000Y-21037323D01*
X25863676Y-21000000D01*
X25860000Y-20962677D01*
X25860000Y-20504320D01*
X25904494Y-20480537D01*
X26001185Y-20401185D01*
X26080537Y-20304494D01*
X26139502Y-20194180D01*
X26175812Y-20074482D01*
X26188072Y-19950000D01*
X26188072Y-19438095D01*
X26198815Y-19451185D01*
X26295506Y-19530537D01*
X26405820Y-19589502D01*
X26525518Y-19625812D01*
X26650000Y-19638072D01*
X27550000Y-19638072D01*
X27674482Y-19625812D01*
X27794180Y-19589502D01*
X27904494Y-19530537D01*
X28001185Y-19451185D01*
X28080537Y-19354494D01*
X28139502Y-19244180D01*
X28175812Y-19124482D01*
X28188072Y-19000000D01*
X28188072Y-18786729D01*
X28614802Y-18360000D01*
X29239080Y-18360000D01*
X29318377Y-18456623D01*
%TA.AperFunction,Conductor*%
D25*
G36*
X29318377Y-18456623D02*
G01*
X29427500Y-18546179D01*
X29427501Y-19402361D01*
X29395506Y-19419463D01*
X29298815Y-19498815D01*
X29219463Y-19595506D01*
X29160498Y-19705820D01*
X29124188Y-19825518D01*
X29111928Y-19950000D01*
X29111928Y-20850000D01*
X29124188Y-20974482D01*
X29160498Y-21094180D01*
X29219463Y-21204494D01*
X29298815Y-21301185D01*
X29395506Y-21380537D01*
X29505820Y-21439502D01*
X29625518Y-21475812D01*
X29750000Y-21488072D01*
X30261905Y-21488072D01*
X30248815Y-21498815D01*
X30169463Y-21595506D01*
X30145680Y-21640000D01*
X27449373Y-21640000D01*
X27394180Y-21610498D01*
X27274482Y-21574188D01*
X27150000Y-21561928D01*
X26150000Y-21561928D01*
X26025518Y-21574188D01*
X25905820Y-21610498D01*
X25795506Y-21669463D01*
X25698815Y-21748815D01*
X25619463Y-21845506D01*
X25560498Y-21955820D01*
X25524188Y-22075518D01*
X25511928Y-22200000D01*
X25511928Y-23200000D01*
X25524188Y-23324482D01*
X25560498Y-23444180D01*
X25619463Y-23554494D01*
X25698815Y-23651185D01*
X25795506Y-23730537D01*
X25905820Y-23789502D01*
X26025518Y-23825812D01*
X26150000Y-23838072D01*
X27150000Y-23838072D01*
X27274482Y-23825812D01*
X27394180Y-23789502D01*
X27504494Y-23730537D01*
X27601185Y-23651185D01*
X27680537Y-23554494D01*
X27739502Y-23444180D01*
X27775812Y-23324482D01*
X27788072Y-23200000D01*
X27788072Y-23160000D01*
X30145680Y-23160000D01*
X30169463Y-23204494D01*
X30248815Y-23301185D01*
X30345506Y-23380537D01*
X30455820Y-23439502D01*
X30575518Y-23475812D01*
X30700000Y-23488072D01*
X31500000Y-23488072D01*
X31624482Y-23475812D01*
X31683199Y-23458000D01*
X32212127Y-23986928D01*
X31762500Y-23986928D01*
X31591684Y-24003752D01*
X31427433Y-24053577D01*
X31277394Y-24133774D01*
X31229494Y-24094463D01*
X31119180Y-24035498D01*
X30999482Y-23999188D01*
X30875000Y-23986928D01*
X30623250Y-23990000D01*
X30464500Y-24148750D01*
X30464500Y-24973000D01*
X30484500Y-24973000D01*
X30484500Y-25227000D01*
X30464500Y-25227000D01*
X30464500Y-25247000D01*
X30210500Y-25247000D01*
X30210500Y-25227000D01*
X29323750Y-25227000D01*
X29165000Y-25385750D01*
X29161928Y-25575000D01*
X29174188Y-25699482D01*
X29210498Y-25819180D01*
X29269463Y-25929494D01*
X29348815Y-26026185D01*
X29445506Y-26105537D01*
X29555820Y-26164502D01*
X29675518Y-26200812D01*
X29800000Y-26213072D01*
X30014747Y-26210452D01*
X29676503Y-26548696D01*
X29647499Y-26572499D01*
X29603747Y-26625812D01*
X29552526Y-26688224D01*
X29503183Y-26780537D01*
X29481954Y-26820254D01*
X29438497Y-26963515D01*
X29429787Y-27051944D01*
X29318377Y-27143377D01*
X29239080Y-27240000D01*
X28837323Y-27240000D01*
X28800000Y-27236324D01*
X28762677Y-27240000D01*
X28762667Y-27240000D01*
X28651014Y-27250997D01*
X28507753Y-27294454D01*
X28375723Y-27365026D01*
X28327325Y-27404746D01*
X28259999Y-27459999D01*
X28236201Y-27488997D01*
X27513271Y-28211928D01*
X26850000Y-28211928D01*
X26725518Y-28224188D01*
X26605820Y-28260498D01*
X26495506Y-28319463D01*
X26398815Y-28398815D01*
X26319463Y-28495506D01*
X26260498Y-28605820D01*
X26224188Y-28725518D01*
X26211928Y-28850000D01*
X26211928Y-29361905D01*
X26201185Y-29348815D01*
X26104494Y-29269463D01*
X25994180Y-29210498D01*
X25874482Y-29174188D01*
X25750000Y-29161928D01*
X24912873Y-29161928D01*
X27036730Y-27038072D01*
X27150000Y-27038072D01*
X27274482Y-27025812D01*
X27394180Y-26989502D01*
X27504494Y-26930537D01*
X27601185Y-26851185D01*
X27680537Y-26754494D01*
X27739502Y-26644180D01*
X27775812Y-26524482D01*
X27788072Y-26400000D01*
X27788072Y-25400000D01*
X27775812Y-25275518D01*
X27739502Y-25155820D01*
X27680537Y-25045506D01*
X27601185Y-24948815D01*
X27504494Y-24869463D01*
X27394180Y-24810498D01*
X27274482Y-24774188D01*
X27150000Y-24761928D01*
X26836730Y-24761928D01*
X26699802Y-24625000D01*
X29161928Y-24625000D01*
X29165000Y-24814250D01*
X29323750Y-24973000D01*
X30210500Y-24973000D01*
X30210500Y-24148750D01*
X30051750Y-23990000D01*
X29800000Y-23986928D01*
X29675518Y-23999188D01*
X29555820Y-24035498D01*
X29445506Y-24094463D01*
X29348815Y-24173815D01*
X29269463Y-24270506D01*
X29210498Y-24380820D01*
X29174188Y-24500518D01*
X29161928Y-24625000D01*
X26699802Y-24625000D01*
X25963804Y-23889003D01*
X25940001Y-23859999D01*
X25824276Y-23765026D01*
X25692247Y-23694454D01*
X25548986Y-23650997D01*
X25437333Y-23640000D01*
X25437322Y-23640000D01*
X25400000Y-23636324D01*
X25362678Y-23640000D01*
X25110364Y-23640000D01*
X25180537Y-23554494D01*
X25239502Y-23444180D01*
X25275812Y-23324482D01*
X25288072Y-23200000D01*
X25288072Y-22200000D01*
X25275812Y-22075518D01*
X25239502Y-21955820D01*
X25232354Y-21942447D01*
X25611003Y-21563799D01*
X25640001Y-21540001D01*
X25666332Y-21507917D01*
X25734974Y-21424277D01*
X25805546Y-21292247D01*
X25810998Y-21274275D01*
X25849003Y-21148986D01*
X25860000Y-21037333D01*
X25860000Y-21037323D01*
X25863676Y-21000000D01*
X25860000Y-20962677D01*
X25860000Y-20504320D01*
X25904494Y-20480537D01*
X26001185Y-20401185D01*
X26080537Y-20304494D01*
X26139502Y-20194180D01*
X26175812Y-20074482D01*
X26188072Y-19950000D01*
X26188072Y-19438095D01*
X26198815Y-19451185D01*
X26295506Y-19530537D01*
X26405820Y-19589502D01*
X26525518Y-19625812D01*
X26650000Y-19638072D01*
X27550000Y-19638072D01*
X27674482Y-19625812D01*
X27794180Y-19589502D01*
X27904494Y-19530537D01*
X28001185Y-19451185D01*
X28080537Y-19354494D01*
X28139502Y-19244180D01*
X28175812Y-19124482D01*
X28188072Y-19000000D01*
X28188072Y-18786729D01*
X28614802Y-18360000D01*
X29239080Y-18360000D01*
X29318377Y-18456623D01*
G37*
%TD.AperFunction*%
%TD*%
M02*
