%TF.GenerationSoftware,KiCad,Pcbnew,(5.1.12)-1*%
%TF.CreationDate,2023-02-18T19:15:58+02:00*%
%TF.ProjectId,BatteryPowerPCB_SPV,42617474-6572-4795-906f-776572504342,rev?*%
%TF.SameCoordinates,Original*%
%TF.FileFunction,Paste,Top*%
%TF.FilePolarity,Positive*%
%FSLAX46Y46*%
G04 Gerber Fmt 4.6, Leading zero omitted, Abs format (unit mm)*
G04 Created by KiCad (PCBNEW (5.1.12)-1) date 2023-02-18 19:15:58*
%MOMM*%
%LPD*%
G01*
G04 APERTURE LIST*
%ADD10R,0.700000X0.600000*%
%ADD11R,1.000000X1.000000*%
%ADD12R,0.900000X0.800000*%
%ADD13R,0.800000X0.900000*%
%ADD14R,0.650000X1.560000*%
%ADD15R,1.200000X1.200000*%
%ADD16R,0.340000X0.340000*%
%ADD17R,0.700000X0.300000*%
%ADD18R,0.300000X0.700000*%
G04 APERTURE END LIST*
D10*
%TO.C,D2*%
X24300000Y-47900000D03*
X24300000Y-49300000D03*
%TD*%
%TO.C,C1*%
G36*
G01*
X16237500Y-24275000D02*
X15762500Y-24275000D01*
G75*
G02*
X15525000Y-24037500I0J237500D01*
G01*
X15525000Y-23437500D01*
G75*
G02*
X15762500Y-23200000I237500J0D01*
G01*
X16237500Y-23200000D01*
G75*
G02*
X16475000Y-23437500I0J-237500D01*
G01*
X16475000Y-24037500D01*
G75*
G02*
X16237500Y-24275000I-237500J0D01*
G01*
G37*
G36*
G01*
X16237500Y-26000000D02*
X15762500Y-26000000D01*
G75*
G02*
X15525000Y-25762500I0J237500D01*
G01*
X15525000Y-25162500D01*
G75*
G02*
X15762500Y-24925000I237500J0D01*
G01*
X16237500Y-24925000D01*
G75*
G02*
X16475000Y-25162500I0J-237500D01*
G01*
X16475000Y-25762500D01*
G75*
G02*
X16237500Y-26000000I-237500J0D01*
G01*
G37*
%TD*%
%TO.C,C2*%
G36*
G01*
X31175000Y-34562500D02*
X31175000Y-35037500D01*
G75*
G02*
X30937500Y-35275000I-237500J0D01*
G01*
X30337500Y-35275000D01*
G75*
G02*
X30100000Y-35037500I0J237500D01*
G01*
X30100000Y-34562500D01*
G75*
G02*
X30337500Y-34325000I237500J0D01*
G01*
X30937500Y-34325000D01*
G75*
G02*
X31175000Y-34562500I0J-237500D01*
G01*
G37*
G36*
G01*
X32900000Y-34562500D02*
X32900000Y-35037500D01*
G75*
G02*
X32662500Y-35275000I-237500J0D01*
G01*
X32062500Y-35275000D01*
G75*
G02*
X31825000Y-35037500I0J237500D01*
G01*
X31825000Y-34562500D01*
G75*
G02*
X32062500Y-34325000I237500J0D01*
G01*
X32662500Y-34325000D01*
G75*
G02*
X32900000Y-34562500I0J-237500D01*
G01*
G37*
%TD*%
%TO.C,C4*%
G36*
G01*
X32462500Y-61825000D02*
X32937500Y-61825000D01*
G75*
G02*
X33175000Y-62062500I0J-237500D01*
G01*
X33175000Y-62662500D01*
G75*
G02*
X32937500Y-62900000I-237500J0D01*
G01*
X32462500Y-62900000D01*
G75*
G02*
X32225000Y-62662500I0J237500D01*
G01*
X32225000Y-62062500D01*
G75*
G02*
X32462500Y-61825000I237500J0D01*
G01*
G37*
G36*
G01*
X32462500Y-60100000D02*
X32937500Y-60100000D01*
G75*
G02*
X33175000Y-60337500I0J-237500D01*
G01*
X33175000Y-60937500D01*
G75*
G02*
X32937500Y-61175000I-237500J0D01*
G01*
X32462500Y-61175000D01*
G75*
G02*
X32225000Y-60937500I0J237500D01*
G01*
X32225000Y-60337500D01*
G75*
G02*
X32462500Y-60100000I237500J0D01*
G01*
G37*
%TD*%
%TO.C,C5*%
G36*
G01*
X29562500Y-60100000D02*
X30037500Y-60100000D01*
G75*
G02*
X30275000Y-60337500I0J-237500D01*
G01*
X30275000Y-60937500D01*
G75*
G02*
X30037500Y-61175000I-237500J0D01*
G01*
X29562500Y-61175000D01*
G75*
G02*
X29325000Y-60937500I0J237500D01*
G01*
X29325000Y-60337500D01*
G75*
G02*
X29562500Y-60100000I237500J0D01*
G01*
G37*
G36*
G01*
X29562500Y-61825000D02*
X30037500Y-61825000D01*
G75*
G02*
X30275000Y-62062500I0J-237500D01*
G01*
X30275000Y-62662500D01*
G75*
G02*
X30037500Y-62900000I-237500J0D01*
G01*
X29562500Y-62900000D01*
G75*
G02*
X29325000Y-62662500I0J237500D01*
G01*
X29325000Y-62062500D01*
G75*
G02*
X29562500Y-61825000I237500J0D01*
G01*
G37*
%TD*%
%TO.C,C6*%
G36*
G01*
X36237500Y-53800000D02*
X35762500Y-53800000D01*
G75*
G02*
X35525000Y-53562500I0J237500D01*
G01*
X35525000Y-52962500D01*
G75*
G02*
X35762500Y-52725000I237500J0D01*
G01*
X36237500Y-52725000D01*
G75*
G02*
X36475000Y-52962500I0J-237500D01*
G01*
X36475000Y-53562500D01*
G75*
G02*
X36237500Y-53800000I-237500J0D01*
G01*
G37*
G36*
G01*
X36237500Y-52075000D02*
X35762500Y-52075000D01*
G75*
G02*
X35525000Y-51837500I0J237500D01*
G01*
X35525000Y-51237500D01*
G75*
G02*
X35762500Y-51000000I237500J0D01*
G01*
X36237500Y-51000000D01*
G75*
G02*
X36475000Y-51237500I0J-237500D01*
G01*
X36475000Y-51837500D01*
G75*
G02*
X36237500Y-52075000I-237500J0D01*
G01*
G37*
%TD*%
%TO.C,C7*%
G36*
G01*
X27300000Y-55562500D02*
X27300000Y-56037500D01*
G75*
G02*
X27062500Y-56275000I-237500J0D01*
G01*
X26462500Y-56275000D01*
G75*
G02*
X26225000Y-56037500I0J237500D01*
G01*
X26225000Y-55562500D01*
G75*
G02*
X26462500Y-55325000I237500J0D01*
G01*
X27062500Y-55325000D01*
G75*
G02*
X27300000Y-55562500I0J-237500D01*
G01*
G37*
G36*
G01*
X25575000Y-55562500D02*
X25575000Y-56037500D01*
G75*
G02*
X25337500Y-56275000I-237500J0D01*
G01*
X24737500Y-56275000D01*
G75*
G02*
X24500000Y-56037500I0J237500D01*
G01*
X24500000Y-55562500D01*
G75*
G02*
X24737500Y-55325000I237500J0D01*
G01*
X25337500Y-55325000D01*
G75*
G02*
X25575000Y-55562500I0J-237500D01*
G01*
G37*
%TD*%
%TO.C,C8*%
G36*
G01*
X30237500Y-48400000D02*
X29762500Y-48400000D01*
G75*
G02*
X29525000Y-48162500I0J237500D01*
G01*
X29525000Y-47562500D01*
G75*
G02*
X29762500Y-47325000I237500J0D01*
G01*
X30237500Y-47325000D01*
G75*
G02*
X30475000Y-47562500I0J-237500D01*
G01*
X30475000Y-48162500D01*
G75*
G02*
X30237500Y-48400000I-237500J0D01*
G01*
G37*
G36*
G01*
X30237500Y-46675000D02*
X29762500Y-46675000D01*
G75*
G02*
X29525000Y-46437500I0J237500D01*
G01*
X29525000Y-45837500D01*
G75*
G02*
X29762500Y-45600000I237500J0D01*
G01*
X30237500Y-45600000D01*
G75*
G02*
X30475000Y-45837500I0J-237500D01*
G01*
X30475000Y-46437500D01*
G75*
G02*
X30237500Y-46675000I-237500J0D01*
G01*
G37*
%TD*%
%TO.C,C9*%
G36*
G01*
X24550000Y-58425000D02*
X24550000Y-59375000D01*
G75*
G02*
X24300000Y-59625000I-250000J0D01*
G01*
X23625000Y-59625000D01*
G75*
G02*
X23375000Y-59375000I0J250000D01*
G01*
X23375000Y-58425000D01*
G75*
G02*
X23625000Y-58175000I250000J0D01*
G01*
X24300000Y-58175000D01*
G75*
G02*
X24550000Y-58425000I0J-250000D01*
G01*
G37*
G36*
G01*
X26625000Y-58425000D02*
X26625000Y-59375000D01*
G75*
G02*
X26375000Y-59625000I-250000J0D01*
G01*
X25700000Y-59625000D01*
G75*
G02*
X25450000Y-59375000I0J250000D01*
G01*
X25450000Y-58425000D01*
G75*
G02*
X25700000Y-58175000I250000J0D01*
G01*
X26375000Y-58175000D01*
G75*
G02*
X26625000Y-58425000I0J-250000D01*
G01*
G37*
%TD*%
%TO.C,C10*%
G36*
G01*
X26625000Y-61725000D02*
X26625000Y-62675000D01*
G75*
G02*
X26375000Y-62925000I-250000J0D01*
G01*
X25700000Y-62925000D01*
G75*
G02*
X25450000Y-62675000I0J250000D01*
G01*
X25450000Y-61725000D01*
G75*
G02*
X25700000Y-61475000I250000J0D01*
G01*
X26375000Y-61475000D01*
G75*
G02*
X26625000Y-61725000I0J-250000D01*
G01*
G37*
G36*
G01*
X24550000Y-61725000D02*
X24550000Y-62675000D01*
G75*
G02*
X24300000Y-62925000I-250000J0D01*
G01*
X23625000Y-62925000D01*
G75*
G02*
X23375000Y-62675000I0J250000D01*
G01*
X23375000Y-61725000D01*
G75*
G02*
X23625000Y-61475000I250000J0D01*
G01*
X24300000Y-61475000D01*
G75*
G02*
X24550000Y-61725000I0J-250000D01*
G01*
G37*
%TD*%
%TO.C,C11*%
G36*
G01*
X39762500Y-52725000D02*
X40237500Y-52725000D01*
G75*
G02*
X40475000Y-52962500I0J-237500D01*
G01*
X40475000Y-53562500D01*
G75*
G02*
X40237500Y-53800000I-237500J0D01*
G01*
X39762500Y-53800000D01*
G75*
G02*
X39525000Y-53562500I0J237500D01*
G01*
X39525000Y-52962500D01*
G75*
G02*
X39762500Y-52725000I237500J0D01*
G01*
G37*
G36*
G01*
X39762500Y-51000000D02*
X40237500Y-51000000D01*
G75*
G02*
X40475000Y-51237500I0J-237500D01*
G01*
X40475000Y-51837500D01*
G75*
G02*
X40237500Y-52075000I-237500J0D01*
G01*
X39762500Y-52075000D01*
G75*
G02*
X39525000Y-51837500I0J237500D01*
G01*
X39525000Y-51237500D01*
G75*
G02*
X39762500Y-51000000I237500J0D01*
G01*
G37*
%TD*%
%TO.C,C13*%
G36*
G01*
X25475000Y-52662500D02*
X25475000Y-53137500D01*
G75*
G02*
X25237500Y-53375000I-237500J0D01*
G01*
X24637500Y-53375000D01*
G75*
G02*
X24400000Y-53137500I0J237500D01*
G01*
X24400000Y-52662500D01*
G75*
G02*
X24637500Y-52425000I237500J0D01*
G01*
X25237500Y-52425000D01*
G75*
G02*
X25475000Y-52662500I0J-237500D01*
G01*
G37*
G36*
G01*
X27200000Y-52662500D02*
X27200000Y-53137500D01*
G75*
G02*
X26962500Y-53375000I-237500J0D01*
G01*
X26362500Y-53375000D01*
G75*
G02*
X26125000Y-53137500I0J237500D01*
G01*
X26125000Y-52662500D01*
G75*
G02*
X26362500Y-52425000I237500J0D01*
G01*
X26962500Y-52425000D01*
G75*
G02*
X27200000Y-52662500I0J-237500D01*
G01*
G37*
%TD*%
D11*
%TO.C,D1*%
X32750000Y-31400000D03*
X30250000Y-31400000D03*
%TD*%
%TO.C,D3*%
X24150000Y-22700000D03*
X26650000Y-22700000D03*
%TD*%
D12*
%TO.C,Q1*%
X27300000Y-31150000D03*
X27300000Y-29250000D03*
X25300000Y-30200000D03*
%TD*%
D13*
%TO.C,Q2*%
X32050000Y-20400000D03*
X30150000Y-20400000D03*
X31100000Y-22400000D03*
%TD*%
D12*
%TO.C,Q3*%
X27100000Y-18600000D03*
X25100000Y-19550000D03*
X25100000Y-17650000D03*
%TD*%
%TO.C,R1*%
G36*
G01*
X20575000Y-44500000D02*
X21825000Y-44500000D01*
G75*
G02*
X22075000Y-44750000I0J-250000D01*
G01*
X22075000Y-45550000D01*
G75*
G02*
X21825000Y-45800000I-250000J0D01*
G01*
X20575000Y-45800000D01*
G75*
G02*
X20325000Y-45550000I0J250000D01*
G01*
X20325000Y-44750000D01*
G75*
G02*
X20575000Y-44500000I250000J0D01*
G01*
G37*
G36*
G01*
X20575000Y-47600000D02*
X21825000Y-47600000D01*
G75*
G02*
X22075000Y-47850000I0J-250000D01*
G01*
X22075000Y-48650000D01*
G75*
G02*
X21825000Y-48900000I-250000J0D01*
G01*
X20575000Y-48900000D01*
G75*
G02*
X20325000Y-48650000I0J250000D01*
G01*
X20325000Y-47850000D01*
G75*
G02*
X20575000Y-47600000I250000J0D01*
G01*
G37*
%TD*%
%TO.C,R2*%
G36*
G01*
X20662500Y-40100000D02*
X21137500Y-40100000D01*
G75*
G02*
X21375000Y-40337500I0J-237500D01*
G01*
X21375000Y-40837500D01*
G75*
G02*
X21137500Y-41075000I-237500J0D01*
G01*
X20662500Y-41075000D01*
G75*
G02*
X20425000Y-40837500I0J237500D01*
G01*
X20425000Y-40337500D01*
G75*
G02*
X20662500Y-40100000I237500J0D01*
G01*
G37*
G36*
G01*
X20662500Y-41925000D02*
X21137500Y-41925000D01*
G75*
G02*
X21375000Y-42162500I0J-237500D01*
G01*
X21375000Y-42662500D01*
G75*
G02*
X21137500Y-42900000I-237500J0D01*
G01*
X20662500Y-42900000D01*
G75*
G02*
X20425000Y-42662500I0J237500D01*
G01*
X20425000Y-42162500D01*
G75*
G02*
X20662500Y-41925000I237500J0D01*
G01*
G37*
%TD*%
%TO.C,R3*%
G36*
G01*
X21375000Y-37862500D02*
X21375000Y-38337500D01*
G75*
G02*
X21137500Y-38575000I-237500J0D01*
G01*
X20637500Y-38575000D01*
G75*
G02*
X20400000Y-38337500I0J237500D01*
G01*
X20400000Y-37862500D01*
G75*
G02*
X20637500Y-37625000I237500J0D01*
G01*
X21137500Y-37625000D01*
G75*
G02*
X21375000Y-37862500I0J-237500D01*
G01*
G37*
G36*
G01*
X23200000Y-37862500D02*
X23200000Y-38337500D01*
G75*
G02*
X22962500Y-38575000I-237500J0D01*
G01*
X22462500Y-38575000D01*
G75*
G02*
X22225000Y-38337500I0J237500D01*
G01*
X22225000Y-37862500D01*
G75*
G02*
X22462500Y-37625000I237500J0D01*
G01*
X22962500Y-37625000D01*
G75*
G02*
X23200000Y-37862500I0J-237500D01*
G01*
G37*
%TD*%
%TO.C,R4*%
G36*
G01*
X25975000Y-37662500D02*
X25975000Y-38137500D01*
G75*
G02*
X25737500Y-38375000I-237500J0D01*
G01*
X25237500Y-38375000D01*
G75*
G02*
X25000000Y-38137500I0J237500D01*
G01*
X25000000Y-37662500D01*
G75*
G02*
X25237500Y-37425000I237500J0D01*
G01*
X25737500Y-37425000D01*
G75*
G02*
X25975000Y-37662500I0J-237500D01*
G01*
G37*
G36*
G01*
X27800000Y-37662500D02*
X27800000Y-38137500D01*
G75*
G02*
X27562500Y-38375000I-237500J0D01*
G01*
X27062500Y-38375000D01*
G75*
G02*
X26825000Y-38137500I0J237500D01*
G01*
X26825000Y-37662500D01*
G75*
G02*
X27062500Y-37425000I237500J0D01*
G01*
X27562500Y-37425000D01*
G75*
G02*
X27800000Y-37662500I0J-237500D01*
G01*
G37*
%TD*%
%TO.C,R5*%
G36*
G01*
X27762500Y-34725000D02*
X28237500Y-34725000D01*
G75*
G02*
X28475000Y-34962500I0J-237500D01*
G01*
X28475000Y-35462500D01*
G75*
G02*
X28237500Y-35700000I-237500J0D01*
G01*
X27762500Y-35700000D01*
G75*
G02*
X27525000Y-35462500I0J237500D01*
G01*
X27525000Y-34962500D01*
G75*
G02*
X27762500Y-34725000I237500J0D01*
G01*
G37*
G36*
G01*
X27762500Y-32900000D02*
X28237500Y-32900000D01*
G75*
G02*
X28475000Y-33137500I0J-237500D01*
G01*
X28475000Y-33637500D01*
G75*
G02*
X28237500Y-33875000I-237500J0D01*
G01*
X27762500Y-33875000D01*
G75*
G02*
X27525000Y-33637500I0J237500D01*
G01*
X27525000Y-33137500D01*
G75*
G02*
X27762500Y-32900000I237500J0D01*
G01*
G37*
%TD*%
%TO.C,R6*%
G36*
G01*
X25437500Y-33875000D02*
X24962500Y-33875000D01*
G75*
G02*
X24725000Y-33637500I0J237500D01*
G01*
X24725000Y-33137500D01*
G75*
G02*
X24962500Y-32900000I237500J0D01*
G01*
X25437500Y-32900000D01*
G75*
G02*
X25675000Y-33137500I0J-237500D01*
G01*
X25675000Y-33637500D01*
G75*
G02*
X25437500Y-33875000I-237500J0D01*
G01*
G37*
G36*
G01*
X25437500Y-35700000D02*
X24962500Y-35700000D01*
G75*
G02*
X24725000Y-35462500I0J237500D01*
G01*
X24725000Y-34962500D01*
G75*
G02*
X24962500Y-34725000I237500J0D01*
G01*
X25437500Y-34725000D01*
G75*
G02*
X25675000Y-34962500I0J-237500D01*
G01*
X25675000Y-35462500D01*
G75*
G02*
X25437500Y-35700000I-237500J0D01*
G01*
G37*
%TD*%
%TO.C,R7*%
G36*
G01*
X30675000Y-27762500D02*
X30675000Y-28237500D01*
G75*
G02*
X30437500Y-28475000I-237500J0D01*
G01*
X29937500Y-28475000D01*
G75*
G02*
X29700000Y-28237500I0J237500D01*
G01*
X29700000Y-27762500D01*
G75*
G02*
X29937500Y-27525000I237500J0D01*
G01*
X30437500Y-27525000D01*
G75*
G02*
X30675000Y-27762500I0J-237500D01*
G01*
G37*
G36*
G01*
X32500000Y-27762500D02*
X32500000Y-28237500D01*
G75*
G02*
X32262500Y-28475000I-237500J0D01*
G01*
X31762500Y-28475000D01*
G75*
G02*
X31525000Y-28237500I0J237500D01*
G01*
X31525000Y-27762500D01*
G75*
G02*
X31762500Y-27525000I237500J0D01*
G01*
X32262500Y-27525000D01*
G75*
G02*
X32500000Y-27762500I0J-237500D01*
G01*
G37*
%TD*%
%TO.C,R8*%
G36*
G01*
X27337500Y-42575000D02*
X26862500Y-42575000D01*
G75*
G02*
X26625000Y-42337500I0J237500D01*
G01*
X26625000Y-41837500D01*
G75*
G02*
X26862500Y-41600000I237500J0D01*
G01*
X27337500Y-41600000D01*
G75*
G02*
X27575000Y-41837500I0J-237500D01*
G01*
X27575000Y-42337500D01*
G75*
G02*
X27337500Y-42575000I-237500J0D01*
G01*
G37*
G36*
G01*
X27337500Y-44400000D02*
X26862500Y-44400000D01*
G75*
G02*
X26625000Y-44162500I0J237500D01*
G01*
X26625000Y-43662500D01*
G75*
G02*
X26862500Y-43425000I237500J0D01*
G01*
X27337500Y-43425000D01*
G75*
G02*
X27575000Y-43662500I0J-237500D01*
G01*
X27575000Y-44162500D01*
G75*
G02*
X27337500Y-44400000I-237500J0D01*
G01*
G37*
%TD*%
%TO.C,R9*%
G36*
G01*
X24637500Y-44400000D02*
X24162500Y-44400000D01*
G75*
G02*
X23925000Y-44162500I0J237500D01*
G01*
X23925000Y-43662500D01*
G75*
G02*
X24162500Y-43425000I237500J0D01*
G01*
X24637500Y-43425000D01*
G75*
G02*
X24875000Y-43662500I0J-237500D01*
G01*
X24875000Y-44162500D01*
G75*
G02*
X24637500Y-44400000I-237500J0D01*
G01*
G37*
G36*
G01*
X24637500Y-42575000D02*
X24162500Y-42575000D01*
G75*
G02*
X23925000Y-42337500I0J237500D01*
G01*
X23925000Y-41837500D01*
G75*
G02*
X24162500Y-41600000I237500J0D01*
G01*
X24637500Y-41600000D01*
G75*
G02*
X24875000Y-41837500I0J-237500D01*
G01*
X24875000Y-42337500D01*
G75*
G02*
X24637500Y-42575000I-237500J0D01*
G01*
G37*
%TD*%
%TO.C,R10*%
G36*
G01*
X33237500Y-58312500D02*
X32762500Y-58312500D01*
G75*
G02*
X32525000Y-58075000I0J237500D01*
G01*
X32525000Y-57575000D01*
G75*
G02*
X32762500Y-57337500I237500J0D01*
G01*
X33237500Y-57337500D01*
G75*
G02*
X33475000Y-57575000I0J-237500D01*
G01*
X33475000Y-58075000D01*
G75*
G02*
X33237500Y-58312500I-237500J0D01*
G01*
G37*
G36*
G01*
X33237500Y-56487500D02*
X32762500Y-56487500D01*
G75*
G02*
X32525000Y-56250000I0J237500D01*
G01*
X32525000Y-55750000D01*
G75*
G02*
X32762500Y-55512500I237500J0D01*
G01*
X33237500Y-55512500D01*
G75*
G02*
X33475000Y-55750000I0J-237500D01*
G01*
X33475000Y-56250000D01*
G75*
G02*
X33237500Y-56487500I-237500J0D01*
G01*
G37*
%TD*%
%TO.C,R11*%
G36*
G01*
X36037500Y-56475000D02*
X35562500Y-56475000D01*
G75*
G02*
X35325000Y-56237500I0J237500D01*
G01*
X35325000Y-55737500D01*
G75*
G02*
X35562500Y-55500000I237500J0D01*
G01*
X36037500Y-55500000D01*
G75*
G02*
X36275000Y-55737500I0J-237500D01*
G01*
X36275000Y-56237500D01*
G75*
G02*
X36037500Y-56475000I-237500J0D01*
G01*
G37*
G36*
G01*
X36037500Y-58300000D02*
X35562500Y-58300000D01*
G75*
G02*
X35325000Y-58062500I0J237500D01*
G01*
X35325000Y-57562500D01*
G75*
G02*
X35562500Y-57325000I237500J0D01*
G01*
X36037500Y-57325000D01*
G75*
G02*
X36275000Y-57562500I0J-237500D01*
G01*
X36275000Y-58062500D01*
G75*
G02*
X36037500Y-58300000I-237500J0D01*
G01*
G37*
%TD*%
%TO.C,R12*%
G36*
G01*
X38100000Y-56237500D02*
X38100000Y-55762500D01*
G75*
G02*
X38337500Y-55525000I237500J0D01*
G01*
X38837500Y-55525000D01*
G75*
G02*
X39075000Y-55762500I0J-237500D01*
G01*
X39075000Y-56237500D01*
G75*
G02*
X38837500Y-56475000I-237500J0D01*
G01*
X38337500Y-56475000D01*
G75*
G02*
X38100000Y-56237500I0J237500D01*
G01*
G37*
G36*
G01*
X39925000Y-56237500D02*
X39925000Y-55762500D01*
G75*
G02*
X40162500Y-55525000I237500J0D01*
G01*
X40662500Y-55525000D01*
G75*
G02*
X40900000Y-55762500I0J-237500D01*
G01*
X40900000Y-56237500D01*
G75*
G02*
X40662500Y-56475000I-237500J0D01*
G01*
X40162500Y-56475000D01*
G75*
G02*
X39925000Y-56237500I0J237500D01*
G01*
G37*
%TD*%
%TO.C,R13*%
G36*
G01*
X27237500Y-48400000D02*
X26762500Y-48400000D01*
G75*
G02*
X26525000Y-48162500I0J237500D01*
G01*
X26525000Y-47662500D01*
G75*
G02*
X26762500Y-47425000I237500J0D01*
G01*
X27237500Y-47425000D01*
G75*
G02*
X27475000Y-47662500I0J-237500D01*
G01*
X27475000Y-48162500D01*
G75*
G02*
X27237500Y-48400000I-237500J0D01*
G01*
G37*
G36*
G01*
X27237500Y-46575000D02*
X26762500Y-46575000D01*
G75*
G02*
X26525000Y-46337500I0J237500D01*
G01*
X26525000Y-45837500D01*
G75*
G02*
X26762500Y-45600000I237500J0D01*
G01*
X27237500Y-45600000D01*
G75*
G02*
X27475000Y-45837500I0J-237500D01*
G01*
X27475000Y-46337500D01*
G75*
G02*
X27237500Y-46575000I-237500J0D01*
G01*
G37*
%TD*%
%TO.C,R14*%
G36*
G01*
X32762500Y-47425000D02*
X33237500Y-47425000D01*
G75*
G02*
X33475000Y-47662500I0J-237500D01*
G01*
X33475000Y-48162500D01*
G75*
G02*
X33237500Y-48400000I-237500J0D01*
G01*
X32762500Y-48400000D01*
G75*
G02*
X32525000Y-48162500I0J237500D01*
G01*
X32525000Y-47662500D01*
G75*
G02*
X32762500Y-47425000I237500J0D01*
G01*
G37*
G36*
G01*
X32762500Y-45600000D02*
X33237500Y-45600000D01*
G75*
G02*
X33475000Y-45837500I0J-237500D01*
G01*
X33475000Y-46337500D01*
G75*
G02*
X33237500Y-46575000I-237500J0D01*
G01*
X32762500Y-46575000D01*
G75*
G02*
X32525000Y-46337500I0J237500D01*
G01*
X32525000Y-45837500D01*
G75*
G02*
X32762500Y-45600000I237500J0D01*
G01*
G37*
%TD*%
%TO.C,R15*%
G36*
G01*
X36237500Y-48400000D02*
X35762500Y-48400000D01*
G75*
G02*
X35525000Y-48162500I0J237500D01*
G01*
X35525000Y-47662500D01*
G75*
G02*
X35762500Y-47425000I237500J0D01*
G01*
X36237500Y-47425000D01*
G75*
G02*
X36475000Y-47662500I0J-237500D01*
G01*
X36475000Y-48162500D01*
G75*
G02*
X36237500Y-48400000I-237500J0D01*
G01*
G37*
G36*
G01*
X36237500Y-46575000D02*
X35762500Y-46575000D01*
G75*
G02*
X35525000Y-46337500I0J237500D01*
G01*
X35525000Y-45837500D01*
G75*
G02*
X35762500Y-45600000I237500J0D01*
G01*
X36237500Y-45600000D01*
G75*
G02*
X36475000Y-45837500I0J-237500D01*
G01*
X36475000Y-46337500D01*
G75*
G02*
X36237500Y-46575000I-237500J0D01*
G01*
G37*
%TD*%
%TO.C,R16*%
G36*
G01*
X38762500Y-47425000D02*
X39237500Y-47425000D01*
G75*
G02*
X39475000Y-47662500I0J-237500D01*
G01*
X39475000Y-48162500D01*
G75*
G02*
X39237500Y-48400000I-237500J0D01*
G01*
X38762500Y-48400000D01*
G75*
G02*
X38525000Y-48162500I0J237500D01*
G01*
X38525000Y-47662500D01*
G75*
G02*
X38762500Y-47425000I237500J0D01*
G01*
G37*
G36*
G01*
X38762500Y-45600000D02*
X39237500Y-45600000D01*
G75*
G02*
X39475000Y-45837500I0J-237500D01*
G01*
X39475000Y-46337500D01*
G75*
G02*
X39237500Y-46575000I-237500J0D01*
G01*
X38762500Y-46575000D01*
G75*
G02*
X38525000Y-46337500I0J237500D01*
G01*
X38525000Y-45837500D01*
G75*
G02*
X38762500Y-45600000I237500J0D01*
G01*
G37*
%TD*%
%TO.C,R17*%
G36*
G01*
X32500000Y-17362500D02*
X32500000Y-17837500D01*
G75*
G02*
X32262500Y-18075000I-237500J0D01*
G01*
X31762500Y-18075000D01*
G75*
G02*
X31525000Y-17837500I0J237500D01*
G01*
X31525000Y-17362500D01*
G75*
G02*
X31762500Y-17125000I237500J0D01*
G01*
X32262500Y-17125000D01*
G75*
G02*
X32500000Y-17362500I0J-237500D01*
G01*
G37*
G36*
G01*
X30675000Y-17362500D02*
X30675000Y-17837500D01*
G75*
G02*
X30437500Y-18075000I-237500J0D01*
G01*
X29937500Y-18075000D01*
G75*
G02*
X29700000Y-17837500I0J237500D01*
G01*
X29700000Y-17362500D01*
G75*
G02*
X29937500Y-17125000I237500J0D01*
G01*
X30437500Y-17125000D01*
G75*
G02*
X30675000Y-17362500I0J-237500D01*
G01*
G37*
%TD*%
%TO.C,R18*%
G36*
G01*
X22062500Y-17100000D02*
X22537500Y-17100000D01*
G75*
G02*
X22775000Y-17337500I0J-237500D01*
G01*
X22775000Y-17837500D01*
G75*
G02*
X22537500Y-18075000I-237500J0D01*
G01*
X22062500Y-18075000D01*
G75*
G02*
X21825000Y-17837500I0J237500D01*
G01*
X21825000Y-17337500D01*
G75*
G02*
X22062500Y-17100000I237500J0D01*
G01*
G37*
G36*
G01*
X22062500Y-18925000D02*
X22537500Y-18925000D01*
G75*
G02*
X22775000Y-19162500I0J-237500D01*
G01*
X22775000Y-19662500D01*
G75*
G02*
X22537500Y-19900000I-237500J0D01*
G01*
X22062500Y-19900000D01*
G75*
G02*
X21825000Y-19662500I0J237500D01*
G01*
X21825000Y-19162500D01*
G75*
G02*
X22062500Y-18925000I237500J0D01*
G01*
G37*
%TD*%
D14*
%TO.C,U1*%
X16900000Y-44950000D03*
X15950000Y-44950000D03*
X17850000Y-44950000D03*
X17850000Y-47650000D03*
X16900000Y-47650000D03*
X15950000Y-47650000D03*
%TD*%
%TO.C,U2*%
X15950000Y-41050000D03*
X16900000Y-41050000D03*
X17850000Y-41050000D03*
X17850000Y-38350000D03*
X15950000Y-38350000D03*
X16900000Y-38350000D03*
%TD*%
%TO.C,U3*%
G36*
G01*
X30025000Y-44300000D02*
X29825000Y-44300000D01*
G75*
G02*
X29725000Y-44200000I0J100000D01*
G01*
X29725000Y-42925000D01*
G75*
G02*
X29825000Y-42825000I100000J0D01*
G01*
X30025000Y-42825000D01*
G75*
G02*
X30125000Y-42925000I0J-100000D01*
G01*
X30125000Y-44200000D01*
G75*
G02*
X30025000Y-44300000I-100000J0D01*
G01*
G37*
G36*
G01*
X30675000Y-44300000D02*
X30475000Y-44300000D01*
G75*
G02*
X30375000Y-44200000I0J100000D01*
G01*
X30375000Y-42925000D01*
G75*
G02*
X30475000Y-42825000I100000J0D01*
G01*
X30675000Y-42825000D01*
G75*
G02*
X30775000Y-42925000I0J-100000D01*
G01*
X30775000Y-44200000D01*
G75*
G02*
X30675000Y-44300000I-100000J0D01*
G01*
G37*
G36*
G01*
X31325000Y-44300000D02*
X31125000Y-44300000D01*
G75*
G02*
X31025000Y-44200000I0J100000D01*
G01*
X31025000Y-42925000D01*
G75*
G02*
X31125000Y-42825000I100000J0D01*
G01*
X31325000Y-42825000D01*
G75*
G02*
X31425000Y-42925000I0J-100000D01*
G01*
X31425000Y-44200000D01*
G75*
G02*
X31325000Y-44300000I-100000J0D01*
G01*
G37*
G36*
G01*
X31975000Y-44300000D02*
X31775000Y-44300000D01*
G75*
G02*
X31675000Y-44200000I0J100000D01*
G01*
X31675000Y-42925000D01*
G75*
G02*
X31775000Y-42825000I100000J0D01*
G01*
X31975000Y-42825000D01*
G75*
G02*
X32075000Y-42925000I0J-100000D01*
G01*
X32075000Y-44200000D01*
G75*
G02*
X31975000Y-44300000I-100000J0D01*
G01*
G37*
G36*
G01*
X31975000Y-38575000D02*
X31775000Y-38575000D01*
G75*
G02*
X31675000Y-38475000I0J100000D01*
G01*
X31675000Y-37200000D01*
G75*
G02*
X31775000Y-37100000I100000J0D01*
G01*
X31975000Y-37100000D01*
G75*
G02*
X32075000Y-37200000I0J-100000D01*
G01*
X32075000Y-38475000D01*
G75*
G02*
X31975000Y-38575000I-100000J0D01*
G01*
G37*
G36*
G01*
X31325000Y-38575000D02*
X31125000Y-38575000D01*
G75*
G02*
X31025000Y-38475000I0J100000D01*
G01*
X31025000Y-37200000D01*
G75*
G02*
X31125000Y-37100000I100000J0D01*
G01*
X31325000Y-37100000D01*
G75*
G02*
X31425000Y-37200000I0J-100000D01*
G01*
X31425000Y-38475000D01*
G75*
G02*
X31325000Y-38575000I-100000J0D01*
G01*
G37*
G36*
G01*
X30675000Y-38575000D02*
X30475000Y-38575000D01*
G75*
G02*
X30375000Y-38475000I0J100000D01*
G01*
X30375000Y-37200000D01*
G75*
G02*
X30475000Y-37100000I100000J0D01*
G01*
X30675000Y-37100000D01*
G75*
G02*
X30775000Y-37200000I0J-100000D01*
G01*
X30775000Y-38475000D01*
G75*
G02*
X30675000Y-38575000I-100000J0D01*
G01*
G37*
G36*
G01*
X30025000Y-38575000D02*
X29825000Y-38575000D01*
G75*
G02*
X29725000Y-38475000I0J100000D01*
G01*
X29725000Y-37200000D01*
G75*
G02*
X29825000Y-37100000I100000J0D01*
G01*
X30025000Y-37100000D01*
G75*
G02*
X30125000Y-37200000I0J-100000D01*
G01*
X30125000Y-38475000D01*
G75*
G02*
X30025000Y-38575000I-100000J0D01*
G01*
G37*
%TD*%
D15*
%TO.C,U4*%
X30400000Y-52400000D03*
D16*
X29140000Y-51140000D03*
X31660000Y-51140000D03*
X31660000Y-53660000D03*
X29140000Y-53660000D03*
D17*
X31800000Y-51650000D03*
X31800000Y-52150000D03*
X31800000Y-52650000D03*
X31800000Y-53150000D03*
X29000000Y-51650000D03*
X29000000Y-52150000D03*
X29000000Y-53150000D03*
X29000000Y-52650000D03*
D18*
X29650000Y-53800000D03*
X30150000Y-53800000D03*
X30650000Y-53800000D03*
X31150000Y-53800000D03*
X29650000Y-51000000D03*
X30150000Y-51000000D03*
X30650000Y-51000000D03*
X31150000Y-51000000D03*
%TD*%
%TO.C,C12*%
G36*
G01*
X32600000Y-24862500D02*
X32600000Y-25337500D01*
G75*
G02*
X32362500Y-25575000I-237500J0D01*
G01*
X31762500Y-25575000D01*
G75*
G02*
X31525000Y-25337500I0J237500D01*
G01*
X31525000Y-24862500D01*
G75*
G02*
X31762500Y-24625000I237500J0D01*
G01*
X32362500Y-24625000D01*
G75*
G02*
X32600000Y-24862500I0J-237500D01*
G01*
G37*
G36*
G01*
X30875000Y-24862500D02*
X30875000Y-25337500D01*
G75*
G02*
X30637500Y-25575000I-237500J0D01*
G01*
X30037500Y-25575000D01*
G75*
G02*
X29800000Y-25337500I0J237500D01*
G01*
X29800000Y-24862500D01*
G75*
G02*
X30037500Y-24625000I237500J0D01*
G01*
X30637500Y-24625000D01*
G75*
G02*
X30875000Y-24862500I0J-237500D01*
G01*
G37*
%TD*%
%TO.C,L1*%
G36*
G01*
X30250001Y-58500000D02*
X29349999Y-58500000D01*
G75*
G02*
X29100000Y-58250001I0J249999D01*
G01*
X29100000Y-57599999D01*
G75*
G02*
X29349999Y-57350000I249999J0D01*
G01*
X30250001Y-57350000D01*
G75*
G02*
X30500000Y-57599999I0J-249999D01*
G01*
X30500000Y-58250001D01*
G75*
G02*
X30250001Y-58500000I-249999J0D01*
G01*
G37*
G36*
G01*
X30250001Y-56450000D02*
X29349999Y-56450000D01*
G75*
G02*
X29100000Y-56200001I0J249999D01*
G01*
X29100000Y-55549999D01*
G75*
G02*
X29349999Y-55300000I249999J0D01*
G01*
X30250001Y-55300000D01*
G75*
G02*
X30500000Y-55549999I0J-249999D01*
G01*
X30500000Y-56200001D01*
G75*
G02*
X30250001Y-56450000I-249999J0D01*
G01*
G37*
%TD*%
D13*
%TO.C,Q4*%
X20850000Y-23800000D03*
X18950000Y-23800000D03*
X19900000Y-25800000D03*
%TD*%
D11*
%TO.C,D4*%
X26650000Y-25900000D03*
X24150000Y-25900000D03*
%TD*%
M02*
