M48
; DRILL file {KiCad (5.1.12)-1} date 02/18/23 19:16:06
; FORMAT={-:-/ absolute / metric / decimal}
; #@! TF.CreationDate,2023-02-18T19:16:06+02:00
; #@! TF.GenerationSoftware,Kicad,Pcbnew,(5.1.12)-1
; #@! TF.FileFunction,Plated,1,2,PTH
FMAT,2
METRIC
T1C0.400
T2C0.750
T3C1.000
T4C3.200
%
G90
G05
T1
X16.0Y-28.8
X16.0Y-30.2
X17.6Y-28.8
X19.3Y-48.3
X19.5Y-43.8
X19.9Y-39.5
X21.2Y-48.3
X22.712Y-38.1
X24.4Y-43.913
X25.8Y-50.5
X26.762Y-55.8
X27.0Y-47.912
X27.8Y-50.0
X28.2Y-56.7
X28.6Y-25.1
X29.8Y-57.925
X30.0Y-46.1
X31.5Y-56.8
X33.1Y-51.1
X34.2Y-23.0
X35.3Y-16.6
X35.3Y-20.4
X37.5Y-47.7
X37.7Y-49.3
X38.3Y-44.3
X38.3Y-51.4
X38.4Y-53.5
X39.0Y-38.0
X40.5Y-28.9
X40.5Y-30.2
X40.7Y-35.4
X41.6Y-51.4
X41.6Y-53.3
T2
X20.0Y-52.6
X20.0Y-54.6
X36.0Y-26.0
X36.0Y-28.0
X36.0Y-30.0
X36.0Y-36.0
X36.0Y-38.0
X36.0Y-40.0
X36.0Y-42.0
T3
X21.0Y-30.6
X21.0Y-33.1
T4
X17.0Y-19.0
X17.0Y-61.0
X39.0Y-19.0
X39.0Y-61.0
T0
M30
